<?xml version="1.0" encoding="UTF-8" standalone="no"?>
<!-- Created with Inkscape (http://www.inkscape.org/) -->

<svg
   width="354.15616mm"
   height="352.1987mm"
   viewBox="0 0 354.15616 352.1987"
   version="1.1"
   id="svg1"
   xmlns="http://www.w3.org/2000/svg"
   xmlns:svg="http://www.w3.org/2000/svg">
  <defs
     id="defs1" />
  <g
     id="layer1"
     transform="translate(71.966657,27.516668)">
    <g
       id="g2"
       transform="matrix(0.26458333,0,0,0.26458333,-233.54197,-42.158769)">
      <path
         style="fill:#0089fd"
         d="m 694,878.17328 c -2.2,-1.02663 -6.31441,-4.27685 -9.14312,-7.22272 -4.63343,-4.82534 -5.31408,-6.4592 -6.86808,-16.48668 -0.94873,-6.1218 -1.8609,-11.13055 -2.02704,-11.13055 -0.16615,0 -0.49996,-1.2 -0.7418,-2.66666 -1.16009,-7.03544 -3.66001,-16.16422 -4.82204,-17.60826 -0.71179,-0.88455 -0.93272,-2.19309 -0.49096,-2.90787 0.44176,-0.71479 0.26265,-1.63369 -0.39803,-2.04201 -0.66067,-0.40832 -1.60723,-3.44978 -2.10344,-6.7588 -0.49622,-3.30902 -1.49176,-6.0164 -2.2123,-6.0164 -0.72055,0 -1.18915,-0.75 -1.04135,-1.66666 C 664.29965,802.75 664.05146,801.1 663.6003,800 c -0.90075,-2.19618 -3.63056,-15.48263 -3.83523,-18.66667 -0.0707,-1.1 -0.57994,-2.6 -1.13163,-3.33333 -0.55169,-0.73333 -1.42894,-5.08441 -1.94945,-9.66906 -0.52051,-4.58465 -1.46114,-8.65386 -2.09028,-9.0427 -0.62915,-0.38884 -0.80592,-1.58776 -0.39283,-2.66427 0.4131,-1.07652 0.13964,-1.9573 -0.6077,-1.9573 -0.74733,0 -1.76373,-2.39686 -2.25867,-5.32635 -0.49493,-2.92949 -1.45746,-5.67095 -2.13894,-6.09213 -0.68149,-0.42118 -0.91949,-1.28287 -0.5289,-1.91486 0.39059,-0.63199 0.10037,-1.52594 -0.64492,-1.98655 -0.7453,-0.46062 -1.35878,-1.85208 -1.3633,-3.09214 -0.005,-1.24005 -0.87761,-3.92137 -1.94022,-5.95848 -1.0626,-2.03712 -2.60899,-7.43712 -3.43642,-12 -0.82743,-4.56289 -2.10736,-9.55579 -2.84428,-11.09534 -0.73692,-1.53955 -1.19462,-3.93955 -1.01711,-5.33334 0.17751,-1.39378 -0.003,-3.43415 -0.40211,-4.53415 -0.39867,-1.1 -1.36069,-6.5 -2.13783,-12 -0.77713,-5.5 -2.2864,-11.8 -3.35391,-14 -1.06752,-2.2 -2.36555,-6.7 -2.88451,-10 -0.51896,-3.3 -1.40241,-6.6 -1.96323,-7.33333 -0.56081,-0.73333 -1.78465,-7.63333 -2.71963,-15.33333 -0.93499,-7.7 -2.20885,-14.66214 -2.83081,-15.47143 -0.62196,-0.80928 -1.08192,-2.90928 -1.02213,-4.66666 0.11639,-3.42127 -2.23957,-13.48001 -4.18363,-17.86191 -1.66672,-3.75679 -5.24807,-25.60985 -5.24427,-32 0.006,-9.55837 2.42698,-15.05289 9.8622,-22.37987 3.8809,-3.82441 10.57092,-8.75347 14.8667,-10.95347 10.39272,-5.32242 35.75232,-19.63108 36.59274,-20.64673 1.26825,-1.53269 10.82519,-6.68662 12.40955,-6.69231 0.87475,-0.003 4.29045,-1.83777 7.59045,-4.07696 3.3,-2.23918 12.43234,-7.33277 20.29408,-11.31907 7.86175,-3.98631 17.71286,-9.4348 21.89137,-12.10776 12.72966,-8.14306 22.63893,-11.56493 31.24441,-10.78931 4.08642,0.36831 10.08642,2.01489 13.33333,3.65906 3.51254,1.77869 16.16361,13.06692 31.23681,27.87183 13.93333,13.68533 30.03014,29.00248 35.77067,34.03812 5.74054,5.03563 15.04054,14.63543 20.66667,21.33288 10.61065,12.63113 50.67349,52.21099 62.08326,61.33482 3.58634,2.86782 13.89667,12.45498 22.91186,21.30482 9.01519,8.84984 21.91149,21.44649 28.65845,27.99256 14.53558,14.1028 17.80233,20.12168 16.9931,31.30918 -0.72779,10.06167 -4.36447,14.67929 -18.41734,23.38517 -6.23334,3.86161 -16.6655,10.46373 -23.1826,14.67139 -6.51709,4.20766 -14.31709,8.71691 -17.33333,10.02057 -3.01624,1.30366 -10.53313,5.44712 -16.70421,9.20768 -14.7572,8.99284 -19.89695,9.22598 -31.44653,1.42642 -16.79297,-11.34049 -24.90018,-13.99367 -31.75432,-10.39199 -1.60179,0.84169 -7.71235,4.97519 -13.57901,9.18553 -5.86667,4.21035 -16.93847,10.76755 -24.604,14.57157 -17.2965,8.5834 -20.69111,10.98224 -24.83887,17.55272 -3.17377,5.02757 -3.26414,5.79742 -2.44824,20.8567 0.81061,14.96175 0.71147,15.83109 -2.29753,20.14741 -2.09096,2.99941 -7.83586,7.08368 -17.1447,12.18881 -7.7,4.22283 -22.1,12.51571 -32,18.42865 -9.9,5.91293 -21.07517,12.57919 -24.83371,14.8139 -8.1223,4.82926 -16.83209,6.20903 -22.49962,3.56429 z M 775.83497,673.07799 C 789.70082,665.5981 796,660.35779 796,656.30262 c 0,-3.96972 -6.15075,-11.55775 -23.33677,-28.78999 -24.16609,-24.23109 -27.92759,-26.25191 -34.15366,-18.34871 -3.68795,4.68138 -2.89434,10.38961 5.58473,40.16941 5.62041,19.73976 7.25739,23.89804 10.62902,27 2.19198,2.01667 4.95169,3.66667 6.13269,3.66667 1.181,0 7.92153,-3.11491 14.97896,-6.92201 z m 240.37613,14.72114 c -7.4419,-3.68364 -11.9565,-10.51788 -38.18149,-57.79913 -5.28774,-9.53333 -15.72628,-26.51482 -23.19674,-37.73665 -15.4396,-23.19272 -31.71002,-51.33984 -44.79598,-77.49512 -4.92521,-9.84415 -13.05034,-24.00257 -18.05586,-31.46317 -8.1126,-12.09163 -12.15701,-19.2199 -26.98638,-47.5634 -6.83814,-13.06979 -6.33337,-23.54646 1.55132,-32.19851 1.89972,-2.0846 11.55403,-7.82465 21.45403,-12.75567 9.9,-4.93102 23.87248,-13.24073 31.04994,-18.46604 18.94042,-13.7889 32.57063,-18.01077 42.15168,-13.05622 4.72224,2.44197 10.90969,9.45697 15.59589,17.6818 2.00128,3.51247 9.50643,16.10116 16.67811,27.97486 7.17168,11.87371 14.84258,26.09166 17.04638,31.59545 2.2038,5.50379 7.6893,15.85178 12.1899,22.99553 4.5006,7.14375 12.6753,20.8258 18.166,30.40456 5.4907,9.57875 11.8683,19.37751 14.1725,21.77501 8.4169,8.75796 18.0691,8.25209 31.5643,-1.65427 5.9299,-4.35299 15.5753,-10.01206 33.3339,-19.55742 7.8336,-4.21065 15.8053,-3.04505 25.6912,3.75651 3.5961,2.47411 6.3093,6.23785 9.7982,13.59215 6.353,13.3914 19.4744,36.13003 26.7226,46.30892 8.6307,12.12038 11.1103,18.4711 11.1385,28.52835 0.037,13.32325 -2.2389,16.06407 -20.5818,24.78311 -8.3486,3.96839 -21.6782,11.63761 -29.6214,17.04273 -14.2619,9.70488 -44.8493,27.71911 -59.0959,34.80414 -4.0333,2.00583 -15.7333,9.22548 -26,16.04367 -24.0364,15.96278 -30.6978,17.94878 -41.7889,12.45881 z M 1211.2765,573.5161 c -5.0052,-3.05229 -10.2054,-9.13321 -14.7941,-17.29974 -1.9211,-3.419 -6.6399,-11.61636 -10.4862,-18.21636 -3.8462,-6.6 -9.5709,-16.8 -12.7215,-22.66667 -5.508,-10.2567 -8.9193,-15.7282 -29.9259,-48 -11.4565,-17.60019 -26.7101,-44.57234 -38.0791,-67.33333 -4.5787,-9.16667 -12.3503,-22.66668 -17.2702,-30.00003 -8.1412,-12.13493 -15.1404,-24.51288 -27.519,-48.66664 -6.8637,-13.39307 -6.0058,-25.17567 2.3928,-32.86121 1.7197,-1.57367 10.6267,-6.59021 19.7934,-11.14787 9.1666,-4.55767 22.3666,-12.29533 29.3333,-17.1948 6.9667,-4.89948 14.1667,-9.83553 16,-10.96902 4.9313,-3.04886 15.8824,-6.49376 20.6431,-6.49376 6.3489,0 15.3936,6.55615 20.4113,14.79528 19.5296,32.06783 33.573,56.68161 36.8222,64.53805 2.1229,5.13333 9.6696,18.93333 16.7703,30.66667 7.1008,11.73333 15.86,26.37251 19.4651,32.5315 12.5304,21.40723 21.2893,23.71301 40.0812,10.5514 5.7604,-4.03451 13.3135,-8.59048 16.7846,-10.12438 3.4711,-1.53391 8.2711,-4.26859 10.6666,-6.07708 15.0232,-11.34146 31.8641,-5.51371 41.4166,14.33208 6.5192,13.54397 19.3394,35.66756 28.2618,48.77106 7.9266,11.64096 9.992,17.3158 10.0031,27.48491 0.012,11.03346 -3.1998,14.4047 -23.3773,24.53758 -9.5051,4.7733 -24.0771,13.31157 -32.3822,18.97393 -8.3052,5.66236 -23.0052,14.58356 -32.6667,19.82489 -30.1553,16.35912 -38.5657,21.33035 -49.5759,29.30338 -5.8719,4.25215 -13.3719,8.95389 -16.6667,10.44833 -7.6567,3.47296 -17.9533,3.60148 -23.3806,0.29183 z"
         id="path8" />
      <path
         style="fill:#a4009a"
         d="m 752.534,1033.1267 c -4.81494,-5.378 -16.53605,-27.0598 -16.4916,-30.5062 0.0708,-5.4913 2.97346,-7.67495 16.00563,-12.04113 19.67146,-6.59054 26.90559,-10.12904 26.34204,-12.88493 -0.40709,-1.99075 -1.52126,-2.25654 -7.10311,-1.69444 -3.64116,0.36667 -14.12029,0.66667 -23.28696,0.66667 -15.87571,0 -17.07796,-0.19582 -25.33333,-4.12607 -16.705,-7.95299 -25.08776,-19.9454 -26.29949,-37.62413 -0.94128,-13.73306 1.6997,-22.73942 9.22689,-31.46578 C 715.64968,891.79308 749.96179,872 760.11509,872 c 6.57034,0 9.09691,2.44931 17.19238,16.66667 5.39503,9.47481 6.67352,12.82824 6.07553,15.9359 -1.0311,5.35849 -5.36041,9.63802 -10.77838,10.65443 -6.14342,1.15251 -18.31821,6.65471 -20.47481,9.25326 -2.37821,2.86557 0.73905,4.08268 7.5433,2.94521 23.61326,-3.94743 42.79973,-1.89886 54.78848,5.84984 9.02357,5.83222 13.28311,10.94528 17.9513,21.54839 4.95269,11.24929 5.39655,14.8261 2.90391,23.40049 -6.4674,22.24711 -16.09243,31.15731 -53.26463,49.30881 -18.06287,8.8203 -25.36955,10.1974 -29.51817,5.5637 z m 126.75304,-67.72873 c -3.63513,-1.47347 -5.28102,-3.72294 -7.29599,-9.97163 -2.13819,-6.63077 -9.67794,-19.55098 -14.84046,-25.43076 -4.52427,-5.15286 -20.83755,-16.19463 -36.48392,-24.69442 -5.86667,-3.18702 -17.56667,-10.38269 -26,-15.99037 -8.43334,-5.60767 -17.55236,-11.52644 -20.2645,-13.15282 -5.17019,-3.10038 -7.09755,-6.5731 -5.82267,-10.4913 0.41757,-1.28334 5.37067,-4.73334 11.00691,-7.66667 5.63623,-2.93333 13.88502,-7.67235 18.33064,-10.53115 4.44562,-2.85881 10.1272,-6.05624 12.62573,-7.10541 4.35704,-1.82959 4.7659,-1.74136 10,2.15798 8.94059,6.66063 23.90681,16.95166 27.13649,18.6595 2.68262,1.41856 3.15251,1.22506 4.28996,-1.76666 0.70255,-1.84784 1.49006,-12.10363 1.75003,-22.79064 l 0.47266,-19.43092 3.90404,-3.82191 c 2.14722,-2.10205 9.90404,-6.96455 17.23737,-10.80556 7.33334,-3.84101 14.53334,-8.00011 16,-9.24243 4.31446,-3.65451 6.99739,-4.02228 10.23248,-1.40267 2.80201,2.26894 3.10079,3.89056 3.9797,21.59982 0.53871,10.85451 0.34188,27.74964 -0.45447,39.01088 -0.77259,10.92529 -1.13476,24.72529 -0.80481,30.66666 0.52451,9.44496 1.31929,12.22303 6.32436,22.1061 3.14845,6.21697 8.34907,15.13673 11.55693,19.82169 8.60622,12.56904 7.89518,15.88483 -4.83419,22.54298 -4.03333,2.10966 -13.17812,7.24734 -20.32175,11.41707 -13.83753,8.07696 -13.58964,7.98867 -17.72454,6.31264 z m 84.96412,-55.7313 c -1.4284,-2.01667 -5.66926,-8.87737 -9.42413,-15.246 -7.24354,-12.28578 -8.41949,-17.8996 -4.4937,-21.45227 1.28334,-1.16135 10.11263,-4.85507 19.62067,-8.20826 9.50803,-3.35319 18.14007,-6.94945 19.18232,-7.9917 2.81197,-2.81197 0.88489,-6.60928 -2.81919,-5.55522 -7.35526,2.09307 -24.24867,3.21237 -33.86006,2.24344 -17.87267,-1.80175 -30.6074,-9.40596 -38.91181,-23.23516 -3.73801,-6.22485 -4.57106,-9.11553 -5.17774,-17.96674 -1.36973,-19.98395 4.17052,-31.02706 21.69725,-43.24814 C 945.61895,758.16097 965.79054,748 971.76719,748 c 6.59339,0 9.00732,2.37705 17.51953,17.25187 5.53453,9.67143 6.75357,12.8627 6.0818,15.92127 -1.10512,5.03158 -5.4543,8.90969 -12.03519,10.73165 -2.93333,0.8121 -8.60913,3.11575 -12.61288,5.11922 -12.40373,6.20677 -9.90248,9.40913 4.89935,6.27264 15.82976,-3.3543 35.3588,-1.91988 45.6712,3.35457 9.5192,4.86872 17.6184,13.4987 22.4182,23.88715 4.0031,8.66409 4.5077,10.9333 4.0456,18.19047 -0.7117,11.17724 -8.2754,26.68084 -16.1364,33.0753 -13.0562,10.6205 -53.83031,31.52919 -61.48511,31.52919 -2.06519,0 -4.24943,-1.36156 -5.88213,-3.66666 z m 113.44314,-62.36388 c -1.5944,-1.1168 -5.2347,-6.3668 -8.0896,-11.66667 -5.7857,-10.74105 -12.7943,-23.06927 -26.8846,-47.29091 -6.7713,-11.64011 -10.3684,-16.54079 -12.5412,-17.08613 -1.8345,-0.46042 -6.1231,0.59585 -10.7787,2.6548 -14.3859,6.3621 -14.1649,6.53317 -31.8195,-24.6373 -3.96423,-6.99914 -2.40893,-11.13452 5.87719,-15.62686 3.70255,-2.00735 11.33921,-6.28395 16.97031,-9.50356 5.6312,-3.21961 16.8385,-9.60368 24.9051,-14.18681 8.0667,-4.58314 20.0083,-11.69891 26.5368,-15.81283 17.5116,-11.03477 21.4581,-10.25157 29.4955,5.85348 2.0129,4.03333 5.4176,9.89739 7.566,13.03124 5.5891,8.15283 4.7943,12.03803 -3.3625,16.43674 -14.1196,7.61418 -14.8537,11.55863 -5.2152,28.02318 3.5982,6.14653 10.9449,18.97551 16.3261,28.50884 5.3811,9.53333 11.8995,19.94157 14.4853,23.12942 5.4838,6.76072 6.278,13.37328 2.1014,17.49675 -1.43,1.41181 -8.6,5.99832 -15.9334,10.19225 -24.5515,14.04105 -24.5579,14.0433 -29.639,10.48437 z M 1154.2577,801 c -1.7662,-2.38333 -4.0953,-6.13333 -5.1757,-8.33333 -7.7152,-15.71075 -20.4088,-38.16664 -28.1979,-49.88427 -5.0761,-7.63635 -11.6344,-18.43635 -14.5739,-24 -2.9395,-5.56365 -7.6479,-13.73612 -10.463,-18.16103 -9.8898,-15.54512 -9.6847,-20.61014 1.0828,-26.73746 3.5219,-2.00411 10.9033,-6.33854 16.4033,-9.63206 5.5,-3.29352 13.3,-7.78901 17.3334,-9.98998 4.0333,-2.20096 15.2821,-8.77562 24.9974,-14.61035 19.3329,-11.61086 21.7252,-12.08237 26.9833,-5.31825 7.9906,10.27907 14.6302,22.55309 14.6574,27.09561 0.027,4.55931 -0.4117,5.01 -10.3048,10.57776 -30.2548,17.02723 -33.3694,19.52869 -29.337,23.56114 2.1571,2.15709 2.5648,2.15304 7.3108,-0.0726 2.7644,-1.2964 7.1262,-3.72489 9.6929,-5.39666 15.3061,-9.96946 24.7405,-15.43185 26.6531,-15.43185 1.1997,0 3.6836,1.65 5.5198,3.66666 5.4789,6.01749 14.4937,20.97428 14.4937,24.04713 0,2.8766 -12.4629,11.93878 -28.6666,20.8444 -8.5544,4.70153 -11.9183,7.99443 -10.8938,10.6641 1.5102,3.93553 8.1255,2.3723 18.3757,-4.34232 5.4183,-3.54934 13.8518,-8.67323 18.7411,-11.38641 13.27,-7.36375 15.7287,-6.15295 26.7502,13.1731 10.1172,17.74043 9.9242,19.04764 -3.9525,26.7624 -4.9614,2.75828 -10.942,6.46445 -13.2903,8.23593 -2.3482,1.77148 -9.5482,6.06368 -16,9.53823 -11.758,6.33218 -16.5051,9.13167 -37.905,22.3534 -6.3293,3.91052 -12.7488,7.11004 -14.2655,7.11004 -1.5635,0 -4.1481,-1.8764 -5.9689,-4.33333 z m 110.0783,-65.33333 c -1.5375,-1.65 -4.964,-7.77301 -7.6145,-13.60668 -2.6504,-5.83368 -8.3068,-16.33368 -12.5697,-23.33334 -4.2629,-6.99966 -12.1008,-20.52665 -17.4176,-30.05998 -5.3168,-9.53334 -13.5237,-23.05394 -18.2377,-30.04579 -10.5429,-15.63745 -11.8215,-20.89652 -6.3238,-26.011 2.105,-1.95829 7.7273,-5.53891 12.494,-7.95694 4.7666,-2.41802 12.2313,-6.55412 16.5882,-9.19134 4.3569,-2.63721 9.1929,-4.79493 10.7467,-4.79493 1.5538,0 6.9891,2.04345 12.0784,4.54101 5.0893,2.49756 13.1246,5.80485 17.8562,7.34952 11.9736,3.90893 12.2466,3.51936 13.2922,-18.96796 0.9033,-19.42596 1.2372,-20.33222 9.2548,-25.1199 2.6676,-1.59291 10.0148,-6.12404 16.3271,-10.06916 13.3152,-8.32174 19.8519,-10.02052 24.0347,-6.2462 1.5315,1.38198 5.1988,7.31269 8.1496,13.17935 2.9507,5.86667 7.602,13.96667 10.3361,18 2.734,4.03334 6.9267,11.23334 9.317,16 4.8194,9.61062 13.5683,24.25653 29.4602,49.31716 6.1451,9.69041 10.5588,18.08569 10.5588,20.08388 0,4.18478 -4.6881,8.71084 -14.7844,14.27326 -4.098,2.25778 -11.241,6.5547 -15.8733,9.54871 -9.1962,5.94374 -14.3688,6.79934 -17.8501,2.95254 -2.2445,-2.4801 -9.9314,-14.55782 -14.1137,-22.17555 -12.8559,-23.41589 -14.0071,-23.94765 -18.0452,-8.33525 -3.5679,13.79449 -5.0859,15.1926 -14.2423,13.11792 -12.9302,-2.92975 -14.1017,-3.05016 -15.0319,-1.54505 -0.5078,0.82166 2.3314,6.72933 6.3093,13.12816 10.8673,17.48084 16.9649,29.07092 16.9649,32.24622 0,1.813 -1.5112,3.66945 -4.1653,5.11668 -2.2909,1.24923 -11.5034,6.62132 -20.4722,11.93799 -17.7724,10.53533 -22.3657,11.66837 -27.0265,6.66667 z M 1410.3466,651 c -1.1367,-1.28333 -5.4297,-7.90443 -9.54,-14.71355 -8.0172,-13.28129 -9.398,-19.52555 -5.1399,-23.2443 1.2833,-1.12079 8.9333,-4.28675 17,-7.03545 21.4798,-7.31923 25.1518,-9.54231 22.0115,-13.32617 -1.2087,-1.4564 -2.3386,-1.55147 -5.1148,-0.43039 -1.9599,0.79142 -11.3634,1.50804 -20.8967,1.5925 -22.9603,0.20341 -30.8614,-2.49083 -42.8437,-14.60962 -9.3783,-9.48511 -12.621,-17.07066 -12.9503,-30.29373 -0.4451,-17.87104 6.3206,-28.97416 25.3215,-41.55504 15.5458,-10.29321 30.9926,-18.10617 37.5309,-18.98315 6.8245,-0.91535 10.1793,2.20175 18.8235,17.48931 9.5663,16.91852 7.8465,21.51739 -10.4575,27.96386 -5.4499,1.91939 -11.2999,4.40122 -13,5.51517 -6.5457,4.28891 -2.026,7.21827 7.4132,4.80467 10.3168,-2.63802 33.0032,-2.40025 41.4957,0.43492 14.8546,4.95912 23.9366,13.66247 30.0164,28.7651 3.108,7.72024 3.5739,10.41763 2.9102,16.84774 -1.0682,10.3503 -8.6682,25.54117 -15.8564,31.69406 -11.34,9.70664 -53.5982,31.39677 -61.1969,31.41095 -1.903,0.004 -4.39,-1.04355 -5.5267,-2.32688 z M 878.43926,157.66673 c 69.17492,-0.19087 181.97494,-0.19085 250.66664,4e-5 68.6918,0.19088 12.0941,0.34705 -125.7726,0.34703 -137.86663,-2e-5 -194.06897,-0.1562 -124.89404,-0.34707 z m 387.89404,0.017 c 3.85,-0.26934 10.15,-0.26934 14,0 3.85,0.26933 0.7,0.4897 -7,0.4897 -7.7,0 -10.85,-0.22037 -7,-0.4897 z m 324.0447,-0.002 c 3.8746,-0.27019 9.8746,-0.26735 13.3334,0.006 3.4587,0.27366 0.2886,0.49472 -7.0447,0.49125 -7.3334,-0.003 -10.1633,-0.22737 -6.2887,-0.49756 z m 64.622,-0.0147 c 21.8167,-0.20559 57.5167,-0.20559 79.3333,0 21.8167,0.20558 3.9667,0.37378 -39.6666,0.37378 -43.6334,0 -61.4834,-0.1682 -39.6667,-0.37378 z"
         id="path7" />
      <path
         style="fill:#0b66b0"
         d="m 684.21053,1249.3333 c 0,-1.8333 0.30263,-2.5833 0.67251,-1.6666 0.36988,0.9166 0.36988,2.4166 0,3.3333 -0.36988,0.9167 -0.67251,0.1667 -0.67251,-1.6667 z m 2.99612,-374.99997 -2.53998,-3 3,2.53999 c 2.81926,2.38695 3.60698,3.46001 2.53998,3.46001 -0.25301,0 -1.60301,-1.35 -3,-3 z M 780,838.09382 c 0,-0.36666 1.2,-1.30888 2.66667,-2.09382 1.46666,-0.78494 2.66666,-1.12716 2.66666,-0.76049 0,0.36667 -1.2,1.30889 -2.66666,2.09382 C 781.2,838.11827 780,838.46049 780,838.09382 Z m 13.71469,-21.42715 c 0.01,-3.66667 0.26895,-5.00842 0.57542,-2.98167 0.30647,2.02675 0.29828,5.02675 -0.0182,6.66667 -0.31648,1.63991 -0.56723,-0.0183 -0.55722,-3.685 z m -1.40535,-15.33334 c 0,-2.56666 0.27439,-3.61666 0.60976,-2.33333 0.33537,1.28333 0.33537,3.38333 0,4.66667 -0.33537,1.28333 -0.60976,0.23333 -0.60976,-2.33334 z m -0.20408,-7.44444 c 0.064,-1.55326 0.37992,-1.8692 0.80556,-0.80556 0.38516,0.9625 0.33779,2.1125 -0.10526,2.55556 -0.44306,0.44305 -0.75819,-0.34445 -0.7003,-1.75 z m 6.56141,-10.55556 C 800.38899,781.5 802.09817,780 802.46484,780 c 0.36666,0 -0.74251,1.5 -2.46484,3.33333 -1.72233,1.83334 -3.4315,3.33334 -3.79817,3.33334 -0.36667,0 0.74251,-1.5 2.46484,-3.33334 z m 18.31111,-11.49878 c 0.90444,-0.91122 1.98032,-1.3209 2.39084,-0.91038 0.41051,0.41052 -0.32949,1.15606 -1.64445,1.65677 -1.90026,0.72358 -2.05342,0.57043 -0.74639,-0.74639 z m 84.68889,-8.75365 c 1.28333,-0.33537 3.38333,-0.33537 4.66666,0 1.28334,0.33537 0.23334,0.60976 -2.33333,0.60976 -2.56667,0 -3.61667,-0.27439 -2.33333,-0.60976 z m 96.02982,-65.74757 c 0,-3.3 0.26002,-4.65 0.57782,-3 0.3178,1.65 0.3178,4.35 0,6 -0.3178,1.65 -0.57782,0.3 -0.57782,-3 z m 34.05351,-7.57748 c 0.9625,-0.38516 2.1125,-0.33779 2.5556,0.10526 0.443,0.44306 -0.3445,0.75819 -1.75,0.70029 -1.5533,-0.064 -1.8692,-0.37992 -0.8056,-0.80555 z M 759.66667,679.11696 c 0.91666,-0.36988 2.41666,-0.36988 3.33333,0 0.91667,0.36988 0.16667,0.67251 -1.66667,0.67251 -1.83333,0 -2.58333,-0.30263 -1.66666,-0.67251 z M 987.89909,675 l -3.23242,-3.66667 3.66666,3.23242 C 990.35,676.34358 992,677.99358 992,678.23242 c 0,1.0457 -1.07973,0.19463 -4.10091,-3.23242 z m -30.60427,-29.33333 -8.62815,-9 9,8.62815 c 4.95,4.74548 9,8.79548 9,9 0,0.98135 -1.35766,-0.26857 -9.37185,-8.62815 z M 1104,648.76049 c 0,-0.36667 1.2,-1.30889 2.6667,-2.09382 1.4666,-0.78494 2.6666,-1.12716 2.6666,-0.76049 0,0.36666 -1.2,1.30888 -2.6666,2.09382 -1.4667,0.78494 -2.6667,1.12716 -2.6667,0.76049 z m -318.06274,-6.42716 -5.27059,-5.66666 5.66666,5.27059 C 789.45,644.83609 792,647.38609 792,647.60393 c 0,1.00877 -1.16113,-6.5e-4 -6.06274,-5.2706 z m -43.16533,2.22223 c 0.064,-1.55326 0.37992,-1.8692 0.80556,-0.80556 0.38516,0.9625 0.33779,2.1125 -0.10527,2.55556 -0.44305,0.44305 -0.75818,-0.34445 -0.70029,-1.75 z m 31.72466,-14.88889 c -1.65849,-2.11474 -1.61133,-2.1619 0.50341,-0.50341 1.28333,1.00646 2.33333,2.05646 2.33333,2.33333 0,1.09738 -1.09491,0.39107 -2.83674,-1.82992 z m 162.73583,-4 L 934,622 l 3.66667,3.23242 c 2.01666,1.77783 3.66666,3.42783 3.66666,3.66667 0,1.04569 -1.07973,0.19463 -4.10091,-3.23242 z m -199.68856,-0.33334 c 0,-1.83333 0.30263,-2.58333 0.67251,-1.66666 0.36989,0.91666 0.36989,2.41666 0,3.33333 -0.36988,0.91667 -0.67251,0.16667 -0.67251,-1.66667 z M 736.30934,616 c 0,-2.56667 0.27439,-3.61667 0.60976,-2.33333 0.33537,1.28333 0.33537,3.38333 0,4.66666 -0.33537,1.28334 -0.60976,0.23334 -0.60976,-2.33333 z m 18.25641,-5 -3.23242,-3.66667 3.66667,3.23242 c 2.01667,1.77783 3.66667,3.42783 3.66667,3.66667 0,1.0457 -1.07974,0.19463 -4.10092,-3.23242 z m 164.6409,-0.66667 -2.53998,-3 3,2.53999 c 1.65,1.39699 3,2.74699 3,3 0,1.067 -1.07306,0.27927 -3.46002,-2.53999 z m 274.50805,-27 c 0.01,-3.66666 0.2689,-5.00841 0.5754,-2.98166 0.3065,2.02675 0.2983,5.02675 -0.018,6.66666 -0.3165,1.63992 -0.5672,-0.0183 -0.5572,-3.685 z m 24.6186,-6.94097 c 1.65,-0.31781 4.35,-0.31781 6,0 1.65,0.3178 0.3,0.57782 -3,0.57782 -3.3,0 -4.65,-0.26002 -3,-0.57782 z m -339.08385,-4.72569 -3.91612,-4.33334 4.33334,3.91612 c 4.03927,3.65038 4.9462,4.75055 3.91612,4.75055 -0.22947,0 -2.17947,-1.95 -4.33334,-4.33333 z m 325.98295,-2 L 1202,566 l 3.6667,3.23242 c 2.0166,1.77783 3.6666,3.42783 3.6666,3.66667 0,1.04569 -1.0797,0.19463 -4.1009,-3.23242 z m -341.40247,-16 c -1.6585,-2.11474 -1.61134,-2.1619 0.5034,-0.50341 1.28334,1.00646 2.33334,2.05646 2.33334,2.33333 0,1.09738 -1.09492,0.39107 -2.83674,-1.82992 z m -9.16326,-10.33334 c -3.23871,-3.3 -5.58856,-6 -5.22189,-6 0.36667,0 3.31651,2.7 6.55522,6 3.23871,3.3 5.58855,6 5.22189,6 -0.36667,0 -3.31652,-2.7 -6.55522,-6 z M 1280,544.80932 c 0,-0.28821 0.9312,-0.88134 2.0693,-1.31806 1.1865,-0.45533 1.7217,-0.2318 1.2546,0.52401 -0.783,1.26694 -3.3239,1.87393 -3.3239,0.79405 z M 842.49659,532.33333 c -1.65849,-2.11474 -1.61133,-2.1619 0.50341,-0.5034 2.221,1.74182 2.92731,2.83674 1.82993,2.83674 -0.27688,0 -1.32688,-1.05 -2.33334,-2.33334 z m -9.95661,-8.66666 -2.53998,-3 3,2.53998 c 1.65,1.39699 3,2.74699 3,3 0,1.067 -1.07306,0.27928 -3.46002,-2.53998 z M 1067.75,517.75585 c 0.9625,-0.38516 2.1125,-0.33779 2.5556,0.10526 0.443,0.44306 -0.3445,0.75819 -1.75,0.70029 -1.5533,-0.064 -1.8692,-0.37992 -0.8056,-0.80555 z m -15.9201,-9.42252 c -1.6585,-2.11474 -1.6113,-2.1619 0.5034,-0.5034 1.2834,1.00646 2.3334,2.05646 2.3334,2.33333 0,1.09738 -1.0949,0.39107 -2.8368,-1.82993 z m 93.3334,-14.66666 c -1.6585,-2.11474 -1.6114,-2.1619 0.5034,-0.50341 1.2833,1.00646 2.3333,2.05646 2.3333,2.33333 0,1.09738 -1.0949,0.39107 -2.8367,-1.82992 z m -347.82997,-5 c -3.2387,-3.3 -5.58855,-6 -5.22188,-6 0.36666,0 3.31651,2.7 6.55522,6 3.2387,3.3 5.58855,6 5.22188,6 -0.36666,0 -3.31651,-2.7 -6.55522,-6 z m 330.33337,-1.54971 c 0.9166,-0.36988 2.4166,-0.36988 3.3333,0 0.9167,0.36988 0.1667,0.67251 -1.6667,0.67251 -1.8333,0 -2.5833,-0.30263 -1.6666,-0.67251 z M 778.66667,473.33333 c -1.20173,-0.77661 -1.36618,-1.30065 -0.41203,-1.31291 0.87339,-0.0112 1.9588,0.57958 2.41203,1.31291 1.02307,1.65537 0.56149,1.65537 -2,0 z m 611.02983,-4 c 0,-3.3 0.26,-4.65 0.5778,-3 0.3178,1.65 0.3178,4.35 0,6 -0.3178,1.65 -0.5778,0.3 -0.5778,-3 z m -629.36317,-0.9191 c 1.28334,-0.33537 3.38334,-0.33537 4.66667,0 1.28333,0.33537 0.23333,0.60977 -2.33333,0.60977 -2.56667,0 -3.61667,-0.2744 -2.33334,-0.60977 z M 866,402.66667 C 867.32732,401.2 868.7133,400 869.07997,400 c 0.36666,0 -0.41932,1.2 -1.74664,2.66667 -1.32731,1.46666 -2.7133,2.66666 -3.07996,2.66666 -0.36667,0 0.41931,-1.2 1.74663,-2.66666 z m 393.75,0.42251 c 0.9625,-0.38516 2.1125,-0.33779 2.5556,0.10526 0.443,0.44306 -0.3445,0.75819 -1.75,0.7003 -1.5533,-0.064 -1.8692,-0.37992 -0.8056,-0.80556 z m 6.6667,0 c 0.9625,-0.38516 2.1125,-0.33779 2.5555,0.10526 0.4431,0.44306 -0.3444,0.75819 -1.75,0.7003 -1.5532,-0.064 -1.8692,-0.37992 -0.8055,-0.80556 z M 1249.8733,397 l -2.54,-3 3,2.53998 c 2.8193,2.38696 3.607,3.46002 2.54,3.46002 -0.253,0 -1.603,-1.35 -3,-3 z m -364.53997,-5.52401 c 0,-0.28821 0.93117,-0.88134 2.06925,-1.31807 1.18657,-0.45532 1.72177,-0.23179 1.25465,0.52402 -0.78301,1.26694 -3.3239,1.87393 -3.3239,0.79405 z m 9.33334,-4.04883 c 0,-0.36667 1.2,-1.30889 2.66666,-2.09383 C 898.8,384.5484 900,384.20618 900,384.57284 c 0,0.36667 -1.2,1.30889 -2.66667,2.09383 -1.46666,0.78493 -2.66666,1.12715 -2.66666,0.76049 z m 434.41663,-13.67131 c 0.9625,-0.38516 2.1125,-0.33779 2.5556,0.10526 0.443,0.44306 -0.3445,0.75819 -1.75,0.70029 -1.5533,-0.064 -1.8692,-0.37992 -0.8056,-0.80555 z m -361.83385,-10.08918 -3.91612,-4.33334 4.33334,3.91612 C 970.05,365.40332 972,367.35332 972,367.58279 c 0,1.03008 -1.10017,0.12315 -4.75055,-3.91612 z m -17.58278,-7.25244 c 1.28333,-0.33537 3.38333,-0.33537 4.66666,0 1.28334,0.33537 0.23334,0.60977 -2.33333,0.60977 -2.56667,0 -3.61667,-0.2744 -2.33333,-0.60977 z M 1060,290.16326 c 0,-0.27687 1.05,-1.32687 2.3333,-2.33333 2.1148,-1.6585 2.1619,-1.61134 0.5034,0.5034 -1.7418,2.221 -2.8367,2.92731 -2.8367,1.82993 z M 684.10526,225.88889 c 0.064,-1.55326 0.37992,-1.8692 0.80556,-0.80556 0.38516,0.9625 0.33779,2.1125 -0.10526,2.55556 -0.44306,0.44305 -0.75819,-0.34445 -0.7003,-1.75 z M 1820.54,179.66667 l -2.54,-3 3,2.53998 c 2.8193,2.38696 3.607,3.46002 2.54,3.46002 -0.253,0 -1.603,-1.35 -3,-3 z m -565.5146,-21.92399 c 1.2973,-0.33806 3.0973,-0.31583 4,0.0494 0.9027,0.36524 -0.1587,0.64183 -2.3587,0.61466 -2.2,-0.0272 -2.9386,-0.326 -1.6413,-0.66406 z m 356,0 c 1.2973,-0.33806 3.0973,-0.31583 4,0.0494 0.9027,0.36524 -0.1587,0.64183 -2.3587,0.61466 -2.2,-0.0272 -2.9386,-0.326 -1.6413,-0.66406 z"
         id="path6" />
      <path
         style="fill:#01cf32"
         d="m 1014,1384.0823 c -12.4667,-1.2124 -23.56667,-2.5801 -24.66667,-3.0394 -1.1,-0.4593 -4.22465,-1.2043 -6.94368,-1.6555 -2.71902,-0.4513 -6.61902,-1.6943 -8.66666,-2.7624 -2.04765,-1.068 -4.49107,-1.9456 -5.42983,-1.9501 -7.16256,-0.034 -56.30631,-25.0549 -60.29316,-30.6969 -0.36667,-0.5189 -5.46667,-4.1365 -11.33333,-8.0392 -5.86667,-3.9026 -10.96667,-7.4354 -11.33334,-7.8506 -0.36666,-0.4152 -3.21839,-3.0049 -6.33717,-5.7549 -3.11878,-2.75 -5.32079,-5 -4.89335,-5 0.42743,0 -2.32252,-3.45 -6.111,-7.6666 -10.89855,-12.1304 -26.33341,-36.2653 -31.47196,-49.2116 -2.57345,-6.4836 -7.99757,-18.6829 -12.05361,-27.1094 -19.89446,-41.3311 -25.75954,-74.6374 -19.04312,-108.1409 1.51606,-7.5625 2.97042,-14.0962 3.23192,-14.5193 0.2615,-0.4231 2.31877,-9.1505 4.57171,-19.3941 6.72637,-30.5833 13.3829,-44.7808 30.98784,-66.0928 12.70749,-15.3834 38.38293,-41.30997 50.45208,-50.94565 15.12641,-12.07651 46.07323,-32.32928 70.66666,-46.24693 12.1,-6.8475 30.1,-17.24763 39.99997,-23.1114 51.4258,-30.45946 66.4133,-34.93323 84.4033,-25.1944 8.6226,4.66783 15.7366,14.76236 31.2853,44.39294 3.6826,7.01791 11.2842,19.7973 16.8923,28.39866 15.0671,23.10871 16.0858,25.37118 16.0858,35.72666 0,7.74257 -0.5207,9.62594 -4.0488,14.64592 -4.9032,6.9764 -17.4386,14.9732 -44.9691,28.6873 -10.912,5.4358 -24.747,12.9647 -30.7444,16.7309 -5.9974,3.7662 -19.0044,11.0114 -28.9044,16.1004 -22.5419,11.5875 -30.4779,17.6221 -37.858,28.7877 -12.82319,19.4007 -19.50262,36.5305 -19.45559,49.8949 0.0554,15.7379 10.51217,40.5896 21.98029,52.2386 12.2969,12.4908 35.9326,22.1864 54,22.1514 22.9562,-0.044 51.9602,-16.6964 51.9912,-29.8495 0.01,-4.1916 -5.2294,-10.2728 -8.8504,-10.2728 -1.2726,0 -6.4378,2.4917 -11.4781,5.5372 -10.2614,6.2 -19.4571,7.9761 -26.4023,5.0993 -3.322,-1.376 -5.4594,-4.3925 -11.2203,-15.8348 -3.9141,-7.7743 -10.7513,-20.0742 -15.1937,-27.3331 -9.3419,-15.2647 -11.9115,-23.8947 -9.6337,-32.354 2.0994,-7.7963 8.4276,-12.7979 28.0514,-22.1702 9.186,-4.3873 19.089,-9.4838 22.0065,-11.3256 2.9175,-1.8418 11.9252,-6.7617 20.017,-10.9332 8.0918,-4.1715 23.9181,-13.36 35.1696,-20.4189 28.79,-18.0622 36.7654,-20.5441 51.9051,-16.1525 3.6451,1.0574 3.7068,1.2598 -6.2767,-20.5936 -5.8689,-12.84654 -7.1571,-17.24094 -9.3442,-31.87728 -6.9721,-46.65728 -6.9828,-69.72221 -0.042,-90.97662 2.2749,-6.96667 6.2277,-19.78946 8.784,-28.4951 5.036,-17.15057 13.6941,-36.92158 20.5016,-46.81605 8.0673,-11.72544 32.9505,-40.09521 45.4834,-51.85643 14.5594,-13.66303 39.6256,-30.75711 61.3142,-41.81375 19.6222,-10.00322 43.7243,-20.79911 53.8844,-24.13602 17.4881,-5.74373 69.042,-11.45303 104,-11.5174 l 17.3333,-0.0319 22.6667,7.83853 c 21.5434,7.45011 46.1537,19.074 67.0425,31.6654 13.3876,8.06985 41.6157,35.57978 53.0684,51.71829 9.3292,13.14612 12.6518,19.11866 23.7985,42.77778 2.5912,5.5 7.099,14.5 10.0174,20 7.8597,14.81274 10.5999,24.08281 12.8091,43.33334 1.094,9.53333 3.176,22.23964 4.6266,28.23624 1.9787,8.17947 2.635,15.50667 2.6274,29.33334 -0.015,28.03206 -2.652,40.47008 -12.9528,61.10143 -2.9279,5.8643 -6.9874,14.8623 -9.0211,19.9956 -4.9384,12.4649 -10.919,21.5502 -23.2103,35.2588 -5.6279,6.277 -12.7283,14.7909 -15.7785,18.9198 -6.4868,8.7809 -27.4631,28.1798 -42.4919,39.2965 -13.1893,9.7561 -29.807,19.759 -49.7463,29.9442 -8.5006,4.3422 -21.4557,11.1889 -28.789,15.2149 -18.4107,10.1074 -32.7439,15.0422 -50.4814,17.3802 -8.1686,1.0767 -16.948,2.564 -19.5098,3.305 -6.7522,1.9531 -26.8266,1.6544 -49.7674,-0.7404 -19.723,-2.0589 -40.3557,-7.1145 -55.5748,-13.6173 -3.3,-1.41 -12.2844,-4.5125 -19.9654,-6.8943 -18.4778,-5.7299 -27.4383,-10.4216 -37.2464,-19.5022 -4.4668,-4.1355 -8.1215,-7.1606 -8.1215,-6.7224 0,0.4381 2.5933,4.8528 5.7629,9.8103 3.1696,4.9575 10.6946,17.8563 16.7222,28.664 6.0276,10.8077 13.5915,24.1026 16.8087,29.5442 12.663,21.4186 16.6279,34.8219 13.9689,47.2207 -2.7764,12.9457 -10.4032,20.221 -32.793,31.2815 -15.1216,7.4701 -28.4316,15.1715 -43.1364,24.9595 -6.2333,4.1491 -13.8833,8.9593 -17,10.6893 -3.1166,1.73 -5.6666,3.5622 -5.6666,4.0715 0,0.5093 -1.95,1.7148 -4.3334,2.6788 -2.3833,0.964 -4.6333,2.0868 -5,2.4951 -0.3666,0.4083 -3.6322,2.237 -7.2568,4.0639 -6.8852,3.4702 -18.2623,10.5934 -19.4098,12.1524 -0.3667,0.4981 -4.5667,2.8702 -9.3334,5.2712 -4.7666,2.4011 -8.9666,4.773 -9.3333,5.271 -1.2689,1.7235 -36.0398,19.1058 -41.3333,20.663 -1.8334,0.5393 -3.9334,1.414 -4.6667,1.9438 -0.7333,0.5298 -4.3333,1.7494 -8,2.7104 -3.6667,0.9609 -7.2667,2.1847 -8,2.7196 -0.7333,0.5348 -3.4333,1.411 -6,1.947 -2.5667,0.5361 -5.2727,1.4593 -6.0135,2.0518 -2.2902,1.8317 -29.1282,5.2919 -39.491,5.0915 -5.4058,-0.1046 -20.0288,-1.182 -32.4955,-2.3943 z m 430.1328,-384.31874 c 13.1537,-6.54484 32.8784,-20.43194 39.7455,-27.98258 5.5694,-6.12387 9.3213,-14.46888 11.5337,-25.65363 1.0293,-5.20338 2.8437,-12.16068 4.0321,-15.46068 4.1339,-11.47939 0.1632,-32.19942 -8.3365,-43.50146 -7.1067,-9.44967 -23.7601,-23.96931 -32.2637,-28.12971 -10.7177,-5.2437 -26.1014,-5.63642 -47.8284,-1.22095 -23.9356,4.86433 -37.3758,12.65832 -45.2347,26.23167 -2.3205,4.00791 -7.2926,11.61676 -11.0491,16.90856 -10.6529,15.0069 -11.1352,16.77405 -10.4843,38.4212 0.5296,17.61389 0.8088,19.23561 4.769,27.69844 6.2102,13.27087 15.7339,22.15297 31.9028,29.75351 18.2222,8.56577 23.0207,9.76217 37.8803,9.44517 12.324,-0.263 13.2651,-0.5048 25.3333,-6.50954 z m 328.3152,-23.82055 c -13.3582,-2.64215 -22.0951,-11.7045 -37.2232,-38.60968 -6.3912,-11.36666 -17.221,-29.45823 -24.0663,-40.20348 -16.3456,-25.65838 -29.3522,-49.35427 -32.0902,-58.46318 -3.2235,-10.72375 -2.8754,-23.22537 0.8637,-31.02069 3.4234,-7.13704 7.1155,-10.18913 18.3344,-15.15617 25.4734,-11.27807 54.043,-26.5055 71.0884,-37.88981 10.6452,-7.10968 24.9099,-15.71661 31.6995,-19.12652 6.7895,-3.4099 17.2798,-9.87984 23.3118,-14.37764 6.032,-4.49779 12.6172,-8.81591 14.6339,-9.59581 2.0167,-0.7799 3.6667,-1.88645 3.6667,-2.45901 0,-2.29279 10.5857,-0.83932 17.2293,2.36566 6.3242,3.05091 20.104,15.41566 20.104,18.03954 0,0.56648 0.75,1.82283 1.6667,2.79188 0.9166,0.96904 2.7101,3.8619 3.9855,6.42857 1.2754,2.56666 5.0128,9.46666 8.3053,15.33333 3.2925,5.86667 6.749,12.16909 7.6811,14.00538 0.9321,1.83629 8.293,13.23629 16.3574,25.33333 12.3431,18.51508 17.2603,26.593 18.6641,30.66129 0.1265,0.36667 0.9297,2.35573 1.785,4.42013 0.8552,2.06441 1.5549,4.31441 1.5549,5 0,0.6856 0.6,1.24654 1.3333,1.24654 0.7334,0 1.3334,0.82672 1.3334,1.83716 0,1.01045 1.0135,4.16045 2.2523,7 1.2388,2.83956 2.3406,5.46284 2.4485,5.8295 0.1079,0.36667 0.6511,1.69747 1.2073,2.95733 0.5561,1.25986 0.8012,8.15986 0.5447,15.33333 -0.4528,12.6621 -0.6129,13.24287 -5.4848,19.90363 -6.9749,9.53586 -11.0564,12.41233 -37.3211,26.30225 -6.4276,3.39916 -16.0276,9.37188 -21.3334,13.27271 -5.3058,3.90083 -11.4469,8.08523 -13.6469,9.29865 -5.7192,3.15447 -21.8433,10.26544 -23.2768,10.26544 -0.6656,0 -1.601,1.23159 -2.0788,2.73686 -0.6496,2.04688 -1.3,2.37888 -2.5796,1.31689 -1.2335,-1.02371 -2.1303,-0.91474 -3.2135,0.39051 -0.8264,0.99577 -4.056,2.92351 -7.1769,4.28387 -3.1209,1.36037 -7.9383,4.21451 -10.7053,6.34254 -6.5437,5.0325 -24.0449,12.37686 -33.7833,14.1771 -8.5036,1.57197 -8.2701,1.57155 -16.0711,0.0286 z M 1645.8502,758.14845 c -17.6229,-8.34472 -23.7362,-15.75044 -55.1546,-66.81512 -25.1868,-40.9363 -37.0875,-59.34893 -48.8216,-75.53638 -24.9515,-34.42111 -51.6065,-73.1049 -62.0511,-90.05314 -6.4138,-10.40757 -17.8478,-28.23128 -25.4088,-39.60826 -7.5611,-11.37697 -17.3474,-26.52463 -21.7474,-33.66147 -15.5833,-25.27625 -44.4417,-68.15744 -56.8923,-84.53728 -39.8774,-52.46212 -70.0431,-103.9992 -80.8869,-138.1923 -7.5878,-23.92612 -10.1715,-49.21389 -6.1832,-60.51784 1.1207,-3.17641 2.0774,-7.30185 2.1261,-9.16764 0.2299,-8.82057 2.8713,-14.72437 9.0057,-20.12884 3.3902,-2.98669 6.7846,-5.84281 7.5433,-6.34693 4.748,-3.15496 51.9251,-25.58325 53.8134,-25.58325 0.8106,0 1.4739,-0.6 1.4739,-1.33333 0,-0.73334 0.6786,-1.33334 1.508,-1.33334 1.7837,0 34.401,-18.462623 36.8332,-20.848979 0.921,-0.903647 2.871,-2.022732 4.3333,-2.486856 C 1406.8036,81.533371 1408,80.634498 1408,80 c 0,-0.634498 1.1964,-1.533371 2.6588,-1.997495 1.4623,-0.464124 3.4123,-1.569057 4.3333,-2.455408 0.921,-0.88635 4.6746,-3.531266 8.3412,-5.877592 3.6667,-2.346326 7.2709,-4.769272 8.0093,-5.384325 0.7385,-0.615053 4.9385,-2.880832 9.3334,-5.035063 7.3726,-3.613812 9.1252,-3.916243 22.6573,-3.909794 13.3331,0.0064 15.3941,0.350979 22.6667,3.790219 6.6515,3.145519 19.3879,11.056109 25.2499,15.682732 16.9386,13.368911 30.949,26.862946 39.302,37.853396 2.2294,2.93333 4.9673,6.28366 6.0841,7.44518 1.1169,1.16152 2.0307,2.49398 2.0307,2.96102 0,1.21008 8.4659,13.50458 9.6666,14.03824 0.55,0.24445 1,1.03634 1,1.75977 0,0.72342 1.9428,4.12342 4.3172,7.55555 2.3745,3.43213 4.3995,6.69024 4.5,7.24024 0.1006,0.55 0.3328,1.3 0.5162,1.66666 0.1833,0.36667 0.4126,1.11667 0.5096,1.66667 0.097,0.55 5.2169,9.95614 11.3776,20.90254 19.58,34.79007 40.914,80.69167 55.1987,118.76413 19.6604,52.39974 29.543,72.68992 65.5914,134.66666 32.0406,55.08613 40.2785,69.93499 68.4235,123.33334 10.2428,19.43333 22.7354,42.7344 27.7613,51.78016 5.0258,9.04575 9.906,18.94575 10.8449,22 2.6252,8.54012 3.6758,34.00989 1.6553,40.13198 -3.3483,10.14555 -17.8774,21.93329 -35.3623,28.69021 -13.453,5.19881 -47.5144,22.70209 -56.2941,28.92808 -4.5618,3.2349 -13.3166,7.98407 -19.4551,10.5537 -6.7228,2.81425 -14.2937,7.29671 -19.0392,11.27257 -14.2036,11.8999 -17.7495,13.80042 -26.545,14.22725 -6.791,0.32956 -9.4331,-0.29038 -17.4831,-4.10217 z"
         id="path5" />
      <path
         style="fill:#0ca02d"
         d="m 871.82993,1315 c -1.6585,-2.1147 -1.61134,-2.1619 0.5034,-0.5034 1.28334,1.0065 2.33334,2.0565 2.33334,2.3333 0,1.0974 -1.09492,0.3911 -2.83674,-1.8299 z m 441.60867,-70.4444 c 0.064,-1.5533 0.3799,-1.8692 0.8056,-0.8056 0.3851,0.9625 0.3377,2.1125 -0.1053,2.5556 -0.4431,0.443 -0.7582,-0.3445 -0.7003,-1.75 z m 0.1053,-11.2223 c 0,-1.8333 0.3026,-2.5833 0.6725,-1.6666 0.3699,0.9166 0.3699,2.4166 0,3.3333 -0.3699,0.9167 -0.6725,0.1667 -0.6725,-1.6667 z m -260.4606,-16.9108 c 0.9625,-0.3851 2.1125,-0.3378 2.5556,0.1053 0.443,0.443 -0.3445,0.7582 -1.75,0.7003 -1.5533,-0.064 -1.8692,-0.38 -0.8056,-0.8056 z m 20,0 c 0.9625,-0.3851 2.1125,-0.3378 2.5556,0.1053 0.443,0.443 -0.3445,0.7582 -1.75,0.7003 -1.5533,-0.064 -1.8692,-0.38 -0.8056,-0.8056 z m -61.2534,-18.7558 c -1.6585,-2.1148 -1.6113,-2.1619 0.5034,-0.5034 1.2834,1.0064 2.3334,2.0564 2.3334,2.3333 0,1.0974 -1.0949,0.3911 -2.8368,-1.8299 z M 1075,1189.7476 c 1.2833,-0.3354 3.3833,-0.3354 4.6667,0 1.2833,0.3353 0.2333,0.6097 -2.3334,0.6097 -2.5666,0 -3.6166,-0.2744 -2.3333,-0.6097 z m 332.6667,-9.3788 c 2.3833,-0.2958 6.2833,-0.2958 8.6666,0 2.3834,0.2958 0.4334,0.5378 -4.3333,0.5378 -4.7667,0 -6.7167,-0.242 -4.3333,-0.5378 z M 1105,1177.7836 c 0.9167,-0.3699 2.4167,-0.3699 3.3333,0 0.9167,0.3699 0.1667,0.6725 -1.6666,0.6725 -1.8334,0 -2.5834,-0.3026 -1.6667,-0.6725 z m 270.6822,-0.06 c 1.6586,-0.319 4.0586,-0.3069 5.3333,0.027 1.2748,0.3337 -0.082,0.5946 -3.0155,0.5798 -2.9333,-0.015 -3.9763,-0.2878 -2.3178,-0.6067 z m 58.7345,0.032 c 0.9625,-0.3851 2.1125,-0.3377 2.5555,0.1053 0.4431,0.4431 -0.3444,0.7582 -1.75,0.7003 -1.5532,-0.064 -1.8692,-0.3799 -0.8055,-0.8056 z m -632.77403,-24.4225 c 0,-2.5666 0.27439,-3.6166 0.60976,-2.3333 0.33537,1.2833 0.33537,3.3833 0,4.6667 -0.33537,1.2833 -0.60976,0.2333 -0.60976,-2.3334 z m 2.46259,-26.1111 c 0.064,-1.5532 0.37992,-1.8692 0.80556,-0.8055 0.38516,0.9625 0.33779,2.1125 -0.10526,2.5555 -0.44306,0.4431 -0.75819,-0.3444 -0.7003,-1.75 z m 228.00004,-2.6666 c 0.064,-1.5533 0.3799,-1.8692 0.8055,-0.8056 0.3852,0.9625 0.3378,2.1125 -0.1052,2.5556 -0.4431,0.443 -0.7582,-0.3445 -0.7003,-1.75 z M 1599.3333,1096 c 1.3273,-1.4667 2.7133,-2.6667 3.08,-2.6667 0.3667,0 -0.4193,1.2 -1.7466,2.6667 -1.3273,1.4667 -2.7133,2.6667 -3.08,2.6667 -0.3667,0 0.4193,-1.2 1.7466,-2.6667 z M 1014,1084 c 1.3273,-1.4667 2.7133,-2.6667 3.08,-2.6667 0.3666,0 -0.4194,1.2 -1.7467,2.6667 -1.3273,1.4667 -2.7133,2.6667 -3.0799,2.6667 -0.3667,0 0.4193,-1.2 1.7466,-2.6667 z m 598,0.8299 c 0,-0.2768 1.05,-1.3268 2.3333,-2.3333 2.1148,-1.6585 2.1619,-1.6113 0.5034,0.5034 -1.7418,2.221 -2.8367,2.9273 -2.8367,1.8299 z M 1639.3333,1052 c 1.3273,-1.4667 2.7133,-2.6667 3.08,-2.6667 0.3667,0 -0.4193,1.2 -1.7466,2.6667 -1.3273,1.4667 -2.7133,2.6667 -3.08,2.6667 -0.3667,0 0.4193,-1.2 1.7466,-2.6667 z M 864.66667,1001.3333 C 867.53099,998.4 870.17453,996 870.54119,996 c 0.36667,0 -1.67687,2.4 -4.54119,5.3333 -2.86432,2.9334 -5.50786,5.3334 -5.87453,5.3334 -0.36666,0 1.67687,-2.4 4.5412,-5.3334 z m 542.35873,4.4094 c 1.2973,-0.3381 3.0973,-0.3158 4,0.049 0.9027,0.3652 -0.1587,0.6418 -2.3587,0.6146 -2.2,-0.027 -2.9386,-0.326 -1.6413,-0.664 z m 17.9746,0.041 c 0.9167,-0.3699 2.4167,-0.3699 3.3333,0 0.9167,0.3699 0.1667,0.6725 -1.6666,0.6725 -1.8334,0 -2.5834,-0.3026 -1.6667,-0.6725 z M 878.66667,987.33333 c 2.48771,-2.56666 4.82311,-4.66666 5.18977,-4.66666 0.36667,0 -1.36873,2.1 -3.85644,4.66666 C 877.51229,989.9 875.17689,992 874.81022,992 c -0.36666,0 1.36874,-2.1 3.85645,-4.66667 z M 1154.976,988 c 0,-2.56667 0.2744,-3.61667 0.6098,-2.33333 0.3353,1.28333 0.3353,3.38333 0,4.66666 -0.3354,1.28334 -0.6098,0.23334 -0.6098,-2.33333 z m 18.4626,-12.77778 c 0.064,-1.55326 0.3799,-1.8692 0.8056,-0.80555 0.3851,0.9625 0.3377,2.1125 -0.1053,2.55555 -0.4431,0.44306 -0.7582,-0.34444 -0.7003,-1.75 z m 600.9781,1.20029 c 0.9625,-0.38516 2.1125,-0.33779 2.5555,0.10527 0.4431,0.44305 -0.3444,0.75818 -1.75,0.70029 -1.5532,-0.064 -1.8692,-0.37992 -0.8055,-0.80556 z m 10.6666,0 c 0.9625,-0.38516 2.1125,-0.33779 2.5556,0.10527 0.443,0.44305 -0.3445,0.75818 -1.75,0.70029 -1.5533,-0.064 -1.8692,-0.37992 -0.8056,-0.80556 z m -33.1842,-12.08918 -3.2324,-3.66666 3.6666,3.23242 c 2.0167,1.77783 3.6667,3.42783 3.6667,3.66666 0,1.0457 -1.0797,0.19464 -4.1009,-3.23242 z m -406.4605,-6.44444 c 0.064,-1.55326 0.3799,-1.8692 0.8056,-0.80556 0.3851,0.9625 0.3377,2.1125 -0.1053,2.55556 -0.4431,0.44305 -0.7582,-0.34445 -0.7003,-1.75 z m 148,-6.66667 c 0.064,-1.55326 0.3799,-1.8692 0.8056,-0.80555 0.3851,0.9625 0.3377,2.1125 -0.1053,2.55555 -0.4431,0.44306 -0.7582,-0.34444 -0.7003,-1.75 z m 189.7461,-14.55555 c 0,-9.53334 0.2147,-13.25838 0.472,-8.27789 0.2572,4.9805 0.2553,12.7805 0,17.33334 -0.2595,4.55283 -0.47,0.47788 -0.4677,-9.05545 z m -338.9248,12 c 0.027,-2.2 0.326,-2.93858 0.6641,-1.64129 0.338,1.29729 0.3158,3.09729 -0.049,4 -0.3652,0.90271 -0.6418,-0.15871 -0.6147,-2.35871 z m -174.8213,-6.77778 c 0.064,-1.55326 0.3799,-1.8692 0.8056,-0.80556 0.3851,0.9625 0.3377,2.1125 -0.1053,2.55556 -0.4431,0.44305 -0.7582,-0.34445 -0.7003,-1.75 z m -1.3333,-9.33333 c 0.064,-1.55326 0.3799,-1.8692 0.8055,-0.80556 0.3852,0.9625 0.3378,2.1125 -0.1052,2.55556 -0.4431,0.44305 -0.7582,-0.34445 -0.7003,-1.75 z M 1500.3996,920 c 0,-4.03333 0.2499,-5.68333 0.5554,-3.66667 0.3055,2.01667 0.3055,5.31667 0,7.33334 -0.3055,2.01666 -0.5554,0.36666 -0.5554,-3.66667 z m -330.8063,-14 c 0.027,-2.2 0.326,-2.93858 0.664,-1.64129 0.3381,1.29729 0.3158,3.09729 -0.049,4 -0.3652,0.90271 -0.6418,-0.15871 -0.6146,-2.35871 z m 507.8453,-6.77778 c 0.064,-1.55326 0.3799,-1.8692 0.8056,-0.80555 0.3851,0.9625 0.3377,2.1125 -0.1053,2.55555 -0.4431,0.44306 -0.7582,-0.34444 -0.7003,-1.75 z m -1.1787,-10.55555 c 0.027,-2.2 0.326,-2.93858 0.6641,-1.64129 0.338,1.29729 0.3158,3.09729 -0.049,4 -0.3652,0.90271 -0.6418,-0.15871 -0.6147,-2.35871 z m -1.488,-12.11111 c 0.064,-1.55326 0.38,-1.8692 0.8056,-0.80556 0.3851,0.9625 0.3378,2.1125 -0.1053,2.55556 -0.443,0.44305 -0.7582,-0.34445 -0.7003,-1.75 z m -609.6886,-1.46638 c 0.9625,-0.38516 2.1125,-0.33779 2.5556,0.10526 0.443,0.44306 -0.3445,0.75819 -1.75,0.7003 -1.5533,-0.064 -1.8692,-0.37992 -0.8056,-0.80556 z m 13.3334,0 c 0.9625,-0.38516 2.1125,-0.33779 2.5555,0.10526 0.4431,0.44306 -0.3444,0.75819 -1.75,0.7003 -1.5532,-0.064 -1.8692,-0.37992 -0.8055,-0.80556 z M 1372,875.49659 c 0,-0.27687 1.05,-1.32687 2.3333,-2.33333 2.1148,-1.65849 2.1619,-1.61133 0.5034,0.50341 -1.7418,2.22099 -2.8367,2.9273 -2.8367,1.82992 z m 39.6667,-17.71296 c 0.9166,-0.36989 2.4166,-0.36989 3.3333,0 0.9167,0.36988 0.1667,0.67251 -1.6667,0.67251 -1.8333,0 -2.5833,-0.30263 -1.6666,-0.67251 z M 1242,766.66667 C 1245.6115,763 1248.8664,760 1249.2331,760 c 0.3667,0 -2.2882,3 -5.8998,6.66667 -3.6115,3.66666 -6.8664,6.66666 -7.2331,6.66666 -0.3666,0 2.2883,-3 5.8998,-6.66666 z m 418.3587,-3.59066 c 1.2973,-0.33806 3.0973,-0.31582 4,0.0494 0.9027,0.36523 -0.1587,0.64182 -2.3587,0.61465 -2.2,-0.0272 -2.9386,-0.326 -1.6413,-0.66406 z m -33.8621,-17.40934 c -1.6585,-2.11474 -1.6113,-2.1619 0.5034,-0.50341 1.2833,1.00646 2.3333,2.05646 2.3333,2.33333 0,1.09738 -1.0949,0.39107 -2.8367,-1.82992 z m -33.9138,-10 -3.9161,-4.33334 4.3333,3.91612 c 4.0393,3.65038 4.9462,4.75055 3.9161,4.75055 -0.2294,0 -2.1794,-1.95 -4.3333,-4.33333 z m -207.4995,-45.91082 c 0.9625,-0.38516 2.1125,-0.33779 2.5556,0.10526 0.443,0.44306 -0.3445,0.75819 -1.75,0.70029 -1.5533,-0.064 -1.8692,-0.37992 -0.8056,-0.80555 z m 27.2754,-4.01317 c 1.2973,-0.33806 3.0973,-0.31583 4,0.0494 0.9027,0.36524 -0.1587,0.64183 -2.3587,0.61466 -2.2,-0.0272 -2.9386,-0.326 -1.6413,-0.66406 z m 25.9746,-1.29239 c 0.9167,-0.36988 2.4167,-0.36988 3.3334,0 0.9166,0.36989 0.1666,0.67252 -1.6667,0.67252 -1.8333,0 -2.5833,-0.30263 -1.6667,-0.67252 z M 1820.2105,640 c 0,-1.83333 0.3027,-2.58333 0.6725,-1.66667 0.3699,0.91667 0.3699,2.41667 0,3.33334 -0.3698,0.91666 -0.6725,0.16666 -0.6725,-1.66667 z m -1.4386,-10.11111 c 0.064,-1.55326 0.38,-1.8692 0.8056,-0.80556 0.3851,0.9625 0.3378,2.1125 -0.1053,2.55556 -0.443,0.44305 -0.7582,-0.34445 -0.7003,-1.75 z m -530.6666,-424 c 0.064,-1.55326 0.3799,-1.8692 0.8055,-0.80556 0.3852,0.9625 0.3378,2.1125 -0.1052,2.55556 -0.4431,0.44305 -0.7582,-0.34445 -0.7003,-1.75 z m -1.2281,-8.55556 c 0,-1.83333 0.3026,-2.58333 0.6725,-1.66666 0.3699,0.91666 0.3699,2.41666 0,3.33333 -0.3699,0.91667 -0.6725,0.16667 -0.6725,-1.66667 z m -1.1807,-14.66666 c 0,-3.3 0.26,-4.65 0.5778,-3 0.3178,1.65 0.3178,4.35 0,6 -0.3178,1.65 -0.5778,0.3 -0.5778,-3 z"
         id="path4" />
      <path
         style="fill:#175f26"
         d="m 750.33333,1316.4503 c 0.91667,-0.3699 2.41667,-0.3699 3.33334,0 0.91666,0.3699 0.16666,0.6725 -1.66667,0.6725 -1.83333,0 -2.58333,-0.3026 -1.66667,-0.6725 z m 1022.02537,-0.041 c 1.2973,-0.338 3.0973,-0.3158 4,0.05 0.9027,0.3652 -0.1587,0.6418 -2.3587,0.6146 -2.2,-0.027 -2.9386,-0.326 -1.6413,-0.6641 z m -1029.94203,-1.3201 c 0.9625,-0.3852 2.1125,-0.3378 2.55555,0.1052 0.44306,0.4431 -0.34444,0.7582 -1.75,0.7003 -1.55326,-0.064 -1.8692,-0.3799 -0.80555,-0.8055 z m 1040.00003,0 c 0.9625,-0.3852 2.1125,-0.3378 2.5555,0.1052 0.4431,0.4431 -0.3444,0.7582 -1.75,0.7003 -1.5532,-0.064 -1.8692,-0.3799 -0.8055,-0.8055 z m -1057.74059,-5.7406 c -0.46712,-0.7558 0.0681,-0.9793 1.25464,-0.524 2.30989,0.8864 2.73252,1.8421 0.81461,1.8421 -0.69006,0 -1.62122,-0.5932 -2.06925,-1.3181 z m 1089.99059,-8.5187 c 0,-0.2768 1.05,-1.3268 2.3333,-2.3333 2.1147,-1.6585 2.1619,-1.6113 0.5034,0.5034 -1.7418,2.221 -2.8367,2.9273 -2.8367,1.8299 z M 705.26156,1295 l -4.59489,-5 5,4.5949 c 2.75,2.5272 5,4.7772 5,5 0,1.0181 -1.12829,0.059 -5.40511,-4.5949 z m 1117.40514,-2.1701 c 0,-0.2768 1.05,-1.3268 2.3333,-2.3333 2.1147,-1.6585 2.1619,-1.6113 0.5034,0.5034 -1.7418,2.221 -2.8367,2.9273 -2.8367,1.8299 z m -518,-30.1632 c 1.3273,-1.4667 2.7133,-2.6667 3.0799,-2.6667 0.3667,0 -0.4193,1.2 -1.7466,2.6667 -1.3273,1.4666 -2.7133,2.6666 -3.08,2.6666 -0.3666,0 0.4194,-1.2 1.7467,-2.6666 z m 537.3106,-160 c 0,-82.5 0.1601,-116.25003 0.3558,-75 0.1957,41.25 0.1957,108.75 0,150 -0.1957,41.25 -0.3558,7.5 -0.3558,-75 z M 684.64837,1060 c 0,-103.03333 0.15817,-145.18333 0.35148,-93.66667 0.19332,51.51667 0.19332,135.81667 0,187.33337 -0.19331,51.5166 -0.35148,9.3666 -0.35148,-93.6667 z m 430.32763,128 c 0,-2.5667 0.2744,-3.6167 0.6098,-2.3333 0.3353,1.2833 0.3353,3.3833 0,4.6666 -0.3354,1.2834 -0.6098,0.2334 -0.6098,-2.3333 z m 286.1073,-7.5775 c 0.9625,-0.3851 2.1125,-0.3378 2.5556,0.1053 0.443,0.443 -0.3445,0.7582 -1.75,0.7003 -1.5533,-0.064 -1.8692,-0.38 -0.8056,-0.8056 z m 20,0 c 0.9625,-0.3851 2.1125,-0.3378 2.5556,0.1053 0.443,0.443 -0.3445,0.7582 -1.75,0.7003 -1.5533,-0.064 -1.8692,-0.38 -0.8056,-0.8056 z M 1389,1179.117 c 0.9167,-0.3699 2.4167,-0.3699 3.3333,0 0.9167,0.3698 0.1667,0.6725 -1.6666,0.6725 -1.8334,0 -2.5834,-0.3027 -1.6667,-0.6725 z m -26.6667,-2.6667 c 0.9167,-0.3699 2.4167,-0.3699 3.3334,0 0.9166,0.3699 0.1666,0.6725 -1.6667,0.6725 -1.8333,0 -2.5833,-0.3026 -1.6667,-0.6725 z m 80,0 c 0.9167,-0.3699 2.4167,-0.3699 3.3334,0 0.9166,0.3699 0.1666,0.6725 -1.6667,0.6725 -1.8333,0 -2.5833,-0.3026 -1.6667,-0.6725 z M 1453,1175.117 c 0.9167,-0.3699 2.4167,-0.3699 3.3333,0 0.9167,0.3698 0.1667,0.6725 -1.6666,0.6725 -1.8334,0 -2.5834,-0.3027 -1.6667,-0.6725 z m -651.40674,-14.4503 c 0.0272,-2.2 0.326,-2.9386 0.66406,-1.6413 0.33806,1.2973 0.31583,3.0973 -0.0494,4 -0.36524,0.9027 -0.64183,-0.1587 -0.61466,-2.3587 z m 189.17867,-0.1111 c 0.064,-1.5533 0.37992,-1.8692 0.80556,-0.8056 0.38516,0.9625 0.33779,2.1125 -0.10527,2.5556 -0.44305,0.443 -0.75818,-0.3445 -0.70029,-1.75 z m -189.12926,-15.2223 c 0,-2.5666 0.27439,-3.6166 0.60976,-2.3333 0.33537,1.2833 0.33537,3.3833 0,4.6667 -0.33537,1.2833 -0.60976,0.2333 -0.60976,-2.3334 z m 186.72048,-2.6666 c 0,-3.3 0.26002,-4.65 0.57783,-3 0.3178,1.65 0.3178,4.35 0,6 -0.31781,1.65 -0.57783,0.3 -0.57783,-3 z m 279.64905,-3.3187 c -0.9062,-1.0919 -2.3297,-1.5957 -3.1633,-1.1196 -0.8336,0.4762 -1.0643,0.3683 -0.5127,-0.2398 0.5516,-0.608 -0.036,-2.3542 -1.3049,-3.8804 -1.2693,-1.5262 -0.071,-0.7072 2.6638,1.82 2.7344,2.5272 4.9716,4.7772 4.9716,5 0,0.9384 -1.1152,0.2746 -2.6545,-1.5802 z m -237.135,-20.6813 c 0,-1.8334 0.3026,-2.5834 0.6725,-1.6667 0.3699,0.9167 0.3699,2.4167 0,3.3333 -0.3699,0.9167 -0.6725,0.1667 -0.6725,-1.6666 z M 1036,1104.8299 c 0,-0.2768 1.05,-1.3268 2.3333,-2.3333 2.1148,-1.6585 2.1619,-1.6113 0.5034,0.5034 -1.7418,2.221 -2.8367,2.9273 -2.8367,1.8299 z m 557.3333,-2.6666 c 0,-0.2769 1.05,-1.3269 2.3334,-2.3334 2.1147,-1.6585 2.1619,-1.6113 0.5034,0.5034 -1.7419,2.221 -2.8368,2.9273 -2.8368,1.83 z m -782.56137,-5.6077 c 0.064,-1.5533 0.37992,-1.8692 0.80556,-0.8056 0.38516,0.9625 0.33779,2.1125 -0.10527,2.5556 -0.44305,0.443 -0.75818,-0.3445 -0.70029,-1.75 z M 1608,1088.8299 c 0,-0.2768 1.05,-1.3268 2.3333,-2.3333 2.1148,-1.6585 2.1619,-1.6113 0.5034,0.5034 -1.7418,2.221 -2.8367,2.9273 -2.8367,1.8299 z m -793.22807,-9.6077 c 0.064,-1.5532 0.37992,-1.8692 0.80556,-0.8055 0.38516,0.9625 0.33779,2.1125 -0.10527,2.5555 -0.44305,0.4431 -0.75818,-0.3444 -0.70029,-1.75 z m 360.89477,-50.8298 c 1.65,-0.3178 4.35,-0.3178 6,0 1.65,0.3178 0.3,0.5778 -3,0.5778 -3.3,0 -4.65,-0.26 -3,-0.5778 z m -330.33337,-6.2291 c 0,-0.2769 1.05,-1.3269 2.33334,-2.3334 2.11474,-1.6585 2.1619,-1.6113 0.5034,0.5034 -1.74182,2.221 -2.83674,2.9273 -2.83674,1.83 z m 11.33334,-12.83 c 1.32731,-1.4666 2.7133,-2.6666 3.07996,-2.6666 0.36667,0 -0.41931,1.2 -1.74663,2.6666 -1.32732,1.4667 -2.7133,2.6667 -3.07997,2.6667 -0.36666,0 0.41932,-1.2 1.74664,-2.6667 z m 559.69203,-3.5906 c 1.2973,-0.3381 3.0973,-0.3158 4,0.049 0.9027,0.3652 -0.1587,0.6418 -2.3587,0.6146 -2.2,-0.027 -2.9386,-0.326 -1.6413,-0.664 z m -241.5868,-18.52048 c 0.064,-1.55326 0.38,-1.8692 0.8056,-0.80555 0.3851,0.9625 0.3378,2.1125 -0.1053,2.55555 -0.443,0.44306 -0.7582,-0.34444 -0.7003,-1.75 z m 185.7681,-3.55555 -2.54,-3 3,2.53998 c 2.8193,2.38696 3.607,3.46002 2.54,3.46002 -0.253,0 -1.603,-1.35 -3,-3 z M 884,982.16326 c 0,-0.27687 1.05,-1.32687 2.33333,-2.33333 2.11474,-1.6585 2.1619,-1.61134 0.50341,0.5034 -1.74183,2.221 -2.83674,2.92731 -2.83674,1.82993 z m 289.4386,-2.94104 c 0.064,-1.55326 0.3799,-1.8692 0.8056,-0.80555 0.3851,0.9625 0.3377,2.1125 -0.1053,2.55555 -0.4431,0.44306 -0.7582,-0.34444 -0.7003,-1.75 z m 615.6447,-2.79971 c 0.9625,-0.38516 2.1125,-0.33779 2.5556,0.10527 0.443,0.44305 -0.3445,0.75818 -1.75,0.70029 -1.5533,-0.064 -1.8692,-0.37992 -0.8056,-0.80556 z M 892,975.49659 c 0,-0.27687 1.05,-1.32687 2.33333,-2.33333 2.11474,-1.65849 2.1619,-1.61133 0.50341,0.50341 -1.74183,2.22099 -2.83674,2.9273 -2.83674,1.82992 z m 280.1053,-5.6077 c 0.064,-1.55326 0.3799,-1.8692 0.8055,-0.80556 0.3852,0.9625 0.3378,2.1125 -0.1052,2.55556 -0.4431,0.44305 -0.7582,-0.34445 -0.7003,-1.75 z m 509.488,-5.22222 c 0.027,-2.2 0.326,-2.93858 0.664,-1.64129 0.3381,1.29729 0.3158,3.09729 -0.049,4 -0.3652,0.90271 -0.6418,-0.15871 -0.6146,-2.35871 z m -510.8214,-6.77778 c 0.064,-1.55326 0.38,-1.8692 0.8056,-0.80556 0.3851,0.9625 0.3378,2.1125 -0.1053,2.55556 -0.443,0.44305 -0.7582,-0.34445 -0.7003,-1.75 z m 512,-2.66667 c 0.064,-1.55326 0.38,-1.8692 0.8056,-0.80555 0.3851,0.9625 0.3378,2.1125 -0.1053,2.55555 -0.443,0.44306 -0.7582,-0.34444 -0.7003,-1.75 z M 1169.6427,948 c 0,-2.56667 0.2744,-3.61667 0.6097,-2.33333 0.3354,1.28333 0.3354,3.38333 0,4.66666 -0.3353,1.28334 -0.6097,0.23334 -0.6097,-2.33333 z m 174.8443,-15.33333 c 0,-7.33334 0.2274,-10.16322 0.4975,-6.28864 0.2702,3.87458 0.2674,9.87458 -0.01,13.33333 -0.2736,3.45875 -0.4947,0.28864 -0.4912,-7.04469 z m 150.2849,9.22222 c 0.064,-1.55326 0.38,-1.8692 0.8056,-0.80556 0.3851,0.9625 0.3378,2.1125 -0.1053,2.55556 -0.443,0.44305 -0.7582,-0.34445 -0.7003,-1.75 z m -326.6666,-5.33333 c 0.064,-1.55326 0.3799,-1.8692 0.8055,-0.80556 0.3852,0.9625 0.3378,2.1125 -0.1052,2.55556 -0.4431,0.44305 -0.7582,-0.34445 -0.7003,-1.75 z m 0.3079,-13.22223 c 0.01,-4.4 0.2564,-6.03925 0.5531,-3.64278 0.2968,2.39646 0.2906,5.99646 -0.014,8 -0.3042,2.00353 -0.547,0.0428 -0.5395,-4.35722 z m 1.0254,-22.77777 c 0.064,-1.55326 0.3799,-1.8692 0.8056,-0.80556 0.3851,0.9625 0.3377,2.1125 -0.1053,2.55556 -0.4431,0.44305 -0.7582,-0.34445 -0.7003,-1.75 z m 508,-5.33334 c 0.064,-1.55326 0.3799,-1.8692 0.8056,-0.80555 0.3851,0.9625 0.3377,2.1125 -0.1053,2.55555 -0.4431,0.44306 -0.7582,-0.34444 -0.7003,-1.75 z m -1.2281,-12.55555 c 0,-1.83334 0.3027,-2.58334 0.6725,-1.66667 0.3699,0.91667 0.3699,2.41667 0,3.33333 -0.3698,0.91667 -0.6725,0.16667 -0.6725,-1.66666 z M 699.75,880.42251 c 0.9625,-0.38516 2.1125,-0.33779 2.55556,0.10527 0.44305,0.44305 -0.34445,0.75818 -1.75,0.70029 -1.55326,-0.064 -1.8692,-0.37992 -0.80556,-0.80556 z M 1674.8772,872 c 0,-1.83333 0.3026,-2.58333 0.6725,-1.66667 0.3699,0.91667 0.3699,2.41667 0,3.33334 -0.3699,0.91666 -0.6725,0.16666 -0.6725,-1.66667 z m -200.3806,-1 c -1.6585,-2.11474 -1.6113,-2.1619 0.5034,-0.50341 1.2833,1.00646 2.3333,2.05646 2.3333,2.33334 0,1.09738 -1.0949,0.39107 -2.8367,-1.82993 z m -68.0799,-11.91082 c 0.9625,-0.38516 2.1125,-0.33779 2.5555,0.10526 0.4431,0.44306 -0.3444,0.75819 -1.75,0.7003 -1.5532,-0.064 -1.8692,-0.37992 -0.8055,-0.80556 z m 42.6666,-2.66667 c 0.9625,-0.38516 2.1125,-0.33779 2.5556,0.10527 0.443,0.44305 -0.3445,0.75818 -1.75,0.70029 -1.5533,-0.064 -1.8692,-0.37992 -0.8056,-0.80556 z m -22.6666,-1.33333 c 0.9625,-0.38516 2.1125,-0.33779 2.5555,0.10526 0.4431,0.44306 -0.3444,0.75819 -1.75,0.7003 -1.5532,-0.064 -1.8692,-0.37992 -0.8055,-0.80556 z m 7.9405,-0.0555 c 2.3965,-0.29675 5.9965,-0.29062 8,0.0136 2.0035,0.30423 0.043,0.54702 -4.3572,0.53954 -4.4,-0.007 -6.0393,-0.2564 -3.6428,-0.55315 z m 241.7481,-23.81147 c 0.064,-1.55326 0.3799,-1.8692 0.8055,-0.80555 0.3852,0.9625 0.3378,2.1125 -0.1052,2.55555 -0.4431,0.44306 -0.7582,-0.34444 -0.7003,-1.75 z M 1224,786.16326 c 0,-0.27687 1.05,-1.32687 2.3333,-2.33333 2.1148,-1.6585 2.1619,-1.61134 0.5034,0.5034 -1.7418,2.221 -2.8367,2.92731 -2.8367,1.82993 z m 394.4966,-25.82993 c -1.6585,-2.11474 -1.6113,-2.1619 0.5034,-0.5034 1.2833,1.00646 2.3333,2.05646 2.3333,2.33333 0,1.09738 -1.0949,0.39107 -2.8367,-1.82993 z m -5.9566,-6 -2.54,-3 3,2.53999 c 2.8193,2.38695 3.607,3.46001 2.54,3.46001 -0.253,0 -1.603,-1.35 -3,-3 z m 70.1267,-0.17007 c 0,-0.27687 1.05,-1.32687 2.3333,-2.33333 2.1147,-1.6585 2.1619,-1.61134 0.5034,0.5034 -1.7418,2.221 -2.8367,2.92731 -2.8367,1.82993 z m -425.3334,-1.33333 c 0,-0.27688 1.05,-1.32688 2.3334,-2.33334 2.1147,-1.65849 2.1619,-1.61133 0.5034,0.50341 -1.7419,2.221 -2.8368,2.92731 -2.8368,1.82993 z M 1599.8991,743 l -3.2324,-3.66667 3.6666,3.23242 c 2.0167,1.77783 3.6667,3.42783 3.6667,3.66667 0,1.0457 -1.0797,0.19463 -4.1009,-3.23242 z m 241.9212,-49 c 0,-7.33333 0.2274,-10.16322 0.4976,-6.28864 0.2702,3.87459 0.2673,9.87459 -0.01,13.33334 -0.2737,3.45875 -0.4948,0.28863 -0.4913,-7.0447 z m -451.4036,-5.57749 c 0.9625,-0.38516 2.1125,-0.33779 2.5555,0.10527 0.4431,0.44305 -0.3444,0.75818 -1.75,0.70029 -1.5532,-0.064 -1.8692,-0.37992 -0.8055,-0.80556 z m 7.9166,-1.30555 c 0.9167,-0.36988 2.4167,-0.36988 3.3334,0 0.9166,0.36988 0.1666,0.67251 -1.6667,0.67251 -1.8333,0 -2.5833,-0.30263 -1.6667,-0.67251 z m 9.4167,-1.36111 c 0.9625,-0.38516 2.1125,-0.33779 2.5556,0.10526 0.443,0.44306 -0.3445,0.75819 -1.75,0.70029 -1.5533,-0.064 -1.8692,-0.37992 -0.8056,-0.80555 z m 15.25,-1.39381 c 2.75,-0.28766 7.25,-0.28766 10,0 2.75,0.28766 0.5,0.52302 -5,0.52302 -5.5,0 -7.75,-0.23536 -5,-0.52302 z m 386.3333,-0.77925 c 0,-0.22947 1.95,-2.17947 4.3334,-4.33334 l 4.3333,-3.91612 -3.9161,4.33334 c -3.6504,4.03927 -4.7506,4.9462 -4.7506,3.91612 z m -349,-1.89618 c 3.4834,-0.27466 9.1834,-0.27466 12.6667,0 3.4833,0.27467 0.6333,0.49939 -6.3333,0.49939 -6.9667,0 -9.8167,-0.22472 -6.3334,-0.49939 z M 1821.5933,662 c 0.027,-2.2 0.326,-2.93858 0.664,-1.64129 0.3381,1.29729 0.3158,3.09729 -0.049,4 -0.3652,0.90271 -0.6418,-0.15871 -0.6146,-2.35871 z m 0.1032,-10 c 0,-3.3 0.26,-4.65 0.5778,-3 0.3178,1.65 0.3178,4.35 0,6 -0.3178,1.65 -0.5778,0.3 -0.5778,-3 z m 20.2871,-220 c 0,-115.5 0.1573,-162.75 0.3496,-105 0.1923,57.75 0.1923,152.25 0,210 -0.1923,57.75 -0.3496,10.5 -0.3496,-105 z M 914.49659,605.66667 c -1.65849,-2.11474 -1.61133,-2.1619 0.50341,-0.50341 1.28333,1.00646 2.33333,2.05646 2.33333,2.33333 0,1.09738 -1.09491,0.39107 -2.83674,-1.82992 z M 684.61462,506.33333 C 684.26536,505.41667 684.13426,442.26667 684.32328,366 l 0.34369,-138.66667 0.66651,140.33342 c 0.36659,77.18338 0.49769,140.33338 0.29134,140.33333 -0.20635,-4e-5 -0.66094,-0.75008 -1.0102,-1.66675 z m 120.54864,-10 c -1.65849,-2.11474 -1.61133,-2.1619 0.50341,-0.5034 2.22099,1.74182 2.9273,2.83674 1.82992,2.83674 -0.27687,0 -1.32687,-1.05 -2.33333,-2.33334 z M 1054.7719,303.22222 c 0.064,-1.55326 0.38,-1.8692 0.8056,-0.80555 0.3851,0.9625 0.3378,2.1125 -0.1053,2.55555 -0.443,0.44306 -0.7582,-0.34444 -0.7003,-1.75 z M 747.75,159.08918 c 0.9625,-0.38516 2.1125,-0.33779 2.55556,0.10526 0.44305,0.44306 -0.34445,0.75819 -1.75,0.7003 -1.55326,-0.064 -1.8692,-0.37992 -0.80556,-0.80556 z m 1029.3333,0 c 0.9625,-0.38516 2.1125,-0.33779 2.5556,0.10526 0.443,0.44306 -0.3445,0.75819 -1.75,0.7003 -1.5533,-0.064 -1.8692,-0.37992 -0.8056,-0.80556 z"
         id="path3" />
      <path
         style="fill:#211d1e"
         d="m 744.77849,1315.1882 c -26.63118,-4.8087 -48.70666,-24.4228 -56.64444,-50.3286 -2.7899,-9.1052 -2.80072,-9.879 -2.80072,-200.4012 V 873.19762 l 4.33334,3.22613 c 8.25341,6.14458 16.2615,5.61935 28.14866,-1.84618 8.04779,-5.05428 54.89469,-32.24096 64.84691,-37.63264 10.35088,-5.60766 12.3722,-11.10363 11.2525,-30.59562 l -0.86259,-15.01598 4.97489,-5.74112 c 3.70999,-4.28141 9.25464,-7.89516 21.80726,-14.21297 9.2578,-4.65951 21.25975,-11.80502 26.671,-15.87889 16.98001,-12.78347 19.55579,-12.74162 40.336,0.65522 11.29536,7.28203 13.03252,7.9956 18.13413,7.44886 3.34498,-0.35848 9.31635,-2.78525 14.66666,-5.96055 4.96352,-2.94574 12.92458,-7.33005 17.69124,-9.74292 4.76667,-2.41286 14.36667,-8.0727 21.33334,-12.57742 6.96666,-4.50472 16.26666,-10.35095 20.66666,-12.99163 18.21305,-10.93065 23.14267,-22.4448 16.0386,-37.46155 -2.59363,-5.48248 -9.33219,-12.78853 -31.66667,-34.33349 C 948.1007,635.48393 930.23333,618.76391 924,613.38128 905.90989,597.76001 877.98071,569.75442 866.64474,555.86909 860.89838,548.83042 850.30253,538.07135 843.0984,531.96004 835.89428,525.84873 820.7,511.44927 809.33333,499.96124 797.96667,488.47321 786.56667,477.56319 784,475.71675 778.65885,471.87436 767.8981,468 762.5673,468 c -5.23172,0 -20.53359,6.54377 -31.99898,13.68421 -5.44591,3.39162 -13.50165,7.79223 -17.90165,9.77915 -4.4,1.98692 -12.06871,6.22049 -17.04158,9.40794 -4.97287,3.18745 -9.33568,5.79537 -9.69513,5.79537 -0.35946,0 -0.49042,-65.85 -0.29102,-146.33334 L 686.00148,214 689.872,204.806 c 8.11109,-19.26698 24.08129,-34.58897 43.58178,-41.81283 l 9.87955,-3.65984 L 1017,158.9782 c 150.5167,-0.19532 273.6667,-0.10852 273.6667,0.19289 0,0.30141 -1.2704,4.66097 -2.8231,9.68791 -2.3668,7.66297 -2.6775,10.97133 -1.9227,20.47378 2.0405,25.68821 8.1884,45.74827 23.2923,76.00055 16.0942,32.23567 34.6048,61.32869 62.8878,98.84008 17.7276,23.51183 48.7752,69.75925 66.5698,99.15992 3.107,5.13334 11.4795,18.03334 18.6057,28.66667 7.1261,10.63333 17.1633,26.23333 22.3047,34.66667 8.5722,14.06074 36.3789,54.37567 64.7692,93.90442 6.2826,8.74743 20.5648,30.64743 31.7382,48.66666 11.1734,18.01924 24.2345,39.06225 29.0248,46.76225 15.1965,24.42753 23.9912,34.21698 36.8866,41.05903 19.6942,10.44935 25.8065,9.62996 45.2013,-6.05942 7.628,-6.17069 14.558,-10.45833 20.9685,-12.9734 5.2662,-2.06614 13.2324,-6.25458 17.7026,-9.30765 10.9205,-7.45855 41.9821,-23.66257 57.5401,-30.01716 6.9363,-2.83311 16.4898,-7.91863 21.23,-11.30117 16.7414,-11.94642 19.4174,-18.8465 16.9356,-43.6691 l -1.6308,-16.30994 -10.4679,-18.71059 C 1803.7221,598.41977 1793.9037,580.1 1787.6609,568 c -22.0297,-42.69812 -46.2282,-86.54 -74.3294,-134.66667 -37.3815,-64.02026 -46.025,-81.88591 -68.6217,-141.83735 -14.3276,-38.01249 -35.6121,-83.13483 -55.548,-117.75907 -4.3056,-7.47803 -7.8285,-13.9528 -7.8285,-14.38836 0,-0.43557 45.45,-0.61718 101,-0.40358 l 101,0.38836 9.6351,3.57442 c 18.6593,6.92224 31.841,18.37322 40.6703,35.33055 2.6046,5.00227 5.4014,12.27457 6.2151,16.16066 1.0473,5.00138 1.4795,67.84191 1.4795,215.09387 0,188.82356 0.2054,209.07332 2.2243,219.34869 1.9326,9.83592 1.9969,12.57748 0.4905,20.90613 -0.9536,5.27213 -2.0047,16.63568 -2.3359,25.25235 -0.4552,11.84309 -1.0349,15.66667 -2.3751,15.66667 -0.9751,0 -6.6161,3.59102 -12.5355,7.98004 -5.9195,4.38903 -18.0813,11.92821 -27.0261,16.75373 -8.9449,4.82552 -22.6403,13.19286 -30.4343,18.59408 -11.8194,8.1909 -39.1093,23.33881 -42.0462,23.33881 -0.4564,0 -4.8344,2.29124 -9.729,5.09164 -4.8946,2.80039 -12.778,6.55039 -17.5185,8.33333 -11.2377,4.22656 -20.5004,12.87983 -22.7377,21.2417 -0.8999,3.36365 -1.3367,10.22756 -0.994,15.62139 0.8899,14.00711 8.4321,28.94653 39.9065,79.04528 6.2196,9.9 15.164,25.09126 19.8764,33.75836 15.0564,27.69202 26.2111,36.9083 44.671,36.9083 6.9831,0 11.9943,-0.90894 18.4893,-3.35365 10.7992,-4.0648 21.5754,-9.42711 22.7437,-11.31734 0.6312,-1.02142 18.5411,-10.66113 19.8102,-10.66255 0.1029,-1.1e-4 -0.1129,69.74991 -0.4796,155.00001 l -0.6666,155.0002 -3.1053,7.3333 c -9.9282,23.4464 -26.7946,38.6607 -49.8528,44.9696 -7.7732,2.1269 -28.594,2.3199 -289.6218,2.6853 -154.6855,0.2165 -280.9855,0.1439 -280.6666,-0.1614 4.2129,-4.0334 42.0593,-27.3176 57.0222,-35.0818 10.7567,-5.5816 22.6371,-12.4238 26.4009,-15.2049 13.0812,-9.6657 17.2972,-26.0565 11.1794,-43.4627 -3.1427,-8.9414 -43.3638,-80.5528 -49.2296,-87.6504 -1.1695,-1.4151 2.0035,0.8958 7.0512,5.1355 9.8515,8.2744 21.4005,14.1334 34.5907,17.5484 4.5274,1.1721 13.6317,4.2035 20.2317,6.7364 16.8953,6.4838 17.4907,6.6837 28.9904,9.7341 10.1131,2.6826 27.7287,4.7781 53.0096,6.3057 8.829,0.5335 16.1003,0.126 24,-1.345 6.2333,-1.1607 17.5279,-3.0234 25.0991,-4.1393 15.3645,-2.2645 33.0594,-9.1696 51.6238,-20.1452 5.7608,-3.4059 13.747,-7.6399 17.7471,-9.4089 34.2403,-15.1427 80.2637,-49.5939 98.4249,-73.6768 4.0764,-5.4055 11.3458,-14.1055 16.1543,-19.3334 10.2318,-11.1241 17.8906,-22.4986 21.0485,-31.2601 1.2381,-3.4348 5.471,-13.0003 9.4065,-21.2567 10.3939,-21.80542 12.6992,-31.46126 13.5046,-56.56435 0.5844,-18.21435 0.3124,-22.33879 -2.1105,-32 -1.5297,-6.09988 -3.4257,-17.39068 -4.2133,-25.09068 -2.7024,-26.42136 -5.3017,-34.69688 -18.0081,-57.33334 -3.9106,-6.96666 -8.7305,-16.86666 -10.711,-22 -1.9805,-5.13333 -9.1931,-17.73333 -16.028,-28 -10.7068,-16.0826 -14.8423,-20.93219 -29.8738,-35.0323 -18.8381,-17.67083 -23.6685,-21.13196 -46.0641,-33.00612 -22.7048,-12.03805 -25.1602,-13.09975 -49.3334,-21.33093 -22.3244,-7.60169 -22.8981,-7.71924 -38,-7.78615 -33.5369,-0.1486 -88.32,6.03563 -106,11.96588 -3.6666,1.22988 -16.0117,6.5369 -27.4334,11.79337 -18.8663,8.68259 -20.715,9.28631 -20.2009,6.59692 0.6072,-3.17638 -4.5791,-13.39559 -16.6639,-32.83489 -3.9779,-6.39883 -6.8171,-12.3065 -6.3093,-13.12816 0.9302,-1.50511 2.1017,-1.3847 15.0319,1.54505 9.1564,2.07468 10.6744,0.67657 14.2423,-13.11792 4.0381,-15.6124 5.1893,-15.08064 18.0452,8.33525 4.1823,7.61773 11.8692,19.69545 14.1137,22.17555 3.4813,3.8468 8.6539,2.9912 17.8501,-2.95254 4.6323,-2.99401 11.7753,-7.29093 15.8733,-9.54871 10.0963,-5.56242 14.7844,-10.08848 14.7844,-14.27326 0,-1.99819 -4.4137,-10.39347 -10.5588,-20.08388 -15.8919,-25.06063 -24.6408,-39.70654 -29.4602,-49.31716 -2.3903,-4.76666 -6.583,-11.96666 -9.317,-16 -2.7341,-4.03333 -7.3854,-12.13333 -10.3361,-18 -2.9508,-5.86666 -6.6181,-11.79737 -8.1496,-13.17935 -4.1828,-3.77432 -10.7195,-2.07554 -24.0347,6.2462 -6.3123,3.94512 -13.6595,8.47625 -16.3271,10.06916 -8.0176,4.78768 -8.3515,5.69394 -9.2548,25.1199 -1.0456,22.48732 -1.3186,22.87689 -13.2922,18.96796 -4.7316,-1.54467 -12.7669,-4.85196 -17.8562,-7.34952 -5.0893,-2.49756 -10.5246,-4.54101 -12.0784,-4.54101 -1.5538,0 -6.3898,2.15772 -10.7467,4.79493 -4.3569,2.63722 -11.8216,6.77332 -16.5882,9.19134 -4.7667,2.41803 -10.389,5.99865 -12.494,7.95694 -5.4977,5.11448 -4.2191,10.37355 6.3238,26.011 4.714,6.99185 12.9209,20.51245 18.2377,30.04579 5.3168,9.53333 13.1547,23.06032 17.4176,30.05998 4.2629,6.99966 9.9193,17.49966 12.5697,23.33334 5.8121,12.79254 9.0884,16.60668 14.2649,16.60668 3.5414,0 3.0072,0.66901 -6.5657,8.22352 -20.1262,15.88268 -53.283,52.3444 -64.7187,71.16956 -6.1368,10.10235 -13.2951,27.83297 -18.515,45.86096 -2.2421,7.74361 -5.7757,19.17929 -7.8524,25.41262 -2.9049,8.71948 -3.979,15.02348 -4.6572,27.33334 -0.8604,15.6177 -0.4547,21.19939 3.9738,54.66666 2.7895,21.08146 3.5612,23.82317 12.0889,42.95097 3.9929,8.9563 7.2599,16.5757 7.2599,16.932 0,0.3562 -2.2319,-0.2849 -4.9598,-1.4247 -10.3121,-4.3087 -21.6747,-0.1874 -51.2129,18.5751 -17.2893,10.982 -25.7304,15.6116 -71.4896,39.2091 -23.303,12.0171 -30.0837,17.3867 -32.2865,25.5675 -2.4151,8.969 -0.4863,14.5525 12.3823,35.8429 3.883,6.4243 9.5003,16.7805 12.4828,23.0138 7.2639,15.181 10.4305,18 20.2191,18 6.5411,0 8.9025,-0.7814 17.1257,-5.6667 5.2462,-3.1166 10.9906,-5.6666 12.7654,-5.6666 4.5116,0 7.6402,4.0013 7.6402,9.7716 0,6.7968 -7.4264,13.928 -21.5928,20.7349 -18.9488,9.1046 -31.6393,9.9233 -51.9104,3.3485 -20.8394,-6.759 -32.787,-16.6147 -42.15321,-34.7725 -14.02344,-27.1865 -13.2647,-45.2576 3.13371,-74.6373 9.8922,-17.723 17.7119,-24.8487 39.1893,-35.7115 9.9,-5.0072 24.9,-13.3214 33.3334,-18.476 8.4333,-5.1547 21.3333,-12.2004 28.6666,-15.657 29.3189,-13.8199 45.8964,-25.4032 50.6289,-35.3761 2.7212,-5.73444 2.5292,-14.68629 -0.4551,-21.22463 -1.3388,-2.93334 -7.5597,-13.16739 -13.8242,-22.74235 -6.2644,-9.57496 -13.5807,-21.7595 -16.2585,-27.07676 -8.2933,-16.46831 -21.639,-37.97844 -26.3052,-42.39785 -7.3355,-6.9474 -14.3855,-9.87212 -23.9533,-9.93701 -14.2091,-0.0964 -25.7969,4.89279 -65.8326,28.3444 -13.19997,7.73214 -32.39997,18.77197 -42.66663,24.53295 -21.50496,12.06718 -57.35445,35.66673 -71.64962,47.1666 -20.50243,16.49336 -54.33997,54.03185 -65.67981,72.86355 -5.25491,8.7266 -11.15586,26.0994 -15.36874,45.2465 -1.61353,7.3333 -4.05167,17.7396 -5.41808,23.125 -9.59495,37.8167 -4.84522,72.247 15.8578,114.9519 3.7124,7.6577 8.63048,18.7231 10.92907,24.5897 6.7985,17.3517 18.46995,36.4355 31.83022,52.045 3.74484,4.3753 6.81413,8.405 6.82064,8.955 0.007,0.55 -26.23815,0.9462 -58.32148,0.8804 -44.32363,-0.091 -60.86826,-0.5774 -68.88818,-2.0255 z m 37.27368,-287.6252 c 37.1722,-18.1515 46.79723,-27.0617 53.26463,-49.30881 2.49264,-8.57439 2.04878,-12.1512 -2.90391,-23.40049 -4.66819,-10.60311 -8.92773,-15.71617 -17.9513,-21.54839 -11.98875,-7.7487 -31.17522,-9.79727 -54.78848,-5.84984 -6.80425,1.13747 -9.92151,-0.0796 -7.5433,-2.94521 2.1566,-2.59855 14.33139,-8.10075 20.47481,-9.25326 5.41797,-1.01641 9.74728,-5.29594 10.77838,-10.65443 0.59799,-3.10766 -0.6805,-6.46109 -6.07553,-15.9359 C 769.212,874.44931 766.68543,872 760.11509,872 c -10.1533,0 -44.46541,19.79308 -54.52102,31.45069 -7.52719,8.72636 -10.16817,17.73272 -9.22689,31.46578 1.21173,17.67873 9.59449,29.67114 26.29949,37.62413 8.25537,3.93025 9.45762,4.12607 25.33333,4.12607 9.16667,0 19.6458,-0.3 23.28696,-0.66667 5.58185,-0.5621 6.69602,-0.29631 7.10311,1.69444 0.56355,2.75589 -6.67058,6.29439 -26.34204,12.88493 -13.03217,4.36618 -15.93479,6.54983 -16.00563,12.04113 -0.0445,3.4464 11.67666,25.1282 16.4916,30.5062 4.14862,4.6337 11.4553,3.2566 29.51817,-5.5637 z m 114.95941,-68.47767 c 7.14363,-4.16973 16.28842,-9.30741 20.32175,-11.41707 12.72937,-6.65815 13.44041,-9.97394 4.83419,-22.54298 -3.20786,-4.68496 -8.40848,-13.60472 -11.55693,-19.82169 -5.00507,-9.88307 -5.79985,-12.66114 -6.32436,-22.1061 -0.32995,-5.94137 0.0322,-19.74137 0.80481,-30.66666 0.79635,-11.26124 0.99318,-28.15637 0.45447,-39.01088 -0.87891,-17.70926 -1.17769,-19.33088 -3.9797,-21.59982 -3.23509,-2.61961 -5.91802,-2.25184 -10.23248,1.40267 -1.46666,1.24232 -8.66666,5.40142 -16,9.24243 -7.33333,3.84101 -15.09015,8.70351 -17.23737,10.80556 l -3.90404,3.82191 -0.47266,19.43092 c -0.25997,10.68701 -1.04748,20.9428 -1.75003,22.79064 -1.13745,2.99172 -1.60734,3.18522 -4.28996,1.76666 -3.22968,-1.70784 -18.1959,-11.99887 -27.13649,-18.6595 -5.2341,-3.89934 -5.64296,-3.98757 -10,-2.15798 -2.49853,1.04917 -8.18011,4.2466 -12.62573,7.10541 -4.44562,2.8588 -12.69441,7.59782 -18.33064,10.53115 -5.63624,2.93333 -10.58934,6.38333 -11.00691,7.66667 -1.27488,3.9182 0.65248,7.39092 5.82267,10.4913 2.71214,1.62638 11.83116,7.54515 20.2645,13.15282 8.43333,5.60768 20.13333,12.80335 26,15.99037 15.64637,8.49979 31.95965,19.54156 36.48392,24.69442 5.16252,5.87978 12.70227,18.79999 14.84046,25.43076 2.01497,6.24869 3.66086,8.49816 7.29599,9.97163 4.1349,1.67603 3.88701,1.76432 17.72454,-6.31264 z m 92.43901,-53.03086 c 32.53861,-14.77297 45.60701,-24.41117 52.78121,-38.92734 7.249,-14.66721 7.5991,-23.33911 1.4774,-36.58876 -4.7998,-10.38845 -12.899,-19.01843 -22.4182,-23.88715 -10.3124,-5.27445 -29.84144,-6.70887 -45.6712,-3.35457 -14.80183,3.13649 -17.30308,-0.0659 -4.89935,-6.27264 4.00375,-2.00347 9.67955,-4.30712 12.61288,-5.11922 6.58089,-1.82196 10.93007,-5.70007 12.03519,-10.73165 0.67177,-3.05857 -0.54727,-6.24984 -6.0818,-15.92127 C 980.77451,750.37705 978.36058,748 971.76719,748 c -5.97665,0 -26.14824,10.16097 -41.70242,21.00662 -17.52673,12.22108 -23.06698,23.26419 -21.69725,43.24814 0.60668,8.85121 1.43973,11.74189 5.17774,17.96674 8.30441,13.8292 21.03914,21.43341 38.91181,23.23516 9.61139,0.96893 26.5048,-0.15037 33.86006,-2.24344 3.70408,-1.05406 5.63116,2.74325 2.81919,5.55522 -1.04225,1.04225 -9.67429,4.63851 -19.18232,7.9917 -9.50804,3.35319 -18.33733,7.04691 -19.62067,8.20826 -3.92579,3.55267 -2.74984,9.16649 4.4937,21.45227 10.00753,16.97377 11.5767,18.91266 15.30626,18.91266 1.80677,0 10.49955,-3.27549 19.3173,-7.27886 z m 99.93411,-59.16592 c 13.0584,-6.91727 31.5903,-17.99986 33.882,-20.26238 4.1766,-4.12347 3.3824,-10.73603 -2.1014,-17.49675 -2.5858,-3.18785 -9.1042,-13.59609 -14.4853,-23.12942 -5.3812,-9.53333 -12.7279,-22.36231 -16.3261,-28.50884 -9.6385,-16.46455 -8.9044,-20.409 5.2152,-28.02318 8.1568,-4.39871 8.9516,-8.28391 3.3625,-16.43674 -2.1484,-3.13385 -5.5531,-8.99791 -7.566,-13.03124 -8.0374,-16.10505 -11.9839,-16.88825 -29.4955,-5.85348 -6.5285,4.11392 -18.4701,11.22969 -26.5368,15.81283 -8.0666,4.58313 -19.2739,10.9672 -24.9051,14.18681 -5.6311,3.21961 -13.26776,7.49621 -16.97031,9.50356 -8.28612,4.49234 -9.84142,8.62772 -5.87719,15.62686 17.6546,31.17047 17.4336,30.9994 31.8195,24.6373 12.7755,-5.64996 10.7878,-7.76568 38.9142,41.41945 3.3549,5.86667 8.4355,15.00293 11.2903,20.30279 7.4304,13.79407 11.0716,15.86548 19.78,11.25243 z m 85.1074,-48.66526 c 21.3999,-13.22173 26.147,-16.02122 37.905,-22.3534 6.4518,-3.47455 13.6518,-7.76675 16,-9.53823 2.3483,-1.77148 8.3289,-5.47765 13.2903,-8.23593 13.8767,-7.71476 14.0697,-9.02197 3.9525,-26.7624 -11.0215,-19.32605 -13.4802,-20.53685 -26.7502,-13.1731 -4.8893,2.71318 -13.3228,7.83707 -18.7411,11.38641 -10.2502,6.71462 -16.8655,8.27785 -18.3757,4.34232 -1.0245,-2.66967 2.3394,-5.96257 10.8938,-10.6641 16.2037,-8.90562 28.6666,-17.9678 28.6666,-20.8444 0,-3.07285 -9.0148,-18.02964 -14.4937,-24.04713 -1.8362,-2.01666 -4.3201,-3.66666 -5.5198,-3.66666 -1.9126,0 -11.347,5.46239 -26.6531,15.43185 -2.5667,1.67177 -6.9285,4.10026 -9.6929,5.39666 -4.746,2.22564 -5.1537,2.22969 -7.3108,0.0726 -4.0324,-4.03245 -0.9178,-6.53391 29.337,-23.56114 9.8931,-5.56776 10.3321,-6.01845 10.3048,-10.57776 -0.027,-4.54252 -6.6668,-16.81654 -14.6574,-27.09561 -5.2581,-6.76412 -7.6504,-6.29261 -26.9833,5.31825 -9.7153,5.83473 -20.9641,12.40939 -24.9974,14.61035 -4.0334,2.20097 -11.8334,6.69646 -17.3334,9.98998 -5.5,3.29352 -12.8814,7.62795 -16.4033,9.63206 -10.7675,6.12732 -10.9726,11.19234 -1.0828,26.73746 2.8151,4.42491 7.5235,12.59738 10.463,18.16103 2.9395,5.56365 9.4978,16.36365 14.5739,24 7.7891,11.71763 20.4827,34.17352 28.1979,49.88427 3.5659,7.26118 8.3218,12.66666 11.1446,12.66666 1.5167,0 7.9362,-3.19952 14.2655,-7.11004 z M 1039.2688,687.98005 c 2.9688,-1.29877 10.4578,-5.99844 16.6421,-10.44372 6.1844,-4.44529 15.9605,-10.65949 21.7248,-13.80933 32.3202,-17.6613 52.8667,-29.67584 63.9227,-37.37884 6.8429,-4.76758 19.3416,-12.109 27.7749,-16.31426 21.4525,-10.6972 25.3334,-14.82164 25.3334,-26.92311 0,-8.51499 -3.2025,-16.66828 -10.6485,-27.11079 -7.3627,-10.32563 -22.9219,-37.22971 -28.0919,-48.57481 -5.4319,-11.92002 -13.3601,-18.56986 -23.9263,-20.06825 -4.9828,-0.70661 -7.1302,-0.24145 -12.6667,2.74379 -3.6666,1.97706 -9.9666,5.33638 -14,7.46516 -4.0333,2.12877 -12.3435,7.29731 -18.467,11.48564 -10.1305,6.92901 -11.7766,7.61514 -18.2691,7.61514 -6.4678,0 -7.6227,-0.47591 -12.345,-5.08703 -2.8652,-2.79787 -7.7891,-9.69787 -10.9418,-15.33333 -3.1528,-5.63547 -10.74,-18.40479 -16.8604,-28.37627 -6.1205,-9.97148 -13.692,-23.77148 -16.8257,-30.66667 -5.0949,-11.21095 -26.00707,-47.83062 -37.73977,-66.08694 -6.75509,-10.51107 -12.65562,-14.41132 -21.75161,-14.37782 -9.55754,0.0352 -18.68379,4.18537 -34.32379,15.60875 -6.49502,4.74394 -20.36112,12.94912 -30.81355,18.23374 -23.16864,11.71379 -26.02249,14.69544 -26.74096,27.93843 -0.43685,8.05217 -0.0529,9.62033 4.44322,18.14714 2.70676,5.13333 7.45864,14.21051 10.55973,20.1715 3.10109,5.96099 10.17676,17.73986 15.72372,26.17525 5.54696,8.43539 13.82017,22.75821 18.38493,31.82849 13.50965,26.84404 27.43772,51.00215 43.71585,75.82476 8.41582,12.83333 19.62957,31.13333 24.91944,40.66666 11.6236,20.9479 19.77482,35.16792 25.04979,43.70012 4.423,7.15407 13.1405,15.1897 17.4375,16.07364 4.3596,0.8968 12.7913,-0.50716 18.78,-3.12704 z m 393.148,-40.55978 c 16.7598,-7.55799 37.5798,-19.44962 44.6534,-25.50434 7.1882,-6.15289 14.7882,-21.34376 15.8564,-31.69406 0.6637,-6.43011 0.1978,-9.1275 -2.9102,-16.84774 -6.0798,-15.10263 -15.1618,-23.80598 -30.0164,-28.7651 -8.4925,-2.83517 -31.1789,-3.07294 -41.4957,-0.43492 -9.4392,2.4136 -13.9589,-0.51576 -7.4132,-4.80467 1.7001,-1.11395 7.5501,-3.59578 13,-5.51517 18.304,-6.44647 20.0238,-11.04534 10.4575,-27.96386 -8.6442,-15.28756 -11.999,-18.40466 -18.8235,-17.48931 -6.5383,0.87698 -21.9851,8.68994 -37.5309,18.98315 -19.0009,12.58088 -25.7666,23.684 -25.3215,41.55504 0.3293,13.22307 3.572,20.80862 12.9503,30.29373 11.9823,12.11879 19.8834,14.81303 42.8437,14.60962 9.5333,-0.0845 18.9368,-0.80108 20.8967,-1.5925 2.7762,-1.12108 3.9061,-1.02601 5.1148,0.43039 3.1403,3.78386 -0.5317,6.00694 -22.0115,13.32617 -8.0667,2.7487 -15.7167,5.91466 -17,7.03545 -4.2581,3.71875 -2.8773,9.96301 5.1399,23.2443 9.2903,15.39033 10.7564,17.04847 15.0667,17.04043 1.903,-0.004 9.3476,-2.66153 16.5435,-5.90661 z M 1234.1879,574.1157 c 3.77,-1.75536 12.4716,-7.19515 19.3369,-12.08841 6.8653,-4.89326 18.7808,-12.21517 26.4788,-16.27091 23.1867,-12.21605 41.1577,-22.77274 57.4232,-33.73215 8.4847,-5.71686 22.4013,-13.74709 30.9256,-17.84497 13.8182,-6.64271 15.8684,-8.08123 18.9066,-13.26544 6.4222,-10.95861 3.8132,-22.61047 -9.3103,-41.58049 -8.4867,-12.26748 -28.6154,-48.04223 -28.6154,-50.8581 0,-2.94479 -13.3954,-13.69938 -18.1817,-14.5973 -7.3028,-1.37001 -14.4255,0.16316 -20.7048,4.45677 -3.1791,2.17371 -8.5802,5.18181 -12.0024,6.68465 -3.4223,1.50285 -9.4223,5.09581 -13.3333,7.98437 -10.3316,7.63039 -14.8977,9.66295 -21.7077,9.66295 -7.988,0 -14.0506,-5.39149 -21.9759,-19.54314 -3.2208,-5.75128 -10.984,-18.85223 -17.2516,-29.11324 -6.2675,-10.26101 -13.83,-24.06101 -16.8055,-30.66667 -2.9755,-6.60566 -11.6393,-22.51029 -19.2529,-35.34362 -19.6059,-33.04725 -20.7495,-34.79857 -26.1205,-40 -4.6583,-4.51121 -5.1605,-4.66667 -15.0746,-4.66667 -11.7201,0 -14.5276,1.2918 -35.5891,16.37509 -6.6,4.72663 -20.2412,12.72547 -30.3138,17.7752 -15.602,7.8218 -18.8564,10.00115 -21.9778,14.7179 -5.2922,7.99711 -5.1293,17.85234 0.4723,28.55917 2.2749,4.34829 7.0902,13.60598 10.7008,20.57264 3.6105,6.96667 11.1045,19.56667 16.6532,28 5.5488,8.43334 13.7527,22.66359 18.231,31.62278 13.0433,26.09412 27.12,50.51672 43.7429,75.89238 8.5221,13.00954 19.5116,30.89072 24.4209,39.73595 21.5324,38.7952 28.1468,49.77294 32.3783,53.73723 8.19,7.67289 17.5457,8.91631 28.5468,3.79403 z M 1400,1004.1612 c -2.5667,-0.5501 -7.9667,-2.8295 -12,-5.06517 -4.0333,-2.23572 -9.6083,-4.8017 -12.3888,-5.70219 -7.7886,-2.52241 -20.1703,-14.8273 -25.1997,-25.04334 -4.1702,-8.47088 -4.3178,-9.3579 -4.8057,-28.87824 -0.5723,-22.89511 -0.1237,-24.68318 9.4243,-37.56175 3.2256,-4.35078 7.7972,-11.34275 10.1592,-15.53771 8.1601,-14.49242 22.8297,-23.60717 43.6118,-27.09749 6.5261,-1.09604 13.9053,-2.44364 16.3983,-2.99466 7.3224,-1.61845 27.579,0.54386 33.886,3.61717 6.82,3.32332 25.5199,19.11895 30.7104,25.94079 8.39,11.02687 12.6696,33.95567 8.4246,45.13668 -1.1885,3.13026 -3.0374,10.29994 -4.1087,15.93262 -3.2573,17.12511 -7.9312,23.98768 -24.7395,36.32468 -6.3865,4.68755 -16.9579,11.42182 -23.492,14.96503 l -11.8802,6.44218 -14.6667,0.2609 c -8.0666,0.1434 -16.7666,-0.1893 -19.3333,-0.7395 z M 754.26967,675.48325 c -1.61499,-1.75087 -4.07776,-7.30087 -5.47283,-12.33333 -1.39508,-5.03246 -4.26028,-15.14992 -6.36712,-22.48325 -2.10685,-7.33334 -4.19478,-17.00398 -4.63985,-21.49033 -0.71117,-7.16866 -0.46475,-8.50146 2.03379,-11 1.56365,-1.56365 4.0227,-2.84301 5.46455,-2.84301 2.6691,0 22.62199,16.85683 29.98627,25.33334 2.22988,2.56666 7.12394,7.96666 10.87569,12 8.89041,9.55768 10.27888,12.26619 8.40093,16.38783 -1.81805,3.99021 -28.72994,19.61217 -33.78578,19.61217 -2.04312,0 -4.81014,-1.35608 -6.49565,-3.18342 z"
         id="path2" />
    </g>
  </g>
</svg>
