<?xml version="1.0" encoding="UTF-8" standalone="no"?>
<!-- Created with Inkscape (http://www.inkscape.org/) -->

<svg
   version="1.1"
   id="svg1"
   width="651.95081"
   height="385.35788"
   viewBox="0 0 651.95081 385.35788"
   xmlns="http://www.w3.org/2000/svg"
   xmlns:svg="http://www.w3.org/2000/svg">
  <defs
     id="defs1" />
  <g
     id="g1"
     transform="translate(-0.04920246,0.02454393)">
    <g
       id="g2">
      <path
         style="fill:#91e3e9"
         d="m 0.05263158,384.27779 c 0.03198928,-0.77663 0.1899602,-0.9346 0.40277778,-0.40278 0.19258041,0.48125 0.1688962,1.05625 -0.0526316,1.27778 -0.22152778,0.22153 -0.37909357,-0.17222 -0.35014618,-0.875 z M 180.38515,336.75051 c -0.57866,-0.93628 -0.49036,-158.24529 0.0891,-158.8249 0.28913,-0.28918 0.4471,35.30691 0.35104,79.10243 l -0.17467,79.62822 40.17467,0.17718 40.17466,0.17717 -40.12732,0.16137 c -22.38494,0.09 -40.28659,-0.0963 -40.48753,-0.42147 z m 235.2544,-29.7505 c 1.5e-4,-16.13334 0.0871,-22.63794 0.19324,-14.45469 0.10613,8.18326 0.106,21.38326 -2.8e-4,29.33334 -0.10628,7.95007 -0.19311,1.25468 -0.19296,-14.87865 z M 186.32166,258.33334 c -3e-5,-39.96667 0.0802,-56.41469 0.17819,-36.55116 0.098,19.86353 0.0981,52.56353 6e-5,72.66667 -0.098,20.10314 -0.17822,3.85116 -0.17825,-36.11551 z m 279.67805,41.53298 c -0.18317,-17.12353 -0.10498,-30.90547 0.17377,-30.62653 0.27874,0.27895 0.42861,14.28911 0.33304,31.13369 l -0.17377,30.62653 z m 5.33334,-0.66666 c -0.18318,-17.49019 -0.10505,-31.57218 0.17362,-31.29332 0.27867,0.27886 0.42855,14.58901 0.33306,31.80034 l -0.17362,31.29333 z m -127.99972,29.21531 c 0,-0.13844 0.525,-0.66344 1.16667,-1.16666 1.05737,-0.82925 1.08095,-0.80567 0.2517,0.2517 -0.87091,1.1105 -1.41837,1.46365 -1.41837,0.91496 z m 145.65369,-65.08163 c 0,-35.75 0.0808,-50.375 0.1795,-32.5 0.0987,17.875 0.0987,47.125 0,65 -0.0987,17.875 -0.1795,3.25 -0.1795,-32.5 z m -202.0049,59.16667 -4.64879,-4.83333 4.83334,4.64878 c 4.4892,4.3178 5.13779,5.01788 4.64878,5.01788 -0.1015,0 -2.2765,-2.175 -4.83333,-4.83333 z M 341,325.33334 c 0.66366,-0.73333 1.35665,-1.33333 1.53998,-1.33333 0.18334,0 -0.20966,0.6 -0.87331,1.33333 -0.66366,0.73334 -1.35665,1.33334 -1.53999,1.33334 -0.18333,0 0.20966,-0.6 0.87332,-1.33334 z m -59.70256,-3.16666 -2.29744,-2.5 2.5,2.29744 c 1.375,1.26359 2.5,2.38859 2.5,2.5 0,0.50908 -0.56414,0.0295 -2.70256,-2.29744 z m 70.36923,-1.5 c 0.66365,-0.73334 1.35665,-1.33334 1.53998,-1.33334 0.18333,0 -0.20966,0.6 -0.87332,1.33334 -0.66365,0.73333 -1.35665,1.33333 -1.53998,1.33333 -0.18333,0 0.20966,-0.6 0.87332,-1.33333 z M 347,320.00001 c 0.66366,-0.73333 1.35665,-1.33333 1.53998,-1.33333 0.18334,0 -0.20966,0.6 -0.87331,1.33333 -0.66366,0.73333 -1.35665,1.33333 -1.53999,1.33333 -0.18333,0 0.20966,-0.6 0.87332,-1.33333 z M 79.640689,319.83334 c -0.174606,-0.45833 -0.238819,-32.93333 -0.142696,-72.16667 l 0.174769,-71.33333 0.163619,71.83333 L 80,320.00001 h 34.14994 34.14993 l 4.6834,-4.5 4.6834,-4.5 -4.64879,4.83333 -4.64879,4.83334 h -34.20547 c -26.750613,0 -34.274656,-0.18162 -34.522931,-0.83334 z m 415.189621,-72 0.16365,-72.16667 0.17267,71.82734 0.17268,71.82734 34.49701,0.17879 34.49701,0.1788 -34.83333,0.16053 -34.83333,0.16054 z m -143.49698,68.62473 c 0,-0.11473 0.975,-1.08973 2.16667,-2.16667 l 2.16667,-1.95806 -1.95806,2.16667 c -1.82519,2.01964 -2.37528,2.4731 -2.37528,1.95806 z m 7,-1.7914 c 0.66366,-0.73333 1.35665,-1.33333 1.53999,-1.33333 0.18333,0 -0.20966,0.6 -0.87332,1.33333 -0.66366,0.73334 -1.35665,1.33334 -1.53998,1.33334 -0.18334,0 0.20966,-0.6 0.87331,-1.33334 z m 215.33334,-5.33333 c 3.28471,-3.3 6.1222,-6 6.30553,-6 0.18333,0 -2.35416,2.7 -5.63887,6 -3.28471,3.3 -6.1222,6 -6.30553,6 -0.18333,0 2.35416,-2.7 5.63887,-6 z M 271.44954,311.79037 270,310.24741 V 239.12371 168 h 20.33333 20.33334 l 0.10154,6.83334 c 0.0558,3.75833 0.17124,7.13333 0.25643,7.5 0.0852,0.36666 0.1895,2.02738 0.23179,3.69047 0.0649,2.55374 0.28418,3.02381 1.41024,3.02381 0.73333,0 1.33333,-0.25062 1.33333,-0.55693 0,-0.30632 0.4786,-0.2891 1.06356,0.0383 1.50758,0.84369 4.14573,0.19749 4.49056,-1.09993 0.16017,-0.60263 0.32601,3.90478 0.36855,10.01646 0.0425,6.11168 0.26073,11.59008 0.48489,12.17423 0.27556,0.71808 0.11361,0.95064 -0.5,0.71801 C 319.05621,210.015 314.88142,209.5492 311.5,209.3997 L 310,209.3334 V 189 168.66667 h -19.66667 -19.66666 v 70.79037 70.79037 l 1.44954,1.54296 c 0.79725,0.84864 1.29954,1.54297 1.11621,1.54297 -0.18333,0 -0.98563,-0.69433 -1.78288,-1.54297 z m -102.41246,-1.83261 c 1.44627,-1.67324 2.76488,-2.93794 2.93024,-2.81046 0.16536,0.12749 -1.01795,1.4965 -2.62959,3.04225 l -2.93023,2.81046 z m 416.29625,1.04225 c 0.86117,-0.91667 1.71576,-1.66667 1.89909,-1.66667 0.18333,0 -0.37126,0.75 -1.23242,1.66667 -0.86116,0.91666 -1.71575,1.66666 -1.89909,1.66666 -0.18333,0 0.37126,-0.75 1.23242,-1.66666 z m -375.02624,-2.5 c -0.17475,-0.45834 -0.23874,-28.28334 -0.14219,-61.83334 l 0.17554,-61 0.16311,61.49077 0.16312,61.49076 21.5,0.18547 21.5,0.18547 -21.52093,0.1571 c -16.71995,0.12205 -21.5918,-0.0288 -21.83865,-0.67623 z m 377.30042,-15.16667 c 0,-6.41667 0.1,-9.04167 0.2222,-5.83333 0.12221,3.20833 0.12221,8.45833 0,11.66666 -0.12221,3.20834 -0.2222,0.58334 -0.2222,-5.83333 z M 164.15586,285.36982 164,266.4063 l -1.81813,-2.03648 -1.81812,-2.03648 2.16208,2.02345 2.16209,2.02344 -0.1881,18.97656 -0.1881,18.97655 z m 52.15456,-19.03648 c 1.1e-4,-19.43333 0.0853,-27.28723 0.1892,-17.45309 0.10395,9.83413 0.10386,25.73413 -2e-4,35.33333 -0.10406,9.5992 -0.18911,1.55309 -0.189,-17.88024 z m 101.85288,33.8415 13.16331,-0.203 0.17513,-63.48592 0.17513,-63.48592 -0.005,63.66667 -0.005,63.66667 -13.33334,0.0222 L 305,300.37784 Z m -217.20649,-3.04698 c -0.18407,-0.47968 -0.24802,-4.45468 -0.1421,-8.83333 l 0.19256,-7.96119 0.3297,8.8345 c 0.18133,4.85898 0.24528,8.83398 0.14211,8.83334 -0.10318,-6.5e-4 -0.3382,-0.39364 -0.52227,-0.87332 z m 3.55096,0.40064 c 0.82928,-0.15946 2.02928,-0.15341 2.66667,0.0134 0.63739,0.16687 -0.0411,0.29734 -1.50777,0.28994 -1.46667,-0.007 -1.98817,-0.14393 -1.1589,-0.30339 z m 7.0014,-0.007 c 1.01337,-0.15324 2.51337,-0.14914 3.33333,0.009 0.81996,0.15824 -0.009,0.28362 -1.8425,0.27861 -1.83333,-0.005 -2.50421,-0.13447 -1.49083,-0.28771 z m 9.00845,-0.0106 c 1.56803,-0.14083 3.96803,-0.13885 5.33334,0.004 1.3653,0.14325 0.0824,0.25848 -2.85096,0.25606 -2.93333,-0.002 -4.0504,-0.11963 -2.48238,-0.26046 z m 13.10752,-17.17767 c -3.5e-4,-9.9 0.0924,-14.04294 0.20618,-9.20652 0.11375,4.83641 0.11405,12.93641 6.5e-4,18 -0.1134,5.06358 -0.20647,1.10652 -0.20683,-8.79348 z m 176.53622,-24.83333 0.16137,-40.5 0.17716,40.13871 0.17716,40.13872 5.16148,0.22712 5.16147,0.22712 -5.5,0.13416 -5.5,0.13417 z m 208.79712,22.83333 c -3.6e-4,-9.9 0.0924,-14.04294 0.20617,-9.20652 0.11376,4.83641 0.11405,12.93641 6.5e-4,18 -0.11339,5.06358 -0.20646,1.10652 -0.20682,-8.79348 z m 32,0 c -3.6e-4,-9.9 0.0924,-14.04294 0.20617,-9.20652 0.11376,4.83641 0.11405,12.93641 6.5e-4,18 -0.11339,5.06358 -0.20646,1.10652 -0.20682,-8.79348 z M 17.777778,288.8889 c -0.244445,-0.24445 -0.379245,-27.16945 -0.299557,-59.83334 0.07969,-32.66389 0.238652,-55.56389 0.353252,-50.88889 0.120226,4.90452 0.481936,8.5 0.855112,8.5 0.355711,0 0.681549,0.825 0.724083,1.83333 0.04253,1.00834 0.199731,1.38334 0.349327,0.83334 0.278672,-1.02456 4.468659,-1.08228 36.058633,-0.49678 L 64.637256,189 l 0.3526,-2.66666 c 0.19393,-1.46667 0.445052,-4.31667 0.55805,-6.33334 0.112998,-2.01666 0.260946,21.75834 0.328772,52.83334 L 66,289.33334 H 42.111111 c -13.138889,0 -24.088889,-0.2 -24.333333,-0.44444 z M 545.60878,277.66667 c 7e-4,-6.6 0.10047,-9.20982 0.22171,-5.79961 0.12124,3.41021 0.12067,8.81021 -0.001,12 -0.12194,3.18979 -0.22113,0.39961 -0.22044,-6.20039 z M 592.5,275.46588 588,274.38613 v -4.23689 c 0,-4.89729 -0.55628,-6.19137 -3.89454,-9.05984 -3.65532,-3.14091 -12.41079,-11.34849 -12.63793,-11.84708 -0.10952,-0.24041 2.97428,-3.69328 6.8529,-7.67305 l 7.05202,-7.23593 -0.35289,-2.92638 c -0.19409,-1.60951 -0.35289,-10.99804 -0.35289,-20.8634 v -17.93701 l -5.48933,-5.13661 c -8.2499,-7.71978 -13.35722,-12.77349 -9.98367,-9.87888 1.57318,1.34984 3.19453,2.24771 3.603,1.99526 0.41233,-0.25483 0.55773,-0.15974 0.32688,0.21377 -0.41391,0.66972 2.57986,3.95711 3.43016,3.76658 0.24546,-0.055 0.37129,0.17 0.27962,0.5 -0.23986,0.8635 0.74499,0.73823 1.83452,-0.23333 0.79502,-0.70894 0.80273,-0.65918 0.0517,0.33333 -0.95051,1.25614 -0.16216,1.5976 1.14156,0.49445 0.43695,-0.36973 0.64955,-0.47233 0.47245,-0.22801 -0.17709,0.24432 0.0504,0.90441 0.50556,1.46686 0.67555,0.83481 0.6586,0.92087 -0.0923,0.46854 -0.6395,-0.38523 -0.81728,-0.27185 -0.58334,0.37203 0.18507,0.50937 0.69629,0.8437 1.13604,0.74295 0.43976,-0.10075 0.62898,0.0928 0.4205,0.43014 -0.20848,0.33733 0.10262,0.79817 0.69134,1.02408 0.77612,0.29782 0.96045,0.12423 0.67047,-0.63144 -0.24401,-0.63587 -0.12527,-0.87244 0.30456,-0.60679 0.38746,0.23947 0.54713,0.84544 0.35481,1.34661 -0.19231,0.50117 -0.0553,1.09312 0.3044,1.31545 0.35974,0.22233 0.57164,0.007 0.47089,-0.47865 -0.14919,-0.71902 4.0857,-0.88529 22.81681,-0.89586 12.65,-0.007 23.35082,-0.2349 23.77959,-0.50613 0.42877,-0.27123 1.26806,-0.005 1.86508,0.59234 0.59702,0.59702 1.29621,0.87556 1.55375,0.61897 0.25754,-0.25659 0.63973,-4.41731 0.84931,-9.24603 0.20959,-4.82873 0.35959,14.77049 0.33334,43.55383 l -0.0477,52.33333 -19.33334,0.10615 c -15.79524,0.0867 -20.15685,-0.0914 -23.83333,-0.97361 z m -174.66667,-7.29721 c 4.49167,-0.11533 11.84167,-0.11533 16.33334,0 4.49166,0.11534 0.81666,0.20971 -8.16667,0.20971 -8.98333,0 -12.65833,-0.0944 -8.16667,-0.20971 z m 160.11621,-3.33533 -1.61621,-1.83333 1.83334,1.61621 c 1.00833,0.88891 1.83333,1.71391 1.83333,1.83333 0,0.52285 -0.53987,0.0973 -2.05046,-1.61621 z m -119.31876,-2 -2.29745,-2.5 2.5,2.29744 c 2.32695,2.13842 2.80653,2.70256 2.29745,2.70256 -0.11141,0 -1.23641,-1.125 -2.5,-2.5 z m 4.97255,-1.66667 -1.27,-1.5 1.5,1.27 c 0.825,0.69849 1.5,1.37349 1.5,1.5 0,0.5335 -0.53653,0.13963 -1.73,-1.27 z m 107.02745,-3 -2.29745,-2.5 2.5,2.29745 c 2.32695,2.13841 2.80653,2.70255 2.29745,2.70255 -0.11141,0 -1.23641,-1.125 -2.5,-2.5 z m -410.20344,-3.63942 c -3.16837,-2.91742 -5.76067,-5.5655 -5.76067,-5.88464 0,-0.31913 3.13965,-3.81927 6.97699,-7.77809 l 6.977,-7.19785 0.023,-20.48627 0.023,-20.48627 -3.16667,-2.84692 c -7.68744,-6.91121 -11.61152,-10.95832 -10.6252,-10.95832 0.57812,0 0.99279,0.31137 0.9215,0.69192 -0.0713,0.38056 0.32037,0.70556 0.87037,0.72223 0.55,0.0167 1.01363,0.4803 1.0303,1.0303 0.0167,0.55 0.41397,0.91757 0.88289,0.81681 0.51029,-0.10964 0.65495,0.13659 0.36033,0.6133 -0.33867,0.54798 -0.13533,0.65951 0.65174,0.35748 0.62919,-0.24144 1.01795,-0.21742 0.86391,0.0534 -0.15404,0.2708 0.43038,1.17794 1.29871,2.01588 0.86833,0.83793 1.58832,1.28793 1.59999,1 0.0117,-0.28794 0.43772,0.0261 0.94681,0.69783 0.50908,0.67174 1.62454,1.16353 2.47879,1.09287 2.49358,-0.20626 3.32506,-0.0238 2.915,0.63972 -0.21096,0.34133 -0.0323,0.83768 0.39699,1.103 0.48749,0.30128 0.60195,0.19343 0.30486,-0.28727 -0.26162,-0.42332 -0.17997,-0.76967 0.18145,-0.76967 0.36142,0 0.79432,-0.525 0.96201,-1.16667 0.16768,-0.64166 0.3302,14.58334 0.36114,33.83334 l 0.0563,35 -2.88493,1.74916 -2.88492,1.74915 z m 10.23933,-63.45592 c 0,-0.1441 -0.46558,-0.44067 -1.03463,-0.65903 -0.59328,-0.22766 -0.86088,-0.1159 -0.62732,0.26201 0.3915,0.63347 1.66195,0.93696 1.66195,0.39702 z m -2.33806,-2.39702 c 0.23356,-0.37791 -0.034,-0.48967 -0.62732,-0.26201 -1.15494,0.44319 -1.36626,0.92104 -0.4073,0.92104 0.34503,0 0.81061,-0.29657 1.03462,-0.65903 z m -14.03722,68.49236 -1.95806,-2.16666 2.16667,1.95806 c 1.19167,1.07693 2.16667,2.05193 2.16667,2.16666 0,0.51504 -0.55009,0.0616 -2.37528,-1.95806 z m 297.00605,-1 -2.29744,-2.5 2.5,2.29745 c 2.32695,2.13841 2.80652,2.70255 2.29744,2.70255 -0.1114,0 -1.2364,-1.125 -2.5,-2.5 z m 7.03589,-2.83333 c 0.66366,-0.73333 1.35665,-1.33333 1.53999,-1.33333 0.18333,0 -0.20966,0.6 -0.87332,1.33333 -0.66366,0.73333 -1.35665,1.33333 -1.53998,1.33333 -0.18334,0 0.20966,-0.6 0.87331,-1.33333 z m 104.94955,-1.83333 -1.61621,-1.83334 1.83333,1.61621 c 1.71353,1.51059 2.13906,2.05046 1.61621,2.05046 -0.11942,0 -0.94442,-0.825 -1.83333,-1.83333 z m -416.2986,-0.84975 -1.93185,-2.01641 2.96274,-2.81692 2.96273,-2.81692 -2.61891,2.82787 -2.61892,2.82786 1.92136,2.00547 c 1.05675,1.103 1.77136,2.00546 1.58802,2.00546 -0.18333,0 -1.20266,-0.90738 -2.26517,-2.01641 z M 458,245.08164 c 0,-0.13844 0.525,-0.66344 1.16667,-1.16667 1.05737,-0.82925 1.08095,-0.80567 0.2517,0.2517 -0.87091,1.1105 -1.41837,1.46366 -1.41837,0.91497 z m -48.37486,-18.08163 c -3.5e-4,-9.9 0.0924,-14.04294 0.20618,-9.20653 0.11375,4.83641 0.11405,12.93641 6.5e-4,18 -0.1134,5.06359 -0.20647,1.10653 -0.20683,-8.79347 z m 32,0 c -3.5e-4,-9.9 0.0924,-14.04294 0.20618,-9.20653 0.11375,4.83641 0.11405,12.93641 6.5e-4,18 -0.1134,5.06359 -0.20647,1.10653 -0.20683,-8.79347 z m 128.70819,11 c 3.28471,-3.3 6.1222,-6 6.30554,-6 0.18333,0 -2.35416,2.7 -5.63887,6 -3.28471,3.3 -6.1222,6 -6.30553,6 -0.18334,0 2.35415,-2.7 5.63886,-6 z m -94,3.71642 -4.66666,-1.47865 v -21.1623 -21.1623 l -8.33334,-9.05319 c -4.58333,-4.97926 -9.33465,-10.28472 -10.55849,-11.78992 -1.22385,-1.5052 -0.52482,-0.93673 1.55338,1.26327 2.0782,2.2 4.12952,4.01363 4.5585,4.0303 0.42897,0.0167 0.75487,0.31667 0.72423,0.66667 -0.0306,0.35 0.64435,1.30064 1.5,2.11254 0.85564,0.8119 1.55572,1.32017 1.55572,1.12949 0,-0.19068 0.72913,0.49504 1.62029,1.52382 1.30021,1.50101 1.78748,1.70589 2.46666,1.03718 1.10447,-1.08745 1.96108,-1.06756 1.53772,0.0357 -0.27113,0.70655 0.82258,0.73771 5.84952,0.16667 6.12354,-0.69562 6.18709,-0.7216 6.60886,-2.70237 0.23422,-1.1 0.46135,11.275 0.50474,27.5 0.0434,16.225 0.004,29.46889 -0.0878,29.43087 -0.0917,-0.038 -2.26667,-0.73452 -4.83334,-1.54778 z m -7.66666,-50.07924 c 0,-0.0773 -0.4,-0.47256 -0.88889,-0.8783 -0.66424,-0.55128 -0.88889,-0.51574 -0.88889,0.14059 0,0.48307 0.4,0.8783 0.88889,0.8783 0.48889,0 0.88889,-0.0633 0.88889,-0.14059 z M 463,240.00001 c 1.43216,-1.46667 2.75393,-2.66667 2.93726,-2.66667 0.18334,0 -0.83843,1.2 -2.27059,2.66667 -1.43217,1.46666 -2.75393,2.66666 -2.93727,2.66666 -0.18333,0 0.83844,-1.2 2.2706,-2.66666 z m -352.12786,-5.1651 c 4.69635,-0.11476 12.19635,-0.11443 16.66667,7.4e-4 4.47032,0.11517 0.62786,0.20906 -8.53881,0.20865 -9.16667,-4e-4 -12.8242,-0.0946 -8.12786,-0.20939 z M 159.83333,233.3016 162,230.93653 v -17.93652 -17.93653 l -2.16667,-2.36507 -2.16666,-2.36507 2.5,2.29744 2.5,2.29745 v 18.07178 18.07177 l -2.5,2.29745 -2.5,2.29744 z m 359.12515,-15.63493 c -3.6e-4,-9.9 0.0924,-14.04293 0.20617,-9.20652 0.11376,4.83641 0.11405,12.93641 6.5e-4,18 -0.11339,5.06359 -0.20646,1.10652 -0.20682,-8.79348 z m 32,0 c -3.6e-4,-9.9 0.0924,-14.04293 0.20617,-9.20652 0.11376,4.83641 0.11405,12.93641 6.5e-4,18 -0.11339,5.06359 -0.20646,1.10652 -0.20682,-8.79348 z M 426,232.47167 c -1.65,-0.29495 -4.575,-0.86965 -6.5,-1.27711 l -3.5,-0.74084 v -7.41295 -7.41295 l 6.39147,0.13312 c 3.51531,0.0732 6.52458,0.26623 6.68726,0.42891 0.16269,0.16268 0.21152,4.0133 0.10853,8.55693 L 429,233.00793 Z m 99.77778,-4.24944 c -0.24445,-0.24445 -0.44445,-4.74445 -0.44445,-10 v -9.55556 H 532 h 6.66667 v 10 10 h -6.22223 c -3.42222,0 -6.42222,-0.2 -6.66666,-0.44444 z m 19.831,-11.22222 c 7e-4,-6.6 0.10047,-9.20983 0.22171,-5.79962 0.12124,3.41022 0.12067,8.81022 -0.001,12 -0.12194,3.18979 -0.22113,0.39962 -0.22044,-6.20038 z M 110,218.33334 v -9.66667 h 6 6 v 9.66667 9.66667 h -6 -6 z m 106.35319,7.14469 C 216.15894,224.9718 216,214.08216 216,201.27881 c 0,-21.7058 -0.0788,-23.28236 -1.16667,-23.33144 -0.85945,-0.0388 -0.91865,-0.1507 -0.2248,-0.42506 1.52703,-0.60383 2.62469,1.6115 2.23564,4.51206 -0.23104,1.72259 -0.0923,2.6323 0.40138,2.6323 0.41495,0 0.75445,0.9 0.75445,2 0,1.33333 0.33333,2 1,2 0.55,0 1,-0.45 1,-1 0,-0.55 0.3,-1 0.66667,-1 0.36666,0 0.66666,0.45 0.66666,1 0,1.15022 4.97306,1.41822 6.64907,0.35832 0.61726,-0.39035 1.1334,-0.37696 1.38863,0.036 0.24166,0.39101 6.1227,0.71435 14.51681,0.79815 8.85358,0.0884 14.11748,0.38923 14.12911,0.80752 0.0102,0.36667 0.53003,-0.15833 1.1552,-1.16667 1.30298,-2.10157 2.14026,-2.35436 2.20804,-0.66666 0.0401,0.99762 0.12987,0.97348 0.61981,-0.16667 0.37298,-0.86796 0.58931,1.0144 0.61981,5.39313 0.0258,3.69955 0.24304,12.14256 0.48282,18.76222 l 0.43596,12.03577 -8.17171,0.0981 c -4.49445,0.0539 -10.31563,0.37667 -12.93597,0.71719 -2.62033,0.34052 -7.46424,0.6438 -10.76424,0.67395 -3.3,0.0301 -8.01607,0.27906 -10.48014,0.55313 -3.53967,0.39371 -4.55429,0.3051 -4.83334,-0.42209 z M 367.5,220.35802 l -4.16667,-1.32963 0.0975,-25.01419 c 0.0862,-22.13 0.16653,-23.90259 0.69633,-15.37342 0.32937,5.30243 0.69539,9.73731 0.81338,9.8553 0.11799,0.11799 1.07964,0.27964 2.137,0.35922 1.88235,0.14168 1.92645,0.0684 2.11264,-3.51212 0.10458,-2.01125 0.50293,-3.96125 0.88521,-4.33333 0.4808,-0.46798 0.55786,0.0706 0.24997,1.74714 -0.29879,1.62703 -0.17432,2.59099 0.37868,2.93277 0.61804,0.38197 0.70446,0.0264 0.34603,-1.42365 -0.34287,-1.38717 -0.27328,-1.73223 0.24653,-1.22235 0.49608,0.4866 0.66848,6.68615 0.54718,19.67716 l -0.17709,18.96673 z m 98.09996,-10.02468 c 9.3e-4,-5.5 0.10419,-7.66129 0.22946,-4.80286 0.12527,2.85842 0.12451,7.35842 -0.002,10 -0.1262,2.64157 -0.22869,0.30286 -0.22776,-5.19714 z m -362.93422,-10.5 c 5.1e-4,-0.275 7.42593,-0.43831 16.50093,-0.36291 16.52784,0.13732 14.62057,0.36996 -5.66759,0.6913 -5.95884,0.0944 -10.83384,-0.0534 -10.83334,-0.32839 z m 472.95899,-6.66667 -1.95806,-2.16666 2.16666,1.95806 C 577.025,194.035 578,195.01 578,195.12473 c 0,0.51504 -0.55009,0.0616 -2.37527,-1.95806 z m -7.66062,-7 -2.29744,-2.5 2.5,2.29745 c 2.32694,2.13841 2.80652,2.70255 2.29744,2.70255 -0.1114,0 -1.2364,-1.125 -2.5,-2.5 z m 17.73103,1.8794 c -0.21096,-0.34133 -0.12866,-0.77813 0.18287,-0.97067 0.31154,-0.19254 0.56643,0.0867 0.56643,0.6206 0,1.12411 -0.21022,1.22233 -0.7493,0.35007 z m -121.34368,-0.5835 C 463.9289,187.04002 464.60435,186 465.30135,186 c 0.3058,0 0.70949,0.4 0.8971,0.88889 0.31711,0.8264 -1.14129,1.27938 -1.84699,0.57368 z M 151.62473,185.16667 149.66667,183 l 2.16666,1.95807 C 153.025,186.035 154,187.01 154,187.12473 c 0,0.51504 -0.55009,0.0616 -2.37527,-1.95806 z m -7.67519,-7 -1.61621,-1.83333 1.83334,1.61621 c 1.71352,1.51059 2.13906,2.05045 1.61621,2.05045 -0.11942,0 -0.94442,-0.825 -1.83334,-1.83333 z m 415.33334,0 -1.61621,-1.83333 1.83333,1.61621 c 1.00833,0.88891 1.83333,1.71391 1.83333,1.83333 0,0.52285 -0.53986,0.0973 -2.05045,-1.61621 z m -409.64127,-3 -3.30828,-3.5 3.5,3.30827 c 3.25227,3.07411 3.80574,3.69173 3.30828,3.69173 -0.10545,0 -1.68045,-1.575 -3.5,-3.5 z m 40.22996,2.33503 c 4.51269,-0.11551 11.71269,-0.11515 16,7.9e-4 4.2873,0.11594 0.5951,0.21045 -8.2049,0.21001 -8.8,-4.3e-4 -12.3078,-0.0953 -7.7951,-0.2108 z M 73.385965,176.27778 c 0.03199,-0.77663 0.18996,-0.9346 0.402778,-0.40278 0.19258,0.48125 0.168896,1.05625 -0.05263,1.27778 -0.221528,0.22153 -0.379093,-0.17222 -0.350146,-0.875 z m 209.484985,-3.44261 c 4.32902,-0.11631 11.22902,-0.11592 15.33333,8.5e-4 4.10431,0.11677 0.56239,0.21193 -7.87095,0.21146 -8.43333,-4.7e-4 -11.7914,-0.096 -7.46238,-0.21231 z m 278.46803,-1.82934 -2.2559,-2.3275 -35.04154,-0.17852 L 489,168.3213 524.03137,168.16065 559.06274,168 l 2.60393,2.66667 c 1.43216,1.46667 2.45189,2.66667 2.26607,2.66667 -0.18582,0 -1.35301,-1.04738 -2.59376,-2.32751 z M 488.79663,171 c 0.0136,-1.1 0.163,-1.46929 0.33203,-0.82064 0.16903,0.64864 0.15791,1.54864 -0.0247,2 -0.18262,0.45135 -0.32091,-0.0794 -0.30733,-1.17936 z m -344.49071,-0.37768 c -0.71751,-1.16096 0.0997,-1.40683 1.01404,-0.30509 0.52584,0.63359 0.57641,1.01611 0.13435,1.01611 -0.38993,0 -0.9067,-0.31996 -1.14839,-0.71102 z m -70.962378,-0.78898 c -0.0096,-1.09851 2.044344,-1.15729 35.156458,-1.00613 l 35.16667,0.16053 -34.63108,0.17887 c -26.682613,0.13781 -34.751655,0.36874 -35.156454,1.00613 -0.371712,0.58529 -0.528372,0.48602 -0.535594,-0.3394 z M 355.5,150.87379 c 0.64167,-0.16769 1.69167,-0.16769 2.33333,0 0.64167,0.16768 0.11667,0.30488 -1.16666,0.30488 -1.28334,0 -1.80834,-0.1372 -1.16667,-0.30488 z m 17.37694,-0.0397 c 6.89898,-0.10844 17.99898,-0.10827 24.66666,3.8e-4 6.66769,0.10865 1.02307,0.19737 -12.5436,0.19717 -13.56667,-2.1e-4 -19.02205,-0.0891 -12.12306,-0.19755 z m -145.41066,-0.66331 c 3.18979,-0.12193 8.58979,-0.12251 12,-0.001 3.41021,0.12124 0.80039,0.22101 -5.79961,0.22171 -6.6,7e-4 -9.39018,-0.0985 -6.20039,-0.22044 z m 18.7244,-4.50411 c 0.005,-1.83333 0.13447,-2.50421 0.28771,-1.49083 0.15323,1.01337 0.14914,2.51337 -0.009,3.33333 -0.15824,0.81996 -0.28362,-0.009 -0.27861,-1.8425 z m 165.14265,-2.04224 2,-0.37557 v -12.6109 -12.61091 L 399.5,117.82556 l -13.83333,-0.20149 14,0.0213 14,0.0213 v 13 13 L 411.5,143.83334 c -2.13606,0.16431 -2.13842,0.16136 -0.16667,-0.20891 z m -112.84402,-0.78998 11.48932,-0.19917 0.18852,-18.15097 0.18852,-18.15097 0.1555,18.5 0.1555,18.5 -11.83334,-0.14986 L 287,143.03363 Z m 24.6218,0.0544 c -0.24444,-0.24444 -0.44444,-9.83358 -0.44444,-21.30919 v -20.86475 l -6.33489,-0.22902 -6.33488,-0.22902 6.50155,0.0382 6.50155,0.0382 0.17603,21.16666 0.17603,21.16667 h 11.65338 11.65339 l 0.17456,-54.166668 0.17456,-54.166668 0.16269,54.500002 0.16269,54.500004 h -11.88889 c -6.53888,0 -12.08888,-0.2 -12.33333,-0.44445 z M 252.31349,98.333336 c -8e-5,-22.733334 0.0837,-32.129966 0.18608,-20.881405 0.10242,11.248561 0.10249,29.848559 1.5e-4,41.333339 -0.10235,11.48477 -0.18615,2.2814 -0.18623,-20.451934 z M 306.29791,118 c 0,-11.91666 0.0904,-16.79166 0.20089,-10.83333 0.11049,5.95833 0.11049,15.70833 0,21.66667 -0.11049,5.95833 -0.20089,1.08333 -0.20089,-10.83334 z m 20.66667,0 c 0,-11.91666 0.0904,-16.79166 0.20089,-10.83333 0.11049,5.95833 0.11049,15.70833 0,21.66667 -0.11049,5.95833 -0.20089,1.08333 -0.20089,-10.83334 z m 15.8645,-29.499998 -0.16241,-51.166668 h -7.65717 -7.65717 l -0.19065,20.666881 -0.19064,20.66688 0.0145,-20.833547 0.0145,-20.833547 7.8461,-0.187934 c 5.90628,-0.14147 7.92675,0.02335 8.17236,0.666667 0.17944,0.47003 0.24678,23.654601 0.14965,51.521268 l -0.17662,50.666668 z m -95.16999,7.666725 0.008,-41.833392 2.50577,-0.0699 2.50576,-0.0699 -2.3341,0.276509 -2.33411,0.276509 -0.17924,41.626779 -0.17923,41.626778 z M 382.27672,110 c 0,-6.78333 0.099,-9.55833 0.21999,-6.16666 0.121,3.39166 0.121,8.94166 0,12.33333 -0.12099,3.39167 -0.21999,0.61667 -0.21999,-6.16667 z M 636.24349,99.666669 c 0.002,-3.666666 0.11369,-5.08161 0.24878,-3.144319 0.13509,1.937292 0.13367,4.93729 -0.003,6.66667 -0.13683,1.72937 -0.24736,0.14432 -0.24562,-3.522351 z m -224.92441,2.625491 1.98575,-0.37451 0.20309,-12.625996 0.2031,-12.625997 -0.0222,12.833839 -0.0222,12.833844 L 411.5,102.5 c -2.10975,0.16229 -2.1145,0.15683 -0.18092,-0.20784 z M 636.12997,87.000002 c 0.0136,-1.1 0.16299,-1.46929 0.33202,-0.820645 0.16903,0.648645 0.15792,1.548645 -0.0247,2 -0.18261,0.451355 -0.32091,-0.07935 -0.30732,-1.179355 z M 382.29644,79.144257 c -0.18061,-0.470661 -0.24619,-6.245661 -0.14574,-12.833334 l 0.18263,-11.977588 14,-0.0213 14,-0.0213 -13.83333,0.201494 -13.83333,0.201493 v 12.306283 12.306282 l 13.83333,0.194478 13.83333,0.194478 -13.85425,0.152381 C 385.70551,79.966121 382.5518,79.809714 382.29644,79.14426 Z M 306.15652,58.185481 306,37.37096 l -9.16667,-0.205915 -9.16666,-0.205916 9.18759,-0.146231 c 6.88537,-0.109588 9.26838,0.06431 9.51001,0.693993 0.17733,0.462122 0.23835,9.987122 0.1356,21.166667 l -0.18683,20.326444 z m 4.14091,-3.18548 c 2.6e-4,-11.733333 0.091,-16.439441 0.20158,-10.458017 0.1106,5.981424 0.11038,15.581425 -4.9e-4,21.333334 -0.11087,5.75191 -0.20136,0.858017 -0.20109,-10.875317 z m 12.66666,0 c 2.7e-4,-11.733333 0.091,-16.439441 0.20158,-10.458017 0.1106,5.981424 0.11038,15.581425 -4.8e-4,21.333334 -0.11087,5.75191 -0.20136,0.858017 -0.2011,-10.875317 z m 313.16588,11.333334 c 0.0136,-1.1 0.16299,-1.46929 0.33202,-0.820645 0.16903,0.648645 0.15792,1.548645 -0.0247,2 -0.18261,0.451355 -0.32091,-0.07936 -0.30732,-1.179355 z m 0.1693,-24.666667 c 2.4e-4,-12.466667 0.0902,-17.472461 0.19984,-11.123987 0.10968,6.348475 0.10948,16.548475 -4.3e-4,22.666668 -0.10992,6.118192 -0.19965,0.923986 -0.19941,-11.542681 z m -222.68805,4.666667 c 6.4e-4,-6.966667 0.0994,-9.726085 0.21953,-6.13204 0.1201,3.594045 0.11958,9.294046 -0.001,12.666667 -0.12074,3.372622 -0.21901,0.432039 -0.21837,-6.534627 z m -203.46633,-0.833334 0.14489,-9.166667 0.20941,8.64028 c 0.14214,5.864789 0.47036,8.80609 1.02178,9.156458 0.56231,0.357297 0.45326,0.519321 -0.3543,0.526388 -1.062,0.0093 -1.15367,-0.812196 -1.02178,-9.156459 z m 6.04189,8.675819 c 1.75273,-0.137784 4.45273,-0.136122 6,0.0037 1.54727,0.139816 0.11322,0.252549 -3.18678,0.250517 -3.3,-0.002 -4.56595,-0.116426 -2.81322,-0.254211 z m 12.97989,0.02036 c 0.825,-0.158902 2.175,-0.158902 3,0 0.825,0.158902 0.15,0.288913 -1.5,0.288913 -1.65,0 -2.325,-0.130011 -1.5,-0.288913 z m 31,-0.007 c 1.00833,-0.15275 2.65833,-0.15275 3.66666,0 1.00834,0.15275 0.18334,0.277727 -1.83333,0.277727 -2.01667,0 -2.84167,-0.124977 -1.83333,-0.277727 z m 109,-16.686418 c 3.75833,-0.118831 9.90833,-0.118831 13.66666,0 3.75834,0.118832 0.68334,0.216057 -6.83333,0.216057 -7.51667,0 -10.59167,-0.09723 -6.83333,-0.216057 z m -8.98732,-4.631407 c 0.64865,-0.169029 1.54865,-0.157912 2,0.0247 0.45136,0.182615 -0.0793,0.320912 -1.17935,0.307325 -1.1,-0.01359 -1.46929,-0.162999 -0.82065,-0.332028 z M 172.55449,17.500006 c 85.1883,-0.09323 224.3883,-0.09322 309.33333,3e-6 84.94503,0.09323 15.24551,0.169501 -154.88782,0.1695 -170.13333,-2e-6 -239.633813,-0.07628 -154.44551,-0.169503 z M 0.13569864,1.2594638 C 0.39530154,0.48056521 9.4382451,0.30623477 57.018395,0.16287557 94.682235,0.04939426 113.81892,0.218925 114.27006,0.67006455 114.72915,1.1291491 96.612714,1.3406802 58.100502,1.3259116 26.834537,1.3139217 0.93238231,1.5024454 0.54015844,1.7448531 0.12712943,2.0001191 -0.04307768,1.7958548 0.13569864,1.2594638 Z M 253.66667,0.66666668 c 0.56959,-0.92161415 158.09707,-0.92161415 158.66666,0 C 412.60714,1.1096919 385.99381,1.3333334 333,1.3333334 c -52.99381,0 -79.60714,-0.2236415 -79.33333,-0.66666672 z m 301,0 C 554.66667,0.22831051 571.33333,0 603.33333,0 635.33333,0 652,0.22831051 652,0.66666668 652,1.1050229 635.33333,1.3333334 603.33333,1.3333334 c -32,0 -48.66666,-0.2283105 -48.66666,-0.66666672 z"
         id="path8" />
      <path
         style="fill:#51a1e8"
         d="m 564,319.12474 c 0,-0.11474 0.975,-1.08974 2.16667,-2.16667 l 2.16666,-1.95806 -1.95806,2.16667 C 564.55009,319.18631 564,319.63978 564,319.12474 Z M 159,308.66667 c 0.66366,-0.73333 1.35665,-1.33333 1.53998,-1.33333 0.18334,0 -0.20966,0.6 -0.87331,1.33333 -0.66366,0.73334 -1.35665,1.33334 -1.53999,1.33334 -0.18333,0 0.20966,-0.6 0.87332,-1.33334 z m 3.33333,-3.33333 c 0.66366,-0.73333 1.35665,-1.33333 1.53999,-1.33333 0.18333,0 -0.20966,0.6 -0.87332,1.33333 -0.66366,0.73333 -1.35665,1.33333 -1.53998,1.33333 -0.18334,0 0.20966,-0.6 0.87331,-1.33333 z m 384.83334,-9.13715 c 0.825,-0.15891 2.175,-0.15891 3,0 0.825,0.1589 0.15,0.28891 -1.5,0.28891 -1.65,0 -2.325,-0.13001 -1.5,-0.28891 z M 100.91604,273.66667 c 0.002,-4.03333 0.11131,-5.59738 0.24401,-3.47565 0.1327,2.12172 0.13147,5.42172 -0.003,7.33333 -0.13421,1.91161 -0.24278,0.17566 -0.24128,-3.85768 z m 360.99892,-7.5 c -0.82924,-1.05737 -0.80566,-1.08095 0.25171,-0.2517 1.1105,0.87091 1.46365,1.41837 0.91496,1.41837 -0.13844,0 -0.66344,-0.525 -1.16667,-1.16667 z m -304.66666,-6 c -0.82925,-1.05737 -0.80567,-1.08095 0.2517,-0.2517 0.64167,0.50323 1.16667,1.02823 1.16667,1.16667 0,0.54869 -0.54746,0.19553 -1.41837,-0.91497 z m 291.41837,-6.41837 c 0,-0.13843 0.525,-0.66343 1.16666,-1.16666 1.05737,-0.82925 1.08095,-0.80567 0.25171,0.2517 -0.87092,1.1105 -1.41837,1.46365 -1.41837,0.91496 z m 114,-8 c 0,-0.13843 0.525,-0.66343 1.16666,-1.16666 1.05737,-0.82925 1.08095,-0.80567 0.25171,0.2517 -0.87092,1.1105 -1.41837,1.46365 -1.41837,0.91496 z m -124.82556,-0.88647 c 0.82927,-0.15946 2.02927,-0.15341 2.66666,0.0135 0.63739,0.16686 -0.0411,0.29733 -1.50777,0.28993 -1.46667,-0.007 -1.98817,-0.14393 -1.15889,-0.30339 z M 153.33333,239.7483 c 0,-0.13843 0.525,-0.66343 1.16667,-1.16666 1.05737,-0.82925 1.08095,-0.80567 0.2517,0.2517 -0.87091,1.1105 -1.41837,1.46365 -1.41837,0.91496 z m 393.84111,-4.2198 c 0.82927,-0.15946 2.02927,-0.15341 2.66667,0.0135 0.63739,0.16686 -0.0411,0.29733 -1.50778,0.28993 -1.46666,-0.007 -1.98817,-0.14392 -1.15889,-0.30338 z M 465.4386,221.33334 c 0,-0.91667 0.15131,-1.29167 0.33625,-0.83333 0.18495,0.45833 0.18495,1.20833 0,1.66666 -0.18494,0.45834 -0.33625,0.0833 -0.33625,-0.83333 z M 421.5,215.5225 c 1.00833,-0.15275 2.65833,-0.15275 3.66667,0 1.00833,0.15275 0.18333,0.27773 -1.83334,0.27773 -2.01666,0 -2.84166,-0.12498 -1.83333,-0.27773 z M 319.92267,197.50001 c -0.0425,-6.14167 -0.20838,-10.67362 -0.36855,-10.07099 -0.34483,1.29742 -2.98298,1.94362 -4.49056,1.09993 C 314.4786,188.20159 314,188.18437 314,188.49069 c 0,0.30631 -0.6,0.55693 -1.33333,0.55693 -1.12606,0 -1.34529,-0.47007 -1.41024,-3.02381 -0.0423,-1.66309 -0.1466,-3.32381 -0.23179,-3.69047 -0.0852,-0.36667 -0.20058,-3.74167 -0.25643,-7.5 L 310.66667,168 H 290.33333 270 v 4 4 h -3.33333 -3.33334 l -0.14153,16.16667 c -0.14023,16.01752 -0.14484,16.06519 -0.5,5.16667 -0.19716,-6.05 -0.54867,-10.4 -0.78113,-9.66667 -0.35351,1.11517 -0.43532,1.14244 -0.5,0.16667 -0.11152,-1.68229 -0.93404,-1.43733 -2.23852,0.66666 -0.62517,1.00834 -1.14501,1.53334 -1.1552,1.16667 -0.0116,-0.41829 -5.27553,-0.71914 -14.12911,-0.80752 -8.39411,-0.0838 -14.27515,-0.40714 -14.51681,-0.79815 -0.25523,-0.41297 -0.77137,-0.42636 -1.38863,-0.036 -1.67601,1.0599 -6.64907,0.7919 -6.64907,-0.35832 0,-0.55 -0.3,-1 -0.66666,-1 -0.36667,0 -0.66667,0.45 -0.66667,1 0,0.55 -0.45,1 -1,1 -0.66667,0 -1,-0.66667 -1,-2 0,-1.1 -0.3395,-2 -0.75445,-2 -0.48991,0 -0.63423,-0.89623 -0.4116,-2.55607 0.65457,-4.88018 1.21847,-4.73606 -18.51206,-4.73129 -16.9002,0.004 -17.66468,0.0593 -18.3427,1.32625 -0.38914,0.7271 -0.52428,1.61848 -0.30032,1.98085 0.22396,0.36237 0.21761,1.25617 -0.0141,1.98623 -0.35328,1.11309 -1.01228,1.32736 -4.08237,1.32736 -2.74019,0 -3.54046,-0.20961 -3.18153,-0.83333 0.26921,-0.46781 0.22091,-0.59719 -0.11012,-0.29497 -0.32433,0.29609 -0.65175,1.6392 -0.7276,2.98468 -0.0759,1.34548 -0.46046,2.55384 -0.85469,2.68525 -0.39422,0.13141 -0.51855,0.55965 -0.27627,0.95165 0.26254,0.42481 0.12517,0.51786 -0.34006,0.23033 -0.4293,-0.26532 -0.60795,-0.76167 -0.39699,-1.103 0.41006,-0.6635 -0.42142,-0.84598 -2.915,-0.63972 -0.85425,0.0707 -1.96971,-0.42113 -2.47879,-1.09287 -0.50909,-0.67174 -0.93515,-0.98577 -0.94681,-0.69783 -0.0117,0.28793 -0.73166,-0.16207 -1.59999,-1 -0.86833,-0.83794 -1.42198,-1.79487 -1.23033,-2.12652 0.19165,-0.33166 -0.0223,-0.37389 -0.47539,-0.0939 -0.99992,0.61799 -4.8587,-2.86543 -4.25545,-3.8415 0.2341,-0.37879 0.0775,-0.46052 -0.36204,-0.18888 -0.67853,0.41935 -3.61782,-2.03545 -10.50421,-8.77277 l -1.53319,-1.5 h -35.0303 -35.030307 v 3.34558 3.34558 l -3.393981,-0.12013 c -4.148189,-0.14682 -4.582209,0.40523 -4.59581,5.84564 -0.0056,2.24583 -0.18218,4.94583 -0.392366,6 L 64.569018,189 55.784509,188.83656 c -31.496039,-0.58603 -35.745938,-0.52742 -36.024514,0.49678 -0.149596,0.55 -0.306794,0.2 -0.349327,-0.77778 -0.04253,-0.97778 -0.357555,-1.87778 -0.700045,-2 -0.729043,-0.26017 -0.828266,-6.90926 -0.760783,-50.98148 0.04712,-30.77259 0.120912,-32.75365 1.216827,-32.66667 0.899913,0.0714 1.134637,-0.3647 1.026583,-1.90741 l -0.140082,-1.999997 0.721672,1.911437 c 0.718313,1.90254 0.742235,1.90954 5.140082,1.50534 2.430126,-0.22335 6.168757,-0.15527 8.308068,0.15129 3.03603,0.43506 4.096756,0.35028 4.833333,-0.38629 0.813792,-0.8138 1.094649,-0.79271 2.040555,0.1532 0.603283,0.60328 1.278283,0.84971 1.5,0.54762 0.221717,-0.3021 39.928122,-0.54959 88.236452,-0.54999 77.65372,-6.4e-4 87.83452,0.11526 87.84355,1 0.007,0.71343 0.15587,0.77159 0.51759,0.20258 0.27906,-0.43897 0.87051,-0.57371 1.31434,-0.29942 0.60102,0.37145 0.85172,6.44451 0.9824,23.79815 l 0.17546,23.29942 11.5814,0.18276 c 13.16718,0.20778 13.35884,0.13602 13.39739,-5.0161 l 0.0212,-2.83333 h 3 3 l 0.0877,-14.5 c 0.0838,-13.85714 0.87742,-32.759486 1.14058,-27.16667 0.069,1.46667 0.34587,2.36667 0.61526,2 0.60196,-0.81934 22.11106,-0.91122 23.36763,-0.0998 0.48281,0.31177 0.8142,1.51177 0.73642,2.66666 -0.0778,1.1549 -0.0978,11.77482 -0.0445,23.59982 l 0.0969,21.5 H 291.33333 304 V 147 143.33334 h 3.33333 3.33334 l 0.0833,-17 c 0.0458,-9.35 0.12083,-17.375 0.16667,-17.83334 0.0505,-0.50519 1.32661,-0.91319 3.24071,-1.03615 l 3.15739,-0.20281 0.17595,21.53615 0.17595,21.53615 12.83333,0.18106 12.83333,0.18106 v -3.68106 c 0,-3.64563 0.0193,-3.68106 2,-3.68106 h 2 v -22.43666 c 0,-22.394433 0.003,-22.43439 1.33334,-21.230011 0.73333,0.663661 1.36882,1.685151 1.41221,2.269991 0.0434,0.58484 0.30788,0.16334 0.58779,-0.93666 0.50642,-1.990195 0.5093,-1.991279 0.58779,-0.22119 0.0434,0.97835 0.29564,2.32835 0.56058,3 0.39687,1.00614 0.55052,0.86899 0.87251,-0.77881 0.21495,-1.1 0.55252,8.97976 0.75016,22.39947 0.19763,13.41971 0.56063,24.72517 0.80665,25.12324 0.31205,0.50491 8.75906,0.6865 27.93481,0.60053 L 409.66667,151 l 0.20008,-3.45894 c 0.18529,-3.20328 0.33312,-3.4743 2,-3.66667 l 1.79992,-0.20772 v -13 -13 l -13.44148,-0.18028 -13.44147,-0.18029 -0.22519,-4.02155 c -0.26899,-4.80361 0.0549,-5.90838 1.57161,-5.35991 1.42158,0.51409 20.94485,-0.1069 21.52025,-0.68451 0.2337,-0.23459 0.50844,-1.21007 0.61055,-2.16773 0.24774,-2.32367 1.02475,-2.9918 1.82219,-1.56684 0.79115,1.41371 1.6474,1.49158 2.14493,0.19506 0.2603,-0.67834 0.0504,-0.84315 -0.70471,-0.55337 -0.71628,0.27486 -0.91444,0.15221 -0.59337,-0.36729 0.26512,-0.42898 0.88625,-0.77996 1.38028,-0.77996 0.59651,0 0.77417,-0.50388 0.52889,-1.5 -0.21427,-0.870175 -0.11808,-1.26673 0.22908,-0.944442 0.32914,0.305556 0.63594,0.830552 0.68177,1.166662 0.0458,0.33612 0.12084,0.83612 0.16668,1.11112 0.0458,0.275 49.2723,0.5 109.39214,0.5 108.78159,0 109.30999,-0.006 109.55708,-1.33334 0.13655,-0.73333 0.30772,12.16667 0.38036,28.66667 0.0726,16.5 0.27527,31.35 0.45028,33 0.40477,3.81616 -0.58602,26.44504 -1.18407,27.04309 -0.24694,0.24693 -0.93745,-0.0395 -1.53447,-0.63652 -0.59702,-0.59702 -1.43631,-0.86357 -1.86508,-0.59234 -0.42877,0.27123 -11.12959,0.49899 -23.77959,0.50613 -18.67735,0.0105 -22.96582,0.17814 -22.81817,0.8918 0.10001,0.48336 -0.87499,0.0728 -2.16666,-0.91246 -2.18697,-1.66808 -3.37373,-3.66099 -1.51517,-2.5444 0.66472,0.39934 0.66589,0.29372 0.006,-0.522 -0.45515,-0.56245 -0.68265,-1.22254 -0.50556,-1.46686 0.1771,-0.24432 -0.0355,-0.14172 -0.47245,0.22801 -0.43694,0.36972 -1.03358,0.67222 -1.32586,0.67222 -1.07922,0 -5.84279,-4.83573 -5.42673,-5.50893 0.24533,-0.39694 0.11105,-0.49945 -0.31185,-0.23809 -0.74797,0.46228 -3.37754,-1.6333 -10.13,-8.07291 L 559,168.01663 524.15,168.00832 489.3,168 l -0.4,2 c -0.38491,1.92455 -0.53519,2 -3.98333,2 h -3.58334 l -0.0789,6.16667 c -0.0434,3.39167 -0.27052,7.06667 -0.50474,8.16667 -0.42177,1.98077 -0.48532,2.00675 -6.60886,2.70237 -5.02694,0.57104 -6.12065,0.53988 -5.84952,-0.16667 0.42336,-1.10326 -0.43325,-1.12315 -1.53772,-0.0357 -0.67918,0.66871 -1.16645,0.46383 -2.46666,-1.03718 -0.89116,-1.02878 -1.62029,-1.66658 -1.62029,-1.41733 0,0.24924 -2.62736,-2.27877 -5.83858,-5.61781 l -5.83857,-6.07098 -33.99476,-0.0234 c -18.69712,-0.0129 -34.76877,-0.0181 -35.71479,-0.0117 -1.56034,0.0106 -1.71006,0.24378 -1.61275,2.51169 0.15867,3.6977 -0.19151,4.16667 -3.11122,4.16667 -1.44908,0 -2.48901,-0.23572 -2.31096,-0.52381 0.17806,-0.2881 -0.23221,-0.52381 -0.91171,-0.52381 -0.67949,0 -1.08976,0.23571 -0.91171,0.52381 0.17806,0.28809 0.0154,0.52381 -0.36135,0.52381 -0.3768,0 -0.49352,0.49921 -0.25939,1.10936 0.29273,0.76284 0.17373,0.95363 -0.38098,0.61081 -0.59259,-0.36625 -0.68532,-0.015 -0.34939,1.3234 0.34056,1.3569 0.24701,1.69201 -0.36649,1.31285 -0.553,-0.34178 -0.67747,-1.30574 -0.37868,-2.93277 0.30789,-1.67656 0.23083,-2.21512 -0.24997,-1.74714 -0.38228,0.37208 -0.78063,2.32208 -0.88521,4.33333 -0.18619,3.58049 -0.23029,3.6538 -2.11264,3.51212 -1.05736,-0.0796 -2.02535,-0.24757 -2.15108,-0.3733 -0.12573,-0.12573 -0.43182,-4.48561 -0.68019,-9.68863 l -0.45159,-9.46003 h -18.52747 -18.52747 l -0.20319,3.16666 -0.2032,3.16667 -2.90489,0.33333 -2.9049,0.33334 0.10283,16.16667 c 0.0566,8.89166 -0.0612,16.16666 -0.26177,16.16666 -0.20053,0 -0.3994,-5.025 -0.44193,-11.16666 z m 263.49339,-9.67778 c -0.65841,-0.65351 -0.73499,-0.57694 -0.3732,0.37319 0.25036,0.65748 0.62313,1.02748 0.82839,0.82223 0.20526,-0.20526 4.2e-4,-0.7432 -0.45519,-1.19542 z m 3.02838,-0.12623 c 0,-0.53387 -0.25489,-0.81314 -0.56643,-0.6206 -0.31153,0.19254 -0.39383,0.62934 -0.18287,0.97067 0.53908,0.87226 0.7493,0.77404 0.7493,-0.35007 z m -120.24599,-0.80711 c -0.3878,-1.01058 -1.28156,-1.16643 -1.80765,-0.31521 -0.45322,0.73334 0.0207,1.2041 1.21231,1.2041 0.51504,0 0.78294,-0.4 0.59534,-0.88889 z M 349.10819,101.83334 c -0.18494,-0.45834 -0.33626,-0.0833 -0.33626,0.83333 0,0.91667 0.15132,1.29167 0.33626,0.83333 0.18494,-0.45833 0.18494,-1.20833 0,-1.66666 z M 455.99074,191.50001 447,182.33334 l 9.16667,8.99074 c 8.51524,8.35181 9.4687,9.34259 8.99073,9.34259 -0.0968,0 -4.22176,-4.125 -9.16666,-9.16666 z m 10.89815,-0.60053 c 0,-0.65633 0.22465,-0.69187 0.88889,-0.14059 0.48889,0.40574 0.88889,0.80097 0.88889,0.8783 0,0.0773 -0.4,0.14059 -0.88889,0.14059 -0.48889,0 -0.88889,-0.39523 -0.88889,-0.8783 z m -297.88417,-0.22517 c -0.23356,-0.37791 0.034,-0.48967 0.62732,-0.26201 1.15495,0.44319 1.36626,0.92104 0.4073,0.92104 -0.34502,0 -0.8106,-0.29657 -1.03462,-0.65903 z m -14.42309,-2.50764 c -0.82925,-1.05737 -0.80567,-1.08095 0.2517,-0.2517 0.64167,0.50323 1.16667,1.02823 1.16667,1.16666 0,0.54869 -0.54746,0.19554 -1.41837,-0.91496 z m 12.08504,0.90466 c 0,-0.1441 0.46558,-0.44067 1.03462,-0.65903 0.59329,-0.22766 0.86088,-0.1159 0.62732,0.26201 -0.3915,0.63347 -1.66194,0.93696 -1.66194,0.39702 z m -20.08504,-8.23799 c -0.82925,-1.05737 -0.80567,-1.08095 0.2517,-0.25171 1.1105,0.87092 1.46366,1.41837 0.91497,1.41837 -0.13844,0 -0.66344,-0.525 -1.16667,-1.16666 z m 415.33333,0 c -0.82924,-1.05737 -0.80566,-1.08095 0.25171,-0.25171 1.1105,0.87092 1.46365,1.41837 0.91496,1.41837 -0.13844,0 -0.66344,-0.525 -1.16667,-1.16666 z M 18.333333,100.66667 C 18.559946,100.3 18.877651,100 19.039345,100 c 0.161693,0 0.293988,0.3 0.293988,0.66667 0,0.36667 -0.317705,0.66667 -0.706011,0.66667 -0.388306,0 -0.520601,-0.3 -0.293989,-0.66667 z M 35.875,100.87793 c 0.48125,-0.19258 1.05625,-0.1689 1.277778,0.0526 0.221528,0.22153 -0.172222,0.37909 -0.875,0.35014 -0.776629,-0.032 -0.9346,-0.18996 -0.402778,-0.40277 z m 49.458333,-0.21126 c 0,-0.835282 0.707494,-0.835282 2,0 0.80864,0.52258 0.712959,0.6482 -0.5,0.65646 -0.825,0.006 -1.5,-0.28979 -1.5,-0.65646 z M 560,100.62732 c 0,-0.3883 0.3,-0.5206 0.66667,-0.29398 0.36666,0.22661 0.66666,0.54431 0.66666,0.70601 0,0.16169 -0.3,0.29399 -0.66666,0.29399 C 560.3,101.33334 560,101.01563 560,100.62732 Z m 4.33333,0.0393 C 564.55995,100.3 564.87765,100 565.03934,100 c 0.1617,0 0.29399,0.3 0.29399,0.66667 0,0.36667 -0.3177,0.66667 -0.70601,0.66667 -0.3883,0 -0.5206,-0.3 -0.29399,-0.66667 z M 272.8425,57.521614 c 1.01337,-0.153236 2.51337,-0.149141 3.33333,0.0091 0.81996,0.158241 -0.009,0.283616 -1.8425,0.278611 -1.83333,-0.005 -2.50421,-0.134475 -1.49083,-0.287711 z m -15.63417,-3.310355 c 0.48125,-0.192581 1.05625,-0.168896 1.27778,0.05263 0.22153,0.221528 -0.17222,0.379094 -0.875,0.350147 -0.77663,-0.03199 -0.9346,-0.189961 -0.40278,-0.402777 z m 10.97102,-0.0066 c 0.64865,-0.169029 1.54865,-0.157912 2,0.0247 0.45136,0.182615 -0.0793,0.320912 -1.17935,0.307325 -1.1,-0.01359 -1.46929,-0.162999 -0.82065,-0.332028 z M 369.16667,32.836081 c 3.75833,-0.118832 9.90833,-0.118832 13.66666,0 3.75834,0.118831 0.68334,0.216057 -6.83333,0.216057 -7.51667,0 -10.59167,-0.09723 -6.83333,-0.216057 z"
         id="path7" />
      <path
         style="fill:#f2b617"
         d="M 0.46201653,383.83334 C -0.23891204,380.82243 0.48194503,1.8595205 1.1894327,1.4222643 1.5652094,1.1900189 148.15131,1.0756095 326.93633,1.168021 L 652,1.336042 V 193.33469 385.33334 H 326.40561 0.81121071 Z M 637.17181,328.55411 l 0.17181,-40.4459 -1.83848,-0.34701 c -1.01116,-0.19085 -5.84231,-0.54398 -10.73588,-0.78474 -4.89357,-0.24075 -11.64357,-0.87524 -15,-1.40997 -3.35643,-0.53474 -8.80259,-1.22039 -12.10259,-1.52367 -3.3,-0.30327 -6.825,-0.87955 -7.83334,-1.28061 C 588.14255,282.08971 588,281.74662 588,278.34984 c 0,-4.20941 -0.0307,-4.19515 5.77421,-2.68317 5.13416,1.33728 41.44724,1.48184 41.86685,0.16667 0.35143,-1.10148 0.87458,-255.824378 0.52851,-257.334052 -0.25452,-1.110294 -15.38354,-1.159195 -309.38526,-1 L 17.666667,17.666667 V 153.33334 289.00001 L 41.833333,289.17499 66,289.34997 v 4.22621 4.2262 l -5.5,0.42815 c -3.025,0.23549 -14.125,0.42995 -24.666667,0.43215 l -19.166666,0.004 v 34.88889 c 0,19.18889 0.200319,35.08921 0.445155,35.33405 0.244835,0.24483 139.819838,0.36983 310.166668,0.27778 L 637,369.00001 Z M 108,276.64575 c 0,-3.857 0.24951,-5.45 0.89226,-5.69665 0.49074,-0.18831 3.26574,-0.2539 6.16667,-0.14574 l 5.2744,0.19665 -2.69771,1.44436 c -1.659,0.88823 -3.79307,3.0059 -5.54258,5.5 -1.56467,2.2306 -3.1257,4.05564 -3.46895,4.05564 -0.34325,0 -0.62409,-2.40942 -0.62409,-5.35426 z m 63.46578,-10.97908 c -0.0729,-0.73333 -1.18248,-2.17112 -2.4658,-3.19508 -1.28332,-1.02397 -2.33331,-2.1245 -2.33331,-2.44563 0,-0.73029 4.61736,-3.63081 5.06589,-3.18228 0.181,0.181 0.22483,2.54022 0.0974,5.24271 -0.12743,2.70249 -0.29132,4.31362 -0.36418,3.58028 z m 305.86755,-16.22864 c -3.43063,-1.33368 -10.67382,-3.10383 -11.66666,-2.85119 -0.36667,0.0933 0.78739,-1.31537 2.56457,-3.13039 l 3.23125,-3.30004 4.76875,1.44736 4.76876,1.44736 0.19994,3.80777 c 0.10996,2.09428 -0.04,3.79374 -0.33334,3.77659 -0.2933,-0.0172 -1.88327,-0.55601 -3.53327,-1.19746 z m -60.84398,-11.83757 c -0.70881,-0.7088 -0.60178,-6.11894 0.12999,-6.57121 0.34064,-0.21052 1.91564,-0.087 3.5,0.27447 1.58436,0.36148 4.23066,0.89237 5.88066,1.17975 2.88374,0.50225 3,0.61281 3,2.85285 v 2.33035 l -6.01065,0.21157 c -3.30586,0.11636 -6.23086,-0.009 -6.5,-0.27778 z M 216,229.32751 c 0,-1.007 0.3999,-2.1628 0.88868,-2.56845 0.82179,-0.68202 12.131,-1.51687 35.95568,-2.65425 5.04773,-0.24098 9.47273,-0.33814 9.83333,-0.21592 0.95787,0.32466 0.80275,4.77129 -0.17769,5.09345 -0.45833,0.1506 -5.33333,0.42502 -10.83333,0.6098 -16.15359,0.54273 -30.48009,1.12804 -33.16667,1.35504 -2.3333,0.19716 -2.5,0.0892 -2.5,-1.61967 z m 153.33333,-2.1067 c -6.27263,-2.59293 -6,-2.35379 -6,-5.26299 0,-2.71466 0.0121,-2.72776 2.09563,-2.27014 1.1526,0.25315 3.1026,0.88101 4.33333,1.39525 2.06774,0.86395 2.23771,1.16217 2.23771,3.92602 0,3.19174 -0.0985,3.27346 -2.66667,2.21186 z M 313.5,215.51187 l -2.83333,-0.25519 v -2.97084 -2.97084 l 4.4712,0.38836 c 5.3703,0.46646 5.5288,0.54872 5.5288,2.86932 0,2.21223 -1.12505,3.4678 -2.96667,3.31085 -0.75167,-0.0641 -2.64167,-0.2313 -4.2,-0.37166 z"
         id="path6" />
      <path
         style="fill:#3ca3c5"
         d="m 435.64087,305.33334 c 0,-17.05 0.0863,-24.025 0.19185,-15.5 0.10552,8.525 0.10552,22.475 0,31 -0.10552,8.525 -0.19185,1.55 -0.19185,-15.5 z M 291.5,331.54046 c 0.64167,-0.16769 1.69167,-0.16769 2.33333,0 0.64167,0.16768 0.11667,0.30488 -1.16666,0.30488 -1.28334,0 -1.80834,-0.1372 -1.16667,-0.30488 z m -3.23001,-1.70712 -1.26999,-1.5 1.5,1.26999 c 0.825,0.6985 1.5,1.3735 1.5,1.5 0,0.53351 -0.53653,0.13964 -1.73001,-1.26999 z m -101.60332,-71.5 V 186 H 198.33333 210 v 61.66667 61.66667 h 21.66667 21.66666 v 10.66667 10.66667 H 220 186.66667 Z M 386,256.66667 v -74 h 30.50893 30.50893 l 9.08456,9.16667 9.08455,9.16667 0.4431,18.03464 0.44309,18.03465 -8.66652,8.44993 -8.66652,8.44994 8.61783,7.84875 8.61782,7.84875 0.0121,30.5 0.0121,30.50001 h -12 -12 v -31.33334 -31.33333 h -16 -16 v 31.33333 31.33334 h -12 -12 z m 55.84422,-29.5 0.17756,-17.83333 h -16.34422 -16.34423 v 17.65314 17.65314 l 13.83334,0.20934 c 7.60833,0.11513 14.88333,0.19622 16.16666,0.18019 l 2.33334,-0.0291 z m -9.36968,10.36296 3.47454,-0.2642 0.23102,-5.46605 0.23102,-5.46604 -0.0389,5.66667 -0.0389,5.66666 -3.66666,0.0636 -3.66667,0.0636 z m 3.69358,-14.52962 c 0.007,-1.46667 0.14393,-1.98817 0.30339,-1.1589 0.15946,0.82928 0.15341,2.02928 -0.0135,2.66667 -0.16686,0.63739 -0.29733,-0.0411 -0.28993,-1.50777 z m 0.0135,-5.66667 c 0,-1.65 0.13001,-2.325 0.28891,-1.5 0.1589,0.825 0.1589,2.175 0,3 -0.1589,0.825 -0.28891,0.15 -0.28891,-1.5 z M 73.385965,327.61112 c 0.03199,-0.77663 0.18996,-0.9346 0.402778,-0.40278 0.19258,0.48125 0.168896,1.05625 -0.05263,1.27778 -0.221528,0.22153 -0.379093,-0.17222 -0.350146,-0.875 z m 497.947365,-1.94444 c 1.24386,-1.28334 2.41156,-2.33334 2.59489,-2.33334 0.18334,0 -0.68436,1.05 -1.92822,2.33334 -1.24386,1.28333 -2.41156,2.33333 -2.59489,2.33333 -0.18333,0 0.68437,-1.05 1.92822,-2.33333 z m -287.54438,-6.92742 -8.45562,-8.59409 v -68.40592 -68.40591 h 15 15 v 63.66667 63.66666 H 318.66667 332 v -63.66666 -63.66667 h 13.33333 13.33334 v 68.17673 68.17673 l -9.83334,8.78742 -9.83333,8.78741 -23.37772,0.0359 -23.37772,0.0359 z M 73.620836,310.33334 c 4.36e-4,-8.8 0.0953,-12.30779 0.210805,-7.7951 0.115506,4.5127 0.115149,11.7127 -7.93e-4,16 -0.115942,4.28731 -0.210448,0.5951 -0.210012,-8.2049 z M 156,323.66668 c 1.24386,-1.28334 2.41156,-2.33334 2.59489,-2.33334 0.18333,0 -0.68437,1.05 -1.92822,2.33334 -1.24386,1.28333 -2.41156,2.33333 -2.59489,2.33333 -0.18334,0 0.68436,-1.05 1.92822,-2.33333 z M 80,248.33334 v -71.66667 l 31.16667,0.026 31.16666,0.026 9.83334,9.05 9.83333,9.04999 -0.01,18.09065 -0.01,18.09066 -8.30037,8.66666 c -4.56521,4.76667 -8.31075,8.84104 -8.32344,9.05415 -0.0127,0.21311 4.17693,4.22811 9.31027,8.92222 L 164,266.17778 v 18.75467 18.75467 l -7.73479,8.15644 -7.73479,8.15645 H 114.26521 80 Z m 54,32 v -17.66667 h -16.24272 -16.24271 l -0.42395,3.09305 c -0.23318,1.70118 -0.42395,9.65118 -0.42395,17.66667 v 14.57362 H 117.33333 134 Z m -25.55421,10.51754 c -0.17669,-0.28465 4.14341,-0.42758 9.60021,-0.31764 l 9.92146,0.1999 0.20787,-11.03387 0.20787,-11.03388 -0.0249,11.16731 -0.0249,11.16731 -9.78315,0.1842 c -5.38073,0.10131 -9.92771,-0.0487 -10.10439,-0.33333 z m -0.24601,-4.85087 c 0,-2.01667 0.12497,-2.84167 0.27772,-1.83334 0.15275,1.00834 0.15275,2.65834 0,3.66667 -0.15275,1.00833 -0.27772,0.18333 -0.27772,-1.83333 z m -0.0945,-16.66667 c 0,-0.91667 0.15132,-1.29167 0.33626,-0.83333 0.18494,0.45833 0.18494,1.20833 0,1.66666 -0.18494,0.45834 -0.33626,0.0833 -0.33626,-0.83333 z m 27.22807,-52 v -18 H 119 102.66667 v 18 18 H 119 135.33333 Z m -20.5,-12.49554 c 2.84167,-0.12497 7.49167,-0.12497 10.33334,0 2.84166,0.12497 0.51666,0.22721 -5.16667,0.22721 -5.68333,0 -8.00833,-0.10224 -5.16667,-0.22721 z m 162.77,113.66221 -1.27,-1.5 1.5,1.26999 c 1.40963,1.19348 1.8035,1.73001 1.27,1.73001 -0.12651,0 -0.80151,-0.675 -1.5,-1.5 z m 217.73,-70.83334 V 176 l 30.83334,0.029 30.83333,0.029 10.5,9.72702 10.5,9.72702 v 17.34471 17.34471 l -8.80845,9.01869 c -4.84464,4.96028 -8.44277,9.14058 -7.99584,9.28956 0.44693,0.14897 0.66442,0.51062 0.48332,0.80365 -0.1811,0.29303 3.86703,4.35539 8.99585,9.02748 L 580,266.83551 v 18.09225 18.09226 l -8.17629,8.15666 -8.1763,8.15666 h -34.15704 -34.15704 z m 56,31 v -18 H 535 518.66667 v 17.65315 17.65314 L 532.5,296.16743 c 7.60833,0.10697 14.95833,0.26305 16.33333,0.34686 l 2.5,0.15238 z m -20.46953,10.17058 c 2.85843,-0.12527 7.35843,-0.1245 10,0.002 2.64158,0.1262 0.30287,0.2287 -5.19713,0.22776 -5.5,-9.3e-4 -7.66129,-0.10419 -4.80287,-0.22946 z m -5.29383,-11.83724 c -0.002,-3.3 0.1107,-4.73405 0.25052,-3.18678 0.13981,1.54726 0.14148,4.24727 0.004,6 -0.13778,1.75273 -0.25218,0.48678 -0.25421,-2.81322 z m -0.082,-8.33334 c 0,-1.28333 0.1372,-1.80833 0.30488,-1.16666 0.16769,0.64166 0.16769,1.69166 0,2.33333 -0.16768,0.64167 -0.30488,0.11667 -0.30488,-1.16667 z m 25.68956,-50.83333 0.17755,-17.83333 h -16.34422 -16.34422 v 17.65314 17.65314 L 532.5,235.51562 c 7.60833,0.11514 14.88333,0.19622 16.16667,0.18019 L 551,235.66667 Z m -11.01089,10.35583 c 1.00833,-0.15275 2.65833,-0.15275 3.66666,0 1.00834,0.15275 0.18334,0.27773 -1.83333,0.27773 -2.01667,0 -2.84167,-0.12498 -1.83333,-0.27773 z m -14.72807,-21.5225 c 0,-0.91666 0.15131,-1.29166 0.33625,-0.83333 0.18495,0.45833 0.18495,1.20833 0,1.66667 -0.18494,0.45833 -0.33625,0.0833 -0.33625,-0.83334 z m -201.92591,88.87134 c 0.64864,-0.16902 1.54864,-0.15791 2,0.0247 0.45135,0.18261 -0.0794,0.32091 -1.17936,0.30732 -1.1,-0.0136 -1.46929,-0.163 -0.82064,-0.33203 z M 73.463299,292.33334 c 0.01359,-1.1 0.162999,-1.46929 0.332028,-0.82064 0.169029,0.64864 0.157913,1.54864 -0.0247,2 -0.182615,0.45135 -0.320911,-0.0794 -0.307325,-1.17936 z m 0.188505,-59 c 0,-30.98333 0.0816,-43.65833 0.181333,-28.16667 0.09973,15.49167 0.09973,40.84167 0,56.33334 -0.09973,15.49166 -0.181333,2.81666 -0.181333,-28.16667 z m 341.734156,41.61111 c 0.032,-0.77663 0.18997,-0.9346 0.40278,-0.40278 0.19258,0.48125 0.1689,1.05625 -0.0526,1.27778 -0.22153,0.22153 -0.37909,-0.17222 -0.35015,-0.875 z m 46.94737,-25.61111 c 1.43217,-1.46667 2.75393,-2.66667 2.93727,-2.66667 0.18333,0 -0.83844,1.2 -2.2706,2.66667 -1.43216,1.46667 -2.75393,2.66667 -2.93726,2.66667 -0.18334,0 0.83843,-1.2 2.27059,-2.66667 z m 26.48438,-63.46673 -0.15104,-13.1334 -3.83334,-0.24055 -3.83333,-0.24054 3.85426,-0.12606 c 2.61512,-0.0855 3.95959,0.14846 4.18191,0.72781 0.18021,0.46962 0.23876,6.54462 0.13012,13.5 l -0.19755,12.64614 z m -109.43175,-8.25549 c 0.032,-0.77663 0.18997,-0.9346 0.40278,-0.40278 0.19258,0.48125 0.1689,1.05625 -0.0526,1.27778 -0.22153,0.22152 -0.37909,-0.17223 -0.35015,-0.875 z m -59.21793,-0.27778 c 0.18961,-0.7035 1.24243,-1.02128 3.55075,-1.07177 l 3.28122,-0.0718 -2.98905,0.28438 c -1.64397,0.15641 -3.24181,0.63871 -3.55075,1.07178 -0.38836,0.54439 -0.47853,0.47877 -0.29217,-0.21261 z m -55.3347,-1.14417 c 1.00834,-0.15275 2.65834,-0.15275 3.66667,0 1.00833,0.15275 0.18333,0.27773 -1.83333,0.27773 -2.01667,0 -2.84167,-0.12498 -1.83334,-0.27773 z M 67.845273,175.51685 c 1.198233,-0.14837 2.998233,-0.14531 4,0.007 1.001766,0.15212 0.02139,0.27352 -2.178606,0.26978 -2.2,-0.004 -3.019628,-0.12821 -1.821394,-0.27658 z M 17.653811,102.66667 c 0,-36.116668 0.08072,-50.891669 0.179377,-32.833335 0.09866,18.058334 0.09866,47.608335 0,65.666665 -0.09866,18.05834 -0.179377,3.28334 -0.179377,-32.83333 z m 617.997479,4.66667 c 0,-29.883338 0.0818,-42.108338 0.18183,-27.166671 0.10001,14.941667 0.10001,39.391671 0,54.333331 -0.10001,14.94167 -0.18183,2.71667 -0.18183,-27.16666 z m -344.85229,42.83437 12.46567,-0.19687 0.24434,-3.48542 0.24435,-3.48542 0.12332,3.83334 0.12332,3.83333 -12.83333,-0.15104 -12.83334,-0.15104 z m 26.83642,-0.34207 c -0.1775,-0.46256 -0.23838,-9.68756 -0.13528,-20.5 l 0.18746,-19.65897 0.1562,20.16667 L 318,150 h 12.29849 12.2985 l 0.24485,-3.5 0.24485,-3.5 0.12332,3.83334 0.12332,3.83333 h -12.68759 c -9.59698,0 -12.7662,-0.20487 -13.01032,-0.84103 z m 91.81438,-2.27675 c -0.0899,-2.66474 -0.38231,-3.52059 -1.28313,-3.756 -1.0934,-0.28574 -1.09208,-0.30974 0.0209,-0.38222 1.5391,-0.10022 1.95676,1.09329 1.63761,4.67973 L 409.56628,151 Z M 370.5,143.50097 c 6.69167,-0.10874 17.64167,-0.10874 24.33333,0 6.69167,0.10874 1.21667,0.19771 -12.16666,0.19771 -13.38334,0 -18.85834,-0.089 -12.16667,-0.19771 z m -86,-0.60915 c 0.45833,-0.18494 1.20833,-0.18494 1.66667,0 0.45833,0.18494 0.0833,0.33625 -0.83334,0.33625 -0.91666,0 -1.29166,-0.15131 -0.83333,-0.33625 z m 69.14668,-43.558484 c 0,-22.550001 0.0838,-31.775001 0.18629,-20.500001 0.10247,11.275001 0.10247,29.725005 0,41.000005 -0.10246,11.275 -0.18629,2.05 -0.18629,-20.500004 z M 288,88.333336 V 37.333334 h 9 9 v 20.666668 20.666667 h 10.66667 10.66666 V 58.000002 37.333334 H 335 342.66667 V 88.333336 139.33334 H 335 327.33333 V 118 96.666669 H 316.66667 306 V 118 139.33334 h -9 -9 z m 74.66667,0.333333 V 38.000001 H 386.33333 410 v 8 8 h -14 -14 v 13.000001 13 h 14 14 v 9 9.000001 H 396 382 V 110 122 h 14 14 v 8.66667 8.66667 H 386.33333 362.66667 Z M 233.33333,96.000003 V 54.000001 H 222 210.66667 v -8.666666 -8.666667 h 32 32 v 8.666667 8.666666 H 261 247.33333 V 96.000003 138 h -7 -7 z m 152.87325,17.666667 c 0.004,-2.2 0.1282,-3.01963 0.27657,-1.82139 0.14838,1.19823 0.14532,2.99823 -0.007,4 -0.15212,1.00176 -0.27351,0.0214 -0.26977,-2.17861 z M 252.94339,100 c 0,-6.783331 0.099,-9.558331 0.21999,-6.166664 0.12099,3.391667 0.12099,8.941664 0,12.333334 -0.121,3.39167 -0.21999,0.61667 -0.21999,-6.16667 z m 133.10924,8.27778 c 0.032,-0.77663 0.18996,-0.9346 0.40278,-0.40278 0.19258,0.48125 0.1689,1.05625 -0.0526,1.27778 -0.22153,0.22153 -0.3791,-0.17222 -0.35015,-0.875 z m 2.07571,-0.39759 c -0.62059,-0.24923 3.67166,-0.42015 9.53833,-0.37983 10.80033,0.0742 10.05966,0.33395 -1.87167,0.65632 -3.59608,0.0972 -7.04608,-0.0273 -7.66666,-0.27649 z m -77.94676,-4.54685 c 0,-1.65 0.13001,-2.325 0.28891,-1.5 0.1589,0.825 0.1589,2.175 0,3 -0.1589,0.825 -0.28891,0.15 -0.28891,-1.5 z m -89.27143,-6.333337 c 0.002,-3.666667 0.11369,-5.081611 0.24879,-3.144319 0.13509,1.937291 0.13367,4.937291 -0.003,6.666666 -0.13683,1.72938 -0.24736,0.14432 -0.24563,-3.522347 z m 57.30323,2.333333 c 0,-2.383333 0.121,-3.358333 0.26888,-2.166667 0.14789,1.191667 0.14789,3.141671 0,4.333331 -0.14788,1.19167 -0.26888,0.21667 -0.26888,-2.166664 z m 113.2529,2.837444 c 3.18979,-0.12194 8.58979,-0.12251 12,-10e-4 3.41021,0.12124 0.80039,0.22101 -5.79961,0.22171 -6.6,7e-4 -9.39018,-0.0985 -6.20039,-0.22044 z m 22.75786,-4.837444 c 0,-2.75 0.11768,-3.875 0.26151,-2.5 0.14383,1.375 0.14383,3.625 0,5 -0.14383,1.375004 -0.26151,0.250004 -0.26151,-2.5 z M 386,74.687592 c 0,-0.355159 0.45,-0.473062 1,-0.262008 0.55,0.211055 1,0.50164 1,0.645744 0,0.144104 -0.45,0.262007 -1,0.262007 -0.55,0 -1,-0.290584 -1,-0.645743 z m 0.58166,-10.870905 c 0.28507,-0.284157 5.59581,-0.433384 11.80165,-0.331615 l 11.28336,0.185033 -11.80166,0.331615 c -6.4909,0.182388 -11.56841,0.09912 -11.28335,-0.185033 z M 322.05263,38.277779 c 0.032,-0.776629 0.18996,-0.9346 0.40278,-0.402778 0.19258,0.48125 0.1689,1.05625 -0.0526,1.277778 -0.22153,0.221528 -0.3791,-0.172222 -0.35015,-0.875 z M 17.333333,18.666667 C 17.333333,18.3 17.651038,18 18.039345,18 c 0.388306,0 0.520601,0.3 0.293988,0.666667 -0.226612,0.366667 -0.544317,0.666667 -0.706011,0.666667 -0.161694,0 -0.293989,-0.3 -0.293989,-0.666667 z M 114.33333,0.66666668 C 114.05965,0.2238372 137.45064,0 184,0 c 46.54936,0 69.94035,0.2238372 69.66667,0.66666668 -0.56922,0.92101122 -138.76412,0.92101122 -139.33334,0 z m 298,0 C 412.05963,0.22380792 435.88197,0 483.29399,0 c 47.13734,0 71.37268,0.22637362 71.37268,0.66666668 0,0.44026892 -24.098,0.66666672 -70.96066,0.66666672 -46.58798,0 -71.10217,-0.2289784 -71.37268,-0.66666672 z"
         id="path5" />
      <path
         style="fill:#3466e8"
         d="m 312.8425,106.85495 c 1.01337,-0.15324 2.51337,-0.14914 3.33333,0.009 0.81996,0.15824 -0.009,0.28362 -1.8425,0.27861 -1.83333,-0.005 -2.50421,-0.13448 -1.49083,-0.28771 z M 409.50146,105 c 0.007,-1.46666 0.14392,-1.98817 0.30338,-1.15889 0.15946,0.82927 0.15341,2.02927 -0.0135,2.66667 -0.16686,0.63739 -0.29733,-0.0411 -0.28993,-1.50778 z m -57.6987,-1.22119 c -0.25819,-0.67165 -0.50492,-2.02165 -0.5483,-3 -0.0785,-1.770089 -0.0814,-1.769005 -0.58779,0.22119 -0.27991,1.1 -0.54441,1.5215 -0.58779,0.93666 -0.0434,-0.58484 -0.67888,-1.60633 -1.41221,-2.269991 -1.29867,-1.175276 -1.33334,-2.053311 -1.33334,-33.769992 V 33.333334 H 335 322.66667 l -0.0102,1.833334 c -0.0135,2.423661 -0.9412,3.789211 -2.23655,3.292138 -0.5764,-0.221184 -1.51552,0.06537 -2.08694,0.636795 -0.89217,0.892169 -1.03002,3.548838 -0.97577,18.805007 l 0.0632,17.766061 -3.37686,0.160237 -3.37685,0.160238 V 54.660239 33.333334 H 297.33333 284 v 2.325455 c 0,2.197517 -0.14671,2.348915 -2.66667,2.751872 l -2.66666,0.426418 -0.004,26.414795 c -0.002,14.528137 -0.19101,28.814795 -0.41958,31.748129 l -0.41558,5.333337 h -11.58019 c -7.21989,0 -11.61169,0.25102 -11.66386,0.66666 -0.046,0.36667 -0.3388,-0.68333 -0.65062,-2.33333 -0.31182,-1.650001 -0.7697,-11.907881 -1.01753,-22.795291 l -0.45059,-19.79529 1.87704,-0.471106 c 1.03236,-0.259108 6.5528,-0.27799 12.26764,-0.04196 L 277,57.992166 276.80425,45.996084 276.6085,34.000001 h -34.92868 -34.92868 l -0.2089,2.166667 c -0.20654,2.142079 -0.25241,2.168935 -4.04224,2.366602 l -3.83333,0.199936 v 11.966731 11.966731 h 10.27881 c 5.65334,0 10.75334,0.182097 11.33333,0.40466 0.89955,0.34519 1.05416,1.937263 1.05208,10.833333 -0.003,13.8272 -0.74349,29.458379 -1.37656,29.067119 -0.27891,-0.17238 -0.65906,0.0635 -0.84476,0.52407 -0.23273,0.57726 -0.35399,0.52654 -0.39027,-0.16324 -0.0465,-0.88453 -10.25108,-1.00064 -87.88597,-1 -48.30833,4e-4 -88.014735,0.24789 -88.236452,0.54999 -0.221717,0.30209 -0.896717,0.0557 -1.5,-0.54762 -0.945906,-0.94591 -1.226763,-0.967 -2.040555,-0.1532 -0.736577,0.73657 -1.797303,0.82135 -4.833333,0.38629 -2.139311,-0.30656 -5.877942,-0.37464 -8.308068,-0.15129 -4.393106,0.40377 -4.422719,0.39514 -5.170654,-1.50534 -0.748785,-1.902647 -0.750682,-1.903194 -0.412476,-0.11896 0.383757,2.02454 -0.718549,3.11298 -1.88988,1.8661 -0.590612,-0.6287 -0.576778,-0.89802 0.05809,-1.1308 0.458333,-0.16806 0.833333,-0.59826 0.833333,-0.95601 0,-0.35775 -0.256772,-0.49176 -0.570604,-0.2978 C 17.924145,100.79224 17.325092,19.871407 18.159827,18.833334 18.694163,18.168835 81.279558,18 327.06893,18 h 308.239 l 0.44095,1.756871 c 0.24252,0.966278 0.24684,14.541278 0.01,30.166667 -0.23724,15.625389 -0.48468,34.18894 -0.54988,41.252337 -0.0652,7.063396 -0.35286,12.463395 -0.63926,11.999995 -0.41617,-0.67338 -22.40939,-0.84253 -109.54502,-0.84253 -59.96337,0 -109.02432,-0.24271 -109.02432,-0.53935 -1e-5,-0.29664 -0.37501,-0.31405 -0.83334,-0.0387 -0.66125,0.39726 -0.66453,0.29198 -0.0159,-0.50985 0.57498,-0.71075 0.60819,-1.21979 0.11198,-1.715997 -0.41135,-0.411355 -0.86372,-5.602395 -1.08501,-12.450805 -0.32776,-10.143637 -0.52486,-11.74909 -1.44531,-11.773009 -0.58619,-0.01523 -6.31784,-0.0038 -12.737,0.02538 -14.31542,0.0651 -14.14262,0.144214 -13.86269,-6.346858 l 0.20056,-4.650824 11.46069,-0.18224 11.46068,-0.182241 0.20598,-2.484426 c 0.1878,-2.265019 0.39733,-2.502876 2.37265,-2.693332 L 414,58.58219 V 46.064971 33.547751 l -18.5,-0.439248 c -10.175,-0.241587 -22.625,-0.439831 -27.66667,-0.440542 l -9.16666,-0.0013 v 3.333333 c 0,3.231865 -0.0587,3.333333 -1.92868,3.333333 -1.19909,0 -2.09294,0.428076 -2.36292,1.131627 -0.23883,0.622394 -0.60608,14.347395 -0.81611,30.500001 -0.37179,28.594236 -0.73922,35.459485 -1.7562,32.813845 z M 37.152778,100.93056 c -0.221528,-0.22153 -0.796528,-0.24521 -1.277778,-0.0526 -0.531822,0.21281 -0.373851,0.37079 0.402778,0.40277 0.702778,0.029 1.096528,-0.12861 0.875,-0.35014 z m 50.180555,-0.26389 c -1.292506,-0.835282 -2,-0.835282 -2,0 0,0.36667 0.675,0.66207 1.5,0.65646 1.212959,-0.008 1.30864,-0.13388 0.5,-0.65646 z m 473.999997,0.37268 c 0,-0.1617 -0.3,-0.4794 -0.66666,-0.70601 C 560.3,100.10672 560,100.23902 560,100.62732 c 0,0.38831 0.3,0.70602 0.66667,0.70602 0.36666,0 0.66666,-0.1323 0.66666,-0.29399 z m 4,-0.37268 C 565.33333,100.3 565.20104,100 565.03934,100 c -0.16169,0 -0.47939,0.3 -0.70601,0.66667 -0.22661,0.36667 -0.0943,0.66667 0.29399,0.66667 0.38831,0 0.70601,-0.3 0.70601,-0.66667 z m -152.88889,3.55555 c -0.78632,-0.78632 -0.4767,-1.26984 0.81315,-1.26984 0.75081,0 1.12505,0.34541 0.92867,0.85715 -0.3606,0.93972 -1.05117,1.10334 -1.74182,0.41269 z m -63.67251,-1.55555 c 0,-0.91667 0.15132,-1.29167 0.33626,-0.83333 0.18494,0.45833 0.18494,1.20833 0,1.66666 -0.18494,0.45834 -0.33626,0.0833 -0.33626,-0.83333 z"
         id="path4" />
      <path
         style="fill:#377122"
         d="m 17.111822,368.88961 c -0.244836,-0.24484 -0.445155,-16.14516 -0.445155,-35.33405 v -34.88889 l 19.166666,-0.004 c 10.541667,-0.002 21.628951,-0.19568 24.63841,-0.42997 l 5.471743,-0.42597 0.194923,-4.40336 C 66.245618,290.98151 66.333333,298.9 66.333333,311 v 22 l 33.696707,0.1727 33.69671,0.1727 2.2674,-2.33937 2.26741,-2.33936 7.03588,-0.0448 7.03589,-0.0448 4.33334,-4.9651 c 2.38333,-2.7308 6.80833,-7.429 9.83333,-10.44045 l 5.5,-5.47535 v 17.48528 c 0,13.5277 0.18861,17.49211 0.83333,17.51544 0.679,0.0246 75.526,0.003 78.33334,-0.0226 0.52651,-0.005 0.83333,-0.98942 0.83333,-2.67426 v -2.66667 h 4.33333 4.33334 v -18 -18 h -22 -22 v -35.26407 -35.26408 l 8.7798,-0.0998 c 4.8289,-0.0549 8.96987,-0.2173 9.20216,-0.36086 0.23229,-0.14357 6.55638,-0.46314 14.05352,-0.71016 7.49715,-0.24702 13.85618,-0.58351 14.13118,-0.74774 0.275,-0.16423 0.5,18.6944 0.5,41.90809 v 42.20669 l 10.83334,10.81447 c 5.95833,5.94796 11.01593,10.98025 11.23911,11.18288 0.22319,0.20263 10.69979,0.36964 23.28134,0.37115 l 22.87556,0.003 2.08373,-2.01964 c 1.53651,-1.48924 2.71462,-2.01963 4.48603,-2.01963 2.16737,0 3.53337,-1.02682 13.96826,-10.5 l 11.56597,-10.5 -0.18097,-42.86444 -0.18097,-42.86445 1.44056,0.77097 c 0.79231,0.42403 2.22374,1.00678 3.18097,1.29501 0.95722,0.28822 2.24793,0.73068 2.86824,0.98323 0.95309,0.38805 1.15968,-0.0402 1.33333,-2.7639 0.11303,-1.7727 0.11532,23.10191 0.005,55.27691 l -0.2004,58.50001 h 17.36706 c 16.92262,0 17.36707,-0.0341 17.36707,-1.33334 0,-1.20635 0.44444,-1.33333 4.66666,-1.33333 H 416 v -29.02414 -29.02415 l 6.5,0.19081 6.5,0.19081 0.17346,30.16667 0.17346,30.16667 h 16.99321 c 16.54876,0 16.9932,-0.0349 16.9932,-1.33334 0,-1.19658 0.44445,-1.33333 4.33334,-1.33333 H 472 l -0.0344,-33.83334 -0.0344,-33.83333 -7.31688,-6.6318 -7.31689,-6.6318 4.37656,-4.41035 4.37655,-4.41035 4.47478,1.15739 c 2.46112,0.63656 5.78749,1.63053 7.39192,2.20882 1.60443,0.57828 3.01376,1.05142 3.13183,1.05142 0.11807,0 0.30535,-1.575 0.41618,-3.5 0.11083,-1.925 0.10574,16.675 -0.0113,41.33334 l -0.21281,44.83333 h 34.63523 34.63524 l 2.40917,-2.66666 2.40917,-2.66667 7.1684,-0.007 7.16841,-0.007 8.66666,-9.10165 c 10.10541,-10.6126 9.54373,-9.1116 9.61725,-25.70074 L 588,282.03301 l 1.83333,0.7292 c 1.00834,0.40106 4.53334,0.97734 7.83334,1.28061 3.3,0.30328 8.74616,0.98893 12.10259,1.52367 3.35643,0.53473 10.10643,1.16922 15,1.40997 4.89357,0.24076 9.72472,0.59389 10.73588,0.78474 l 1.83848,0.34701 -0.17181,40.4459 -0.17181,40.4459 -309.72151,0.16738 c -170.34683,0.092 -309.921833,-0.033 -310.166668,-0.27778 z M 171.62925,286.66667 c 0,-11.18333 0.0912,-15.75833 0.20274,-10.16666 0.11151,5.59166 0.11151,14.74166 0,20.33333 -0.11151,5.59167 -0.20274,1.01667 -0.20274,-10.16667 z m 139.03742,-31.33662 v -40.00328 l 4.99785,0.16995 4.99786,0.16995 0.002,39.83334 0.002,39.83333 h -5 -5 z m -202.05684,34.83662 c -0.0313,-0.275 -0.008,-2.11184 0.0521,-4.08187 0.0959,-3.15287 0.50223,-4.12257 3.3924,-8.0962 1.80589,-2.48288 3.65743,-4.66879 4.11454,-4.85758 0.4571,-0.1888 1.9561,-0.82454 3.3311,-1.41275 l 2.5,-1.06949 v 10.00895 10.00894 h -6.66667 c -3.66666,0 -6.69224,-0.225 -6.7235,-0.5 z m 416.95569,-6 c 0.23375,-2.475 0.42713,-6.525 0.42974,-9 l 0.005,-4.5 h 6.33333 6.33334 v 9 9 h -6.76307 -6.76307 z M 172.18158,260.00001 c 0,-1.65 0.13001,-2.325 0.28891,-1.5 0.1589,0.825 0.1589,2.175 0,3 -0.1589,0.825 -0.28891,0.15 -0.28891,-1.5 z M 0.32439832,159.66667 c 1.647e-5,-52.8 0.0790127,-74.301513 0.17554711,-47.78114 0.0965344,26.52038 0.096521,69.72038 -2.994e-5,96 -0.0965509,26.27963 -0.17553364,4.58114 -0.17551717,-48.21886 z M 429.488,235.33334 c 0,-1.28333 0.1372,-1.80833 0.30488,-1.16667 0.16769,0.64167 0.16769,1.69167 0,2.33334 -0.16768,0.64166 -0.30488,0.11666 -0.30488,-1.16667 z"
         id="path3" />
      <path
         style="fill:#164450"
         d="m 172.67626,342.78142 c -0.42331,-0.14139 -0.65337,-28.22078 -0.65136,-79.5 L 172.02801,184 H 176.014 180 v 76.66667 76.66667 h 36 36 v 2.66667 c 0,1.68508 -0.30675,2.66929 -0.83333,2.67381 -21.88894,0.18753 -78.02071,0.26448 -78.49041,0.1076 z m 199.35146,-82.70251 c 0.0202,-43.22327 0.14656,-78.69828 0.28083,-78.83334 0.13426,-0.13506 1.91977,-0.1428 3.96779,-0.0172 L 380,181.45674 v 77.27163 77.27164 h 13.33333 c 12.88889,0 13.33334,0.0444 13.33334,1.33333 0,1.29916 -0.44445,1.33334 -17.33783,1.33334 h -17.33782 z m 57.14574,48.4211 L 429,278.33334 l -6.5,-0.19081 -6.5,-0.19081 v -1.97585 -1.97586 h 9.66667 9.66666 v 31 31 h 14 c 13.55556,0 14,0.0423 14,1.33333 0,1.29846 -0.44444,1.33334 -16.9932,1.33334 h -16.99321 z m -142.90851,26.80938 c -0.56015,-0.19651 -5.94892,-5.29621 -11.97504,-11.33266 L 263.33333,313.00137 V 244.83402 176.66667 H 266.66667 270 v 66.77306 66.77306 l 3.5,3.72941 c 1.925,2.05118 6.44405,6.8528 10.04233,10.67027 l 6.54234,6.94085 22.791,-0.14738 22.791,-0.14737 -2.03114,2.0557 -2.03113,2.0557 -22.16049,0.14835 c -12.18827,0.0816 -22.6188,-0.0124 -23.17896,-0.20893 z M 66.496713,332.94117 c -0.215696,-0.2157 -0.420451,-35.6157 -0.455011,-78.66667 L 65.978866,176 h 3.677234 3.677233 v 76.33334 76.33334 h 32.464107 32.46412 L 136,331.00001 l -2.26156,2.33333 h -33.42477 c -18.383631,0 -33.60126,-0.17648 -33.816957,-0.39217 z m 414.866667,-79.94116 0.006,-80.33334 h 3.64849 3.64849 v 77.66667 77.66667 h 33 c 18.15,0 33,0.24115 33,0.53589 0,0.29474 -0.98929,1.49474 -2.19841,2.66666 l -2.1984,2.13078 h -34.45639 -34.45639 z m -160.69671,-17 v -59.33334 h 3 3 v 59.33334 59.33333 h -3 -3 z M 122,280.66667 v -10 h -6.66667 c -6.22222,0 -6.66666,-0.0889 -6.66666,-1.33333 0,-1.27203 0.44444,-1.33333 9.66666,-1.33333 H 128 v 11.33333 11.33333 h -3 -3 z m 416.66667,-1 v -9 H 532.33333 526 v -2.33333 -2.33333 h 9.66667 9.66666 v 11.33333 11.33333 H 542 538.66667 Z M 429.91393,236.50001 c -0.0473,-0.45834 -0.27233,-5.33334 -0.5,-10.83334 l -0.41393,-10 -6.33333,-0.37239 c -5.92561,-0.34841 -5.70029,-0.3806 3.5,-0.5 L 436,214.66667 v 11.33334 11.33333 h -3 c -1.90965,0 -3.03128,-0.30287 -3.08607,-0.83333 z M 122,218.33334 v -9.66667 h -6 c -5.95556,0 -6,-0.0123 -6,-1.66666 v -1.66667 h 10 10 v 11.33333 11.33334 h -4 -4 z m 416.66667,0 v -9.66667 h -6.33334 c -6.31111,0 -6.33333,-0.006 -6.33333,-1.66666 v -1.66667 h 9.66667 9.66666 v 11.33333 11.33334 H 542 538.66667 Z M 354.44444,150.22223 c -0.55526,-0.55527 -0.59432,-108.38927 -0.0398,-109.834371 0.23996,-0.625334 1.18963,-1.054525 2.33333,-1.054525 h 1.92868 V 91.666669 144 H 384 409.33333 v 3.33334 3.33333 h -27.22222 c -14.97222,0 -27.42222,-0.2 -27.66667,-0.44444 z m -132.66666,-0.66667 c -0.24445,-0.24444 -0.44445,-19.89445 -0.44445,-43.66667 V 62.666668 H 210 198.66667 V 50.725882 38.785096 l 4.00121,-0.225881 4.00122,-0.225881 -10e-4,9.833334 -0.001,9.833334 h 11 11 v 42.333338 42.33333 H 237.33333 246 v 2.61214 c 0,4.90485 0.47823,4.72119 -12.29355,4.72119 -6.31632,0 -11.68423,-0.2 -11.92867,-0.44444 z m 56.88889,-55.222224 c 0,-52.567962 0.0649,-55.667175 1.16666,-55.675771 0.64167,-0.005 1.84167,-0.189997 2.66667,-0.411088 l 1.5,-0.401984 v 52.744422 52.744425 h 9.66667 9.66666 V 146.66667 150 H 291 278.66667 Z m 39.23462,35.500004 c -0.0543,-11.09167 -0.12929,-20.76667 -0.16666,-21.5 -0.0575,-1.1279 -0.60724,-1.36438 -3.56796,-1.53484 l -3.5,-0.20151 v -2.96516 -2.96516 h 6 6 V 122 143.33334 h 10 10 V 146.66667 150 H 330.33333 318 Z M 386,105 v -2.33333 h 11.66667 11.66666 V 105 107.33334 H 397.66667 386 Z M 317.355,58.065985 c -0.0501,-15.392891 0.0886,-18.081015 0.97905,-18.97146 0.72398,-0.723982 1.4849,-0.872089 2.51836,-0.490181 1.47459,0.544922 1.48175,0.626048 1.67427,18.97146 l 0.19336,18.424198 h -2.65333 -2.65332 z m 68.64418,3.100683 8.2e-4,-2.5 h 11.86613 11.86614 l -0.269,2.304163 -0.269,2.304163 -11.59796,0.195837 -11.59796,0.195837 z"
         id="path2" />
    </g>
  </g>
</svg>
